%TF.GenerationSoftware,KiCad,Pcbnew,9.0.4-9.0.4-0~ubuntu24.04.1*%
%TF.CreationDate,2025-11-05T14:30:19-05:00*%
%TF.ProjectId,LFAmp-offset,4c46416d-702d-46f6-9666-7365742e6b69,rev?*%
%TF.SameCoordinates,Original*%
%TF.FileFunction,Legend,Top*%
%TF.FilePolarity,Positive*%
%FSLAX46Y46*%
G04 Gerber Fmt 4.6, Leading zero omitted, Abs format (unit mm)*
G04 Created by KiCad (PCBNEW 9.0.4-9.0.4-0~ubuntu24.04.1) date 2025-11-05 14:30:19*
%MOMM*%
%LPD*%
G01*
G04 APERTURE LIST*
%ADD10C,0.100000*%
%ADD11C,0.150000*%
%ADD12C,0.120000*%
G04 APERTURE END LIST*
D10*
X204994360Y-106372419D02*
X205184836Y-106372419D01*
X205184836Y-106372419D02*
X205280074Y-106420038D01*
X205280074Y-106420038D02*
X205375312Y-106515276D01*
X205375312Y-106515276D02*
X205422931Y-106705752D01*
X205422931Y-106705752D02*
X205422931Y-107039085D01*
X205422931Y-107039085D02*
X205375312Y-107229561D01*
X205375312Y-107229561D02*
X205280074Y-107324800D01*
X205280074Y-107324800D02*
X205184836Y-107372419D01*
X205184836Y-107372419D02*
X204994360Y-107372419D01*
X204994360Y-107372419D02*
X204899122Y-107324800D01*
X204899122Y-107324800D02*
X204803884Y-107229561D01*
X204803884Y-107229561D02*
X204756265Y-107039085D01*
X204756265Y-107039085D02*
X204756265Y-106705752D01*
X204756265Y-106705752D02*
X204803884Y-106515276D01*
X204803884Y-106515276D02*
X204899122Y-106420038D01*
X204899122Y-106420038D02*
X204994360Y-106372419D01*
X205851503Y-106372419D02*
X205851503Y-107181942D01*
X205851503Y-107181942D02*
X205899122Y-107277180D01*
X205899122Y-107277180D02*
X205946741Y-107324800D01*
X205946741Y-107324800D02*
X206041979Y-107372419D01*
X206041979Y-107372419D02*
X206232455Y-107372419D01*
X206232455Y-107372419D02*
X206327693Y-107324800D01*
X206327693Y-107324800D02*
X206375312Y-107277180D01*
X206375312Y-107277180D02*
X206422931Y-107181942D01*
X206422931Y-107181942D02*
X206422931Y-106372419D01*
X206756265Y-106372419D02*
X207327693Y-106372419D01*
X207041979Y-107372419D02*
X207041979Y-106372419D01*
X204303884Y-64872419D02*
X204303884Y-63872419D01*
X204780074Y-64872419D02*
X204780074Y-63872419D01*
X204780074Y-63872419D02*
X205351502Y-64872419D01*
X205351502Y-64872419D02*
X205351502Y-63872419D01*
X188494360Y-68372419D02*
X188684836Y-68372419D01*
X188684836Y-68372419D02*
X188780074Y-68420038D01*
X188780074Y-68420038D02*
X188875312Y-68515276D01*
X188875312Y-68515276D02*
X188922931Y-68705752D01*
X188922931Y-68705752D02*
X188922931Y-69039085D01*
X188922931Y-69039085D02*
X188875312Y-69229561D01*
X188875312Y-69229561D02*
X188780074Y-69324800D01*
X188780074Y-69324800D02*
X188684836Y-69372419D01*
X188684836Y-69372419D02*
X188494360Y-69372419D01*
X188494360Y-69372419D02*
X188399122Y-69324800D01*
X188399122Y-69324800D02*
X188303884Y-69229561D01*
X188303884Y-69229561D02*
X188256265Y-69039085D01*
X188256265Y-69039085D02*
X188256265Y-68705752D01*
X188256265Y-68705752D02*
X188303884Y-68515276D01*
X188303884Y-68515276D02*
X188399122Y-68420038D01*
X188399122Y-68420038D02*
X188494360Y-68372419D01*
X189208646Y-68705752D02*
X189589598Y-68705752D01*
X189351503Y-69372419D02*
X189351503Y-68515276D01*
X189351503Y-68515276D02*
X189399122Y-68420038D01*
X189399122Y-68420038D02*
X189494360Y-68372419D01*
X189494360Y-68372419D02*
X189589598Y-68372419D01*
X189780075Y-68705752D02*
X190161027Y-68705752D01*
X189922932Y-69372419D02*
X189922932Y-68515276D01*
X189922932Y-68515276D02*
X189970551Y-68420038D01*
X189970551Y-68420038D02*
X190065789Y-68372419D01*
X190065789Y-68372419D02*
X190161027Y-68372419D01*
X190446742Y-69324800D02*
X190541980Y-69372419D01*
X190541980Y-69372419D02*
X190732456Y-69372419D01*
X190732456Y-69372419D02*
X190827694Y-69324800D01*
X190827694Y-69324800D02*
X190875313Y-69229561D01*
X190875313Y-69229561D02*
X190875313Y-69181942D01*
X190875313Y-69181942D02*
X190827694Y-69086704D01*
X190827694Y-69086704D02*
X190732456Y-69039085D01*
X190732456Y-69039085D02*
X190589599Y-69039085D01*
X190589599Y-69039085D02*
X190494361Y-68991466D01*
X190494361Y-68991466D02*
X190446742Y-68896228D01*
X190446742Y-68896228D02*
X190446742Y-68848609D01*
X190446742Y-68848609D02*
X190494361Y-68753371D01*
X190494361Y-68753371D02*
X190589599Y-68705752D01*
X190589599Y-68705752D02*
X190732456Y-68705752D01*
X190732456Y-68705752D02*
X190827694Y-68753371D01*
X191684837Y-69324800D02*
X191589599Y-69372419D01*
X191589599Y-69372419D02*
X191399123Y-69372419D01*
X191399123Y-69372419D02*
X191303885Y-69324800D01*
X191303885Y-69324800D02*
X191256266Y-69229561D01*
X191256266Y-69229561D02*
X191256266Y-68848609D01*
X191256266Y-68848609D02*
X191303885Y-68753371D01*
X191303885Y-68753371D02*
X191399123Y-68705752D01*
X191399123Y-68705752D02*
X191589599Y-68705752D01*
X191589599Y-68705752D02*
X191684837Y-68753371D01*
X191684837Y-68753371D02*
X191732456Y-68848609D01*
X191732456Y-68848609D02*
X191732456Y-68943847D01*
X191732456Y-68943847D02*
X191256266Y-69039085D01*
X192018171Y-68705752D02*
X192399123Y-68705752D01*
X192161028Y-68372419D02*
X192161028Y-69229561D01*
X192161028Y-69229561D02*
X192208647Y-69324800D01*
X192208647Y-69324800D02*
X192303885Y-69372419D01*
X192303885Y-69372419D02*
X192399123Y-69372419D01*
X200827693Y-79920038D02*
X200732455Y-79872419D01*
X200732455Y-79872419D02*
X200589598Y-79872419D01*
X200589598Y-79872419D02*
X200446741Y-79920038D01*
X200446741Y-79920038D02*
X200351503Y-80015276D01*
X200351503Y-80015276D02*
X200303884Y-80110514D01*
X200303884Y-80110514D02*
X200256265Y-80300990D01*
X200256265Y-80300990D02*
X200256265Y-80443847D01*
X200256265Y-80443847D02*
X200303884Y-80634323D01*
X200303884Y-80634323D02*
X200351503Y-80729561D01*
X200351503Y-80729561D02*
X200446741Y-80824800D01*
X200446741Y-80824800D02*
X200589598Y-80872419D01*
X200589598Y-80872419D02*
X200684836Y-80872419D01*
X200684836Y-80872419D02*
X200827693Y-80824800D01*
X200827693Y-80824800D02*
X200875312Y-80777180D01*
X200875312Y-80777180D02*
X200875312Y-80443847D01*
X200875312Y-80443847D02*
X200684836Y-80443847D01*
X201732455Y-80872419D02*
X201732455Y-80348609D01*
X201732455Y-80348609D02*
X201684836Y-80253371D01*
X201684836Y-80253371D02*
X201589598Y-80205752D01*
X201589598Y-80205752D02*
X201399122Y-80205752D01*
X201399122Y-80205752D02*
X201303884Y-80253371D01*
X201732455Y-80824800D02*
X201637217Y-80872419D01*
X201637217Y-80872419D02*
X201399122Y-80872419D01*
X201399122Y-80872419D02*
X201303884Y-80824800D01*
X201303884Y-80824800D02*
X201256265Y-80729561D01*
X201256265Y-80729561D02*
X201256265Y-80634323D01*
X201256265Y-80634323D02*
X201303884Y-80539085D01*
X201303884Y-80539085D02*
X201399122Y-80491466D01*
X201399122Y-80491466D02*
X201637217Y-80491466D01*
X201637217Y-80491466D02*
X201732455Y-80443847D01*
X202208646Y-80872419D02*
X202208646Y-80205752D01*
X202208646Y-79872419D02*
X202161027Y-79920038D01*
X202161027Y-79920038D02*
X202208646Y-79967657D01*
X202208646Y-79967657D02*
X202256265Y-79920038D01*
X202256265Y-79920038D02*
X202208646Y-79872419D01*
X202208646Y-79872419D02*
X202208646Y-79967657D01*
X202684836Y-80205752D02*
X202684836Y-80872419D01*
X202684836Y-80300990D02*
X202732455Y-80253371D01*
X202732455Y-80253371D02*
X202827693Y-80205752D01*
X202827693Y-80205752D02*
X202970550Y-80205752D01*
X202970550Y-80205752D02*
X203065788Y-80253371D01*
X203065788Y-80253371D02*
X203113407Y-80348609D01*
X203113407Y-80348609D02*
X203113407Y-80872419D01*
X176491466Y-82196115D02*
X176491466Y-81434211D01*
X176872419Y-80434211D02*
X176872419Y-81005639D01*
X176872419Y-80719925D02*
X175872419Y-80719925D01*
X175872419Y-80719925D02*
X176015276Y-80815163D01*
X176015276Y-80815163D02*
X176110514Y-80910401D01*
X176110514Y-80910401D02*
X176158133Y-81005639D01*
X175872419Y-79529449D02*
X175872419Y-80005639D01*
X175872419Y-80005639D02*
X176348609Y-80053258D01*
X176348609Y-80053258D02*
X176300990Y-80005639D01*
X176300990Y-80005639D02*
X176253371Y-79910401D01*
X176253371Y-79910401D02*
X176253371Y-79672306D01*
X176253371Y-79672306D02*
X176300990Y-79577068D01*
X176300990Y-79577068D02*
X176348609Y-79529449D01*
X176348609Y-79529449D02*
X176443847Y-79481830D01*
X176443847Y-79481830D02*
X176681942Y-79481830D01*
X176681942Y-79481830D02*
X176777180Y-79529449D01*
X176777180Y-79529449D02*
X176824800Y-79577068D01*
X176824800Y-79577068D02*
X176872419Y-79672306D01*
X176872419Y-79672306D02*
X176872419Y-79910401D01*
X176872419Y-79910401D02*
X176824800Y-80005639D01*
X176824800Y-80005639D02*
X176777180Y-80053258D01*
X175872419Y-79196115D02*
X176872419Y-78862782D01*
X176872419Y-78862782D02*
X175872419Y-78529449D01*
X176491466Y-90196115D02*
X176491466Y-89434211D01*
X176872419Y-89815163D02*
X176110514Y-89815163D01*
X176872419Y-88434211D02*
X176872419Y-89005639D01*
X176872419Y-88719925D02*
X175872419Y-88719925D01*
X175872419Y-88719925D02*
X176015276Y-88815163D01*
X176015276Y-88815163D02*
X176110514Y-88910401D01*
X176110514Y-88910401D02*
X176158133Y-89005639D01*
X175872419Y-87529449D02*
X175872419Y-88005639D01*
X175872419Y-88005639D02*
X176348609Y-88053258D01*
X176348609Y-88053258D02*
X176300990Y-88005639D01*
X176300990Y-88005639D02*
X176253371Y-87910401D01*
X176253371Y-87910401D02*
X176253371Y-87672306D01*
X176253371Y-87672306D02*
X176300990Y-87577068D01*
X176300990Y-87577068D02*
X176348609Y-87529449D01*
X176348609Y-87529449D02*
X176443847Y-87481830D01*
X176443847Y-87481830D02*
X176681942Y-87481830D01*
X176681942Y-87481830D02*
X176777180Y-87529449D01*
X176777180Y-87529449D02*
X176824800Y-87577068D01*
X176824800Y-87577068D02*
X176872419Y-87672306D01*
X176872419Y-87672306D02*
X176872419Y-87910401D01*
X176872419Y-87910401D02*
X176824800Y-88005639D01*
X176824800Y-88005639D02*
X176777180Y-88053258D01*
X175872419Y-87196115D02*
X176872419Y-86862782D01*
X176872419Y-86862782D02*
X175872419Y-86529449D01*
D11*
X199209580Y-90166666D02*
X199257200Y-90214285D01*
X199257200Y-90214285D02*
X199304819Y-90357142D01*
X199304819Y-90357142D02*
X199304819Y-90452380D01*
X199304819Y-90452380D02*
X199257200Y-90595237D01*
X199257200Y-90595237D02*
X199161961Y-90690475D01*
X199161961Y-90690475D02*
X199066723Y-90738094D01*
X199066723Y-90738094D02*
X198876247Y-90785713D01*
X198876247Y-90785713D02*
X198733390Y-90785713D01*
X198733390Y-90785713D02*
X198542914Y-90738094D01*
X198542914Y-90738094D02*
X198447676Y-90690475D01*
X198447676Y-90690475D02*
X198352438Y-90595237D01*
X198352438Y-90595237D02*
X198304819Y-90452380D01*
X198304819Y-90452380D02*
X198304819Y-90357142D01*
X198304819Y-90357142D02*
X198352438Y-90214285D01*
X198352438Y-90214285D02*
X198400057Y-90166666D01*
X199304819Y-89690475D02*
X199304819Y-89499999D01*
X199304819Y-89499999D02*
X199257200Y-89404761D01*
X199257200Y-89404761D02*
X199209580Y-89357142D01*
X199209580Y-89357142D02*
X199066723Y-89261904D01*
X199066723Y-89261904D02*
X198876247Y-89214285D01*
X198876247Y-89214285D02*
X198495295Y-89214285D01*
X198495295Y-89214285D02*
X198400057Y-89261904D01*
X198400057Y-89261904D02*
X198352438Y-89309523D01*
X198352438Y-89309523D02*
X198304819Y-89404761D01*
X198304819Y-89404761D02*
X198304819Y-89595237D01*
X198304819Y-89595237D02*
X198352438Y-89690475D01*
X198352438Y-89690475D02*
X198400057Y-89738094D01*
X198400057Y-89738094D02*
X198495295Y-89785713D01*
X198495295Y-89785713D02*
X198733390Y-89785713D01*
X198733390Y-89785713D02*
X198828628Y-89738094D01*
X198828628Y-89738094D02*
X198876247Y-89690475D01*
X198876247Y-89690475D02*
X198923866Y-89595237D01*
X198923866Y-89595237D02*
X198923866Y-89404761D01*
X198923866Y-89404761D02*
X198876247Y-89309523D01*
X198876247Y-89309523D02*
X198828628Y-89261904D01*
X198828628Y-89261904D02*
X198733390Y-89214285D01*
X169154819Y-67111904D02*
X169964342Y-67111904D01*
X169964342Y-67111904D02*
X170059580Y-67064285D01*
X170059580Y-67064285D02*
X170107200Y-67016666D01*
X170107200Y-67016666D02*
X170154819Y-66921428D01*
X170154819Y-66921428D02*
X170154819Y-66730952D01*
X170154819Y-66730952D02*
X170107200Y-66635714D01*
X170107200Y-66635714D02*
X170059580Y-66588095D01*
X170059580Y-66588095D02*
X169964342Y-66540476D01*
X169964342Y-66540476D02*
X169154819Y-66540476D01*
X169154819Y-66159523D02*
X169154819Y-65540476D01*
X169154819Y-65540476D02*
X169535771Y-65873809D01*
X169535771Y-65873809D02*
X169535771Y-65730952D01*
X169535771Y-65730952D02*
X169583390Y-65635714D01*
X169583390Y-65635714D02*
X169631009Y-65588095D01*
X169631009Y-65588095D02*
X169726247Y-65540476D01*
X169726247Y-65540476D02*
X169964342Y-65540476D01*
X169964342Y-65540476D02*
X170059580Y-65588095D01*
X170059580Y-65588095D02*
X170107200Y-65635714D01*
X170107200Y-65635714D02*
X170154819Y-65730952D01*
X170154819Y-65730952D02*
X170154819Y-66016666D01*
X170154819Y-66016666D02*
X170107200Y-66111904D01*
X170107200Y-66111904D02*
X170059580Y-66159523D01*
X195454819Y-79666666D02*
X194978628Y-79999999D01*
X195454819Y-80238094D02*
X194454819Y-80238094D01*
X194454819Y-80238094D02*
X194454819Y-79857142D01*
X194454819Y-79857142D02*
X194502438Y-79761904D01*
X194502438Y-79761904D02*
X194550057Y-79714285D01*
X194550057Y-79714285D02*
X194645295Y-79666666D01*
X194645295Y-79666666D02*
X194788152Y-79666666D01*
X194788152Y-79666666D02*
X194883390Y-79714285D01*
X194883390Y-79714285D02*
X194931009Y-79761904D01*
X194931009Y-79761904D02*
X194978628Y-79857142D01*
X194978628Y-79857142D02*
X194978628Y-80238094D01*
X194454819Y-79333332D02*
X194454819Y-78666666D01*
X194454819Y-78666666D02*
X195454819Y-79095237D01*
X188808095Y-91604819D02*
X188808095Y-92414342D01*
X188808095Y-92414342D02*
X188855714Y-92509580D01*
X188855714Y-92509580D02*
X188903333Y-92557200D01*
X188903333Y-92557200D02*
X188998571Y-92604819D01*
X188998571Y-92604819D02*
X189189047Y-92604819D01*
X189189047Y-92604819D02*
X189284285Y-92557200D01*
X189284285Y-92557200D02*
X189331904Y-92509580D01*
X189331904Y-92509580D02*
X189379523Y-92414342D01*
X189379523Y-92414342D02*
X189379523Y-91604819D01*
X190379523Y-92604819D02*
X189808095Y-92604819D01*
X190093809Y-92604819D02*
X190093809Y-91604819D01*
X190093809Y-91604819D02*
X189998571Y-91747676D01*
X189998571Y-91747676D02*
X189903333Y-91842914D01*
X189903333Y-91842914D02*
X189808095Y-91890533D01*
X180261905Y-76954819D02*
X180261905Y-75954819D01*
X180261905Y-75954819D02*
X180500000Y-75954819D01*
X180500000Y-75954819D02*
X180642857Y-76002438D01*
X180642857Y-76002438D02*
X180738095Y-76097676D01*
X180738095Y-76097676D02*
X180785714Y-76192914D01*
X180785714Y-76192914D02*
X180833333Y-76383390D01*
X180833333Y-76383390D02*
X180833333Y-76526247D01*
X180833333Y-76526247D02*
X180785714Y-76716723D01*
X180785714Y-76716723D02*
X180738095Y-76811961D01*
X180738095Y-76811961D02*
X180642857Y-76907200D01*
X180642857Y-76907200D02*
X180500000Y-76954819D01*
X180500000Y-76954819D02*
X180261905Y-76954819D01*
X181690476Y-76288152D02*
X181690476Y-76954819D01*
X181452381Y-75907200D02*
X181214286Y-76621485D01*
X181214286Y-76621485D02*
X181833333Y-76621485D01*
X199666666Y-101994819D02*
X199666666Y-102709104D01*
X199666666Y-102709104D02*
X199619047Y-102851961D01*
X199619047Y-102851961D02*
X199523809Y-102947200D01*
X199523809Y-102947200D02*
X199380952Y-102994819D01*
X199380952Y-102994819D02*
X199285714Y-102994819D01*
X200047619Y-101994819D02*
X200666666Y-101994819D01*
X200666666Y-101994819D02*
X200333333Y-102375771D01*
X200333333Y-102375771D02*
X200476190Y-102375771D01*
X200476190Y-102375771D02*
X200571428Y-102423390D01*
X200571428Y-102423390D02*
X200619047Y-102471009D01*
X200619047Y-102471009D02*
X200666666Y-102566247D01*
X200666666Y-102566247D02*
X200666666Y-102804342D01*
X200666666Y-102804342D02*
X200619047Y-102899580D01*
X200619047Y-102899580D02*
X200571428Y-102947200D01*
X200571428Y-102947200D02*
X200476190Y-102994819D01*
X200476190Y-102994819D02*
X200190476Y-102994819D01*
X200190476Y-102994819D02*
X200095238Y-102947200D01*
X200095238Y-102947200D02*
X200047619Y-102899580D01*
X181124819Y-82605357D02*
X180648628Y-82938690D01*
X181124819Y-83176785D02*
X180124819Y-83176785D01*
X180124819Y-83176785D02*
X180124819Y-82795833D01*
X180124819Y-82795833D02*
X180172438Y-82700595D01*
X180172438Y-82700595D02*
X180220057Y-82652976D01*
X180220057Y-82652976D02*
X180315295Y-82605357D01*
X180315295Y-82605357D02*
X180458152Y-82605357D01*
X180458152Y-82605357D02*
X180553390Y-82652976D01*
X180553390Y-82652976D02*
X180601009Y-82700595D01*
X180601009Y-82700595D02*
X180648628Y-82795833D01*
X180648628Y-82795833D02*
X180648628Y-83176785D01*
X181124819Y-81652976D02*
X181124819Y-82224404D01*
X181124819Y-81938690D02*
X180124819Y-81938690D01*
X180124819Y-81938690D02*
X180267676Y-82033928D01*
X180267676Y-82033928D02*
X180362914Y-82129166D01*
X180362914Y-82129166D02*
X180410533Y-82224404D01*
X180124819Y-81033928D02*
X180124819Y-80938690D01*
X180124819Y-80938690D02*
X180172438Y-80843452D01*
X180172438Y-80843452D02*
X180220057Y-80795833D01*
X180220057Y-80795833D02*
X180315295Y-80748214D01*
X180315295Y-80748214D02*
X180505771Y-80700595D01*
X180505771Y-80700595D02*
X180743866Y-80700595D01*
X180743866Y-80700595D02*
X180934342Y-80748214D01*
X180934342Y-80748214D02*
X181029580Y-80795833D01*
X181029580Y-80795833D02*
X181077200Y-80843452D01*
X181077200Y-80843452D02*
X181124819Y-80938690D01*
X181124819Y-80938690D02*
X181124819Y-81033928D01*
X181124819Y-81033928D02*
X181077200Y-81129166D01*
X181077200Y-81129166D02*
X181029580Y-81176785D01*
X181029580Y-81176785D02*
X180934342Y-81224404D01*
X180934342Y-81224404D02*
X180743866Y-81272023D01*
X180743866Y-81272023D02*
X180505771Y-81272023D01*
X180505771Y-81272023D02*
X180315295Y-81224404D01*
X180315295Y-81224404D02*
X180220057Y-81176785D01*
X180220057Y-81176785D02*
X180172438Y-81129166D01*
X180172438Y-81129166D02*
X180124819Y-81033928D01*
X199784819Y-97180357D02*
X199308628Y-97513690D01*
X199784819Y-97751785D02*
X198784819Y-97751785D01*
X198784819Y-97751785D02*
X198784819Y-97370833D01*
X198784819Y-97370833D02*
X198832438Y-97275595D01*
X198832438Y-97275595D02*
X198880057Y-97227976D01*
X198880057Y-97227976D02*
X198975295Y-97180357D01*
X198975295Y-97180357D02*
X199118152Y-97180357D01*
X199118152Y-97180357D02*
X199213390Y-97227976D01*
X199213390Y-97227976D02*
X199261009Y-97275595D01*
X199261009Y-97275595D02*
X199308628Y-97370833D01*
X199308628Y-97370833D02*
X199308628Y-97751785D01*
X199784819Y-96227976D02*
X199784819Y-96799404D01*
X199784819Y-96513690D02*
X198784819Y-96513690D01*
X198784819Y-96513690D02*
X198927676Y-96608928D01*
X198927676Y-96608928D02*
X199022914Y-96704166D01*
X199022914Y-96704166D02*
X199070533Y-96799404D01*
X199784819Y-95275595D02*
X199784819Y-95847023D01*
X199784819Y-95561309D02*
X198784819Y-95561309D01*
X198784819Y-95561309D02*
X198927676Y-95656547D01*
X198927676Y-95656547D02*
X199022914Y-95751785D01*
X199022914Y-95751785D02*
X199070533Y-95847023D01*
X182209580Y-88642857D02*
X182257200Y-88690476D01*
X182257200Y-88690476D02*
X182304819Y-88833333D01*
X182304819Y-88833333D02*
X182304819Y-88928571D01*
X182304819Y-88928571D02*
X182257200Y-89071428D01*
X182257200Y-89071428D02*
X182161961Y-89166666D01*
X182161961Y-89166666D02*
X182066723Y-89214285D01*
X182066723Y-89214285D02*
X181876247Y-89261904D01*
X181876247Y-89261904D02*
X181733390Y-89261904D01*
X181733390Y-89261904D02*
X181542914Y-89214285D01*
X181542914Y-89214285D02*
X181447676Y-89166666D01*
X181447676Y-89166666D02*
X181352438Y-89071428D01*
X181352438Y-89071428D02*
X181304819Y-88928571D01*
X181304819Y-88928571D02*
X181304819Y-88833333D01*
X181304819Y-88833333D02*
X181352438Y-88690476D01*
X181352438Y-88690476D02*
X181400057Y-88642857D01*
X182304819Y-87690476D02*
X182304819Y-88261904D01*
X182304819Y-87976190D02*
X181304819Y-87976190D01*
X181304819Y-87976190D02*
X181447676Y-88071428D01*
X181447676Y-88071428D02*
X181542914Y-88166666D01*
X181542914Y-88166666D02*
X181590533Y-88261904D01*
X181304819Y-87071428D02*
X181304819Y-86976190D01*
X181304819Y-86976190D02*
X181352438Y-86880952D01*
X181352438Y-86880952D02*
X181400057Y-86833333D01*
X181400057Y-86833333D02*
X181495295Y-86785714D01*
X181495295Y-86785714D02*
X181685771Y-86738095D01*
X181685771Y-86738095D02*
X181923866Y-86738095D01*
X181923866Y-86738095D02*
X182114342Y-86785714D01*
X182114342Y-86785714D02*
X182209580Y-86833333D01*
X182209580Y-86833333D02*
X182257200Y-86880952D01*
X182257200Y-86880952D02*
X182304819Y-86976190D01*
X182304819Y-86976190D02*
X182304819Y-87071428D01*
X182304819Y-87071428D02*
X182257200Y-87166666D01*
X182257200Y-87166666D02*
X182209580Y-87214285D01*
X182209580Y-87214285D02*
X182114342Y-87261904D01*
X182114342Y-87261904D02*
X181923866Y-87309523D01*
X181923866Y-87309523D02*
X181685771Y-87309523D01*
X181685771Y-87309523D02*
X181495295Y-87261904D01*
X181495295Y-87261904D02*
X181400057Y-87214285D01*
X181400057Y-87214285D02*
X181352438Y-87166666D01*
X181352438Y-87166666D02*
X181304819Y-87071428D01*
X195804819Y-72595238D02*
X195328628Y-72928571D01*
X195804819Y-73166666D02*
X194804819Y-73166666D01*
X194804819Y-73166666D02*
X194804819Y-72785714D01*
X194804819Y-72785714D02*
X194852438Y-72690476D01*
X194852438Y-72690476D02*
X194900057Y-72642857D01*
X194900057Y-72642857D02*
X194995295Y-72595238D01*
X194995295Y-72595238D02*
X195138152Y-72595238D01*
X195138152Y-72595238D02*
X195233390Y-72642857D01*
X195233390Y-72642857D02*
X195281009Y-72690476D01*
X195281009Y-72690476D02*
X195328628Y-72785714D01*
X195328628Y-72785714D02*
X195328628Y-73166666D01*
X194804819Y-72309523D02*
X195804819Y-71976190D01*
X195804819Y-71976190D02*
X194804819Y-71642857D01*
X194900057Y-71357142D02*
X194852438Y-71309523D01*
X194852438Y-71309523D02*
X194804819Y-71214285D01*
X194804819Y-71214285D02*
X194804819Y-70976190D01*
X194804819Y-70976190D02*
X194852438Y-70880952D01*
X194852438Y-70880952D02*
X194900057Y-70833333D01*
X194900057Y-70833333D02*
X194995295Y-70785714D01*
X194995295Y-70785714D02*
X195090533Y-70785714D01*
X195090533Y-70785714D02*
X195233390Y-70833333D01*
X195233390Y-70833333D02*
X195804819Y-71404761D01*
X195804819Y-71404761D02*
X195804819Y-70785714D01*
X188394642Y-75624819D02*
X188061309Y-75148628D01*
X187823214Y-75624819D02*
X187823214Y-74624819D01*
X187823214Y-74624819D02*
X188204166Y-74624819D01*
X188204166Y-74624819D02*
X188299404Y-74672438D01*
X188299404Y-74672438D02*
X188347023Y-74720057D01*
X188347023Y-74720057D02*
X188394642Y-74815295D01*
X188394642Y-74815295D02*
X188394642Y-74958152D01*
X188394642Y-74958152D02*
X188347023Y-75053390D01*
X188347023Y-75053390D02*
X188299404Y-75101009D01*
X188299404Y-75101009D02*
X188204166Y-75148628D01*
X188204166Y-75148628D02*
X187823214Y-75148628D01*
X189347023Y-75624819D02*
X188775595Y-75624819D01*
X189061309Y-75624819D02*
X189061309Y-74624819D01*
X189061309Y-74624819D02*
X188966071Y-74767676D01*
X188966071Y-74767676D02*
X188870833Y-74862914D01*
X188870833Y-74862914D02*
X188775595Y-74910533D01*
X189680357Y-74624819D02*
X190299404Y-74624819D01*
X190299404Y-74624819D02*
X189966071Y-75005771D01*
X189966071Y-75005771D02*
X190108928Y-75005771D01*
X190108928Y-75005771D02*
X190204166Y-75053390D01*
X190204166Y-75053390D02*
X190251785Y-75101009D01*
X190251785Y-75101009D02*
X190299404Y-75196247D01*
X190299404Y-75196247D02*
X190299404Y-75434342D01*
X190299404Y-75434342D02*
X190251785Y-75529580D01*
X190251785Y-75529580D02*
X190204166Y-75577200D01*
X190204166Y-75577200D02*
X190108928Y-75624819D01*
X190108928Y-75624819D02*
X189823214Y-75624819D01*
X189823214Y-75624819D02*
X189727976Y-75577200D01*
X189727976Y-75577200D02*
X189680357Y-75529580D01*
X183784819Y-66704166D02*
X183308628Y-67037499D01*
X183784819Y-67275594D02*
X182784819Y-67275594D01*
X182784819Y-67275594D02*
X182784819Y-66894642D01*
X182784819Y-66894642D02*
X182832438Y-66799404D01*
X182832438Y-66799404D02*
X182880057Y-66751785D01*
X182880057Y-66751785D02*
X182975295Y-66704166D01*
X182975295Y-66704166D02*
X183118152Y-66704166D01*
X183118152Y-66704166D02*
X183213390Y-66751785D01*
X183213390Y-66751785D02*
X183261009Y-66799404D01*
X183261009Y-66799404D02*
X183308628Y-66894642D01*
X183308628Y-66894642D02*
X183308628Y-67275594D01*
X183784819Y-65751785D02*
X183784819Y-66323213D01*
X183784819Y-66037499D02*
X182784819Y-66037499D01*
X182784819Y-66037499D02*
X182927676Y-66132737D01*
X182927676Y-66132737D02*
X183022914Y-66227975D01*
X183022914Y-66227975D02*
X183070533Y-66323213D01*
X206454819Y-93704166D02*
X205978628Y-94037499D01*
X206454819Y-94275594D02*
X205454819Y-94275594D01*
X205454819Y-94275594D02*
X205454819Y-93894642D01*
X205454819Y-93894642D02*
X205502438Y-93799404D01*
X205502438Y-93799404D02*
X205550057Y-93751785D01*
X205550057Y-93751785D02*
X205645295Y-93704166D01*
X205645295Y-93704166D02*
X205788152Y-93704166D01*
X205788152Y-93704166D02*
X205883390Y-93751785D01*
X205883390Y-93751785D02*
X205931009Y-93799404D01*
X205931009Y-93799404D02*
X205978628Y-93894642D01*
X205978628Y-93894642D02*
X205978628Y-94275594D01*
X205883390Y-93132737D02*
X205835771Y-93227975D01*
X205835771Y-93227975D02*
X205788152Y-93275594D01*
X205788152Y-93275594D02*
X205692914Y-93323213D01*
X205692914Y-93323213D02*
X205645295Y-93323213D01*
X205645295Y-93323213D02*
X205550057Y-93275594D01*
X205550057Y-93275594D02*
X205502438Y-93227975D01*
X205502438Y-93227975D02*
X205454819Y-93132737D01*
X205454819Y-93132737D02*
X205454819Y-92942261D01*
X205454819Y-92942261D02*
X205502438Y-92847023D01*
X205502438Y-92847023D02*
X205550057Y-92799404D01*
X205550057Y-92799404D02*
X205645295Y-92751785D01*
X205645295Y-92751785D02*
X205692914Y-92751785D01*
X205692914Y-92751785D02*
X205788152Y-92799404D01*
X205788152Y-92799404D02*
X205835771Y-92847023D01*
X205835771Y-92847023D02*
X205883390Y-92942261D01*
X205883390Y-92942261D02*
X205883390Y-93132737D01*
X205883390Y-93132737D02*
X205931009Y-93227975D01*
X205931009Y-93227975D02*
X205978628Y-93275594D01*
X205978628Y-93275594D02*
X206073866Y-93323213D01*
X206073866Y-93323213D02*
X206264342Y-93323213D01*
X206264342Y-93323213D02*
X206359580Y-93275594D01*
X206359580Y-93275594D02*
X206407200Y-93227975D01*
X206407200Y-93227975D02*
X206454819Y-93132737D01*
X206454819Y-93132737D02*
X206454819Y-92942261D01*
X206454819Y-92942261D02*
X206407200Y-92847023D01*
X206407200Y-92847023D02*
X206359580Y-92799404D01*
X206359580Y-92799404D02*
X206264342Y-92751785D01*
X206264342Y-92751785D02*
X206073866Y-92751785D01*
X206073866Y-92751785D02*
X205978628Y-92799404D01*
X205978628Y-92799404D02*
X205931009Y-92847023D01*
X205931009Y-92847023D02*
X205883390Y-92942261D01*
X185795833Y-67284819D02*
X185462500Y-66808628D01*
X185224405Y-67284819D02*
X185224405Y-66284819D01*
X185224405Y-66284819D02*
X185605357Y-66284819D01*
X185605357Y-66284819D02*
X185700595Y-66332438D01*
X185700595Y-66332438D02*
X185748214Y-66380057D01*
X185748214Y-66380057D02*
X185795833Y-66475295D01*
X185795833Y-66475295D02*
X185795833Y-66618152D01*
X185795833Y-66618152D02*
X185748214Y-66713390D01*
X185748214Y-66713390D02*
X185700595Y-66761009D01*
X185700595Y-66761009D02*
X185605357Y-66808628D01*
X185605357Y-66808628D02*
X185224405Y-66808628D01*
X186176786Y-66380057D02*
X186224405Y-66332438D01*
X186224405Y-66332438D02*
X186319643Y-66284819D01*
X186319643Y-66284819D02*
X186557738Y-66284819D01*
X186557738Y-66284819D02*
X186652976Y-66332438D01*
X186652976Y-66332438D02*
X186700595Y-66380057D01*
X186700595Y-66380057D02*
X186748214Y-66475295D01*
X186748214Y-66475295D02*
X186748214Y-66570533D01*
X186748214Y-66570533D02*
X186700595Y-66713390D01*
X186700595Y-66713390D02*
X186129167Y-67284819D01*
X186129167Y-67284819D02*
X186748214Y-67284819D01*
X173666666Y-78104819D02*
X173666666Y-78819104D01*
X173666666Y-78819104D02*
X173619047Y-78961961D01*
X173619047Y-78961961D02*
X173523809Y-79057200D01*
X173523809Y-79057200D02*
X173380952Y-79104819D01*
X173380952Y-79104819D02*
X173285714Y-79104819D01*
X174666666Y-79104819D02*
X174095238Y-79104819D01*
X174380952Y-79104819D02*
X174380952Y-78104819D01*
X174380952Y-78104819D02*
X174285714Y-78247676D01*
X174285714Y-78247676D02*
X174190476Y-78342914D01*
X174190476Y-78342914D02*
X174095238Y-78390533D01*
X203954819Y-89166666D02*
X203478628Y-89499999D01*
X203954819Y-89738094D02*
X202954819Y-89738094D01*
X202954819Y-89738094D02*
X202954819Y-89357142D01*
X202954819Y-89357142D02*
X203002438Y-89261904D01*
X203002438Y-89261904D02*
X203050057Y-89214285D01*
X203050057Y-89214285D02*
X203145295Y-89166666D01*
X203145295Y-89166666D02*
X203288152Y-89166666D01*
X203288152Y-89166666D02*
X203383390Y-89214285D01*
X203383390Y-89214285D02*
X203431009Y-89261904D01*
X203431009Y-89261904D02*
X203478628Y-89357142D01*
X203478628Y-89357142D02*
X203478628Y-89738094D01*
X203954819Y-88690475D02*
X203954819Y-88499999D01*
X203954819Y-88499999D02*
X203907200Y-88404761D01*
X203907200Y-88404761D02*
X203859580Y-88357142D01*
X203859580Y-88357142D02*
X203716723Y-88261904D01*
X203716723Y-88261904D02*
X203526247Y-88214285D01*
X203526247Y-88214285D02*
X203145295Y-88214285D01*
X203145295Y-88214285D02*
X203050057Y-88261904D01*
X203050057Y-88261904D02*
X203002438Y-88309523D01*
X203002438Y-88309523D02*
X202954819Y-88404761D01*
X202954819Y-88404761D02*
X202954819Y-88595237D01*
X202954819Y-88595237D02*
X203002438Y-88690475D01*
X203002438Y-88690475D02*
X203050057Y-88738094D01*
X203050057Y-88738094D02*
X203145295Y-88785713D01*
X203145295Y-88785713D02*
X203383390Y-88785713D01*
X203383390Y-88785713D02*
X203478628Y-88738094D01*
X203478628Y-88738094D02*
X203526247Y-88690475D01*
X203526247Y-88690475D02*
X203573866Y-88595237D01*
X203573866Y-88595237D02*
X203573866Y-88404761D01*
X203573866Y-88404761D02*
X203526247Y-88309523D01*
X203526247Y-88309523D02*
X203478628Y-88261904D01*
X203478628Y-88261904D02*
X203383390Y-88214285D01*
X182357142Y-108454819D02*
X182023809Y-107978628D01*
X181785714Y-108454819D02*
X181785714Y-107454819D01*
X181785714Y-107454819D02*
X182166666Y-107454819D01*
X182166666Y-107454819D02*
X182261904Y-107502438D01*
X182261904Y-107502438D02*
X182309523Y-107550057D01*
X182309523Y-107550057D02*
X182357142Y-107645295D01*
X182357142Y-107645295D02*
X182357142Y-107788152D01*
X182357142Y-107788152D02*
X182309523Y-107883390D01*
X182309523Y-107883390D02*
X182261904Y-107931009D01*
X182261904Y-107931009D02*
X182166666Y-107978628D01*
X182166666Y-107978628D02*
X181785714Y-107978628D01*
X183309523Y-108454819D02*
X182738095Y-108454819D01*
X183023809Y-108454819D02*
X183023809Y-107454819D01*
X183023809Y-107454819D02*
X182928571Y-107597676D01*
X182928571Y-107597676D02*
X182833333Y-107692914D01*
X182833333Y-107692914D02*
X182738095Y-107740533D01*
X183690476Y-107550057D02*
X183738095Y-107502438D01*
X183738095Y-107502438D02*
X183833333Y-107454819D01*
X183833333Y-107454819D02*
X184071428Y-107454819D01*
X184071428Y-107454819D02*
X184166666Y-107502438D01*
X184166666Y-107502438D02*
X184214285Y-107550057D01*
X184214285Y-107550057D02*
X184261904Y-107645295D01*
X184261904Y-107645295D02*
X184261904Y-107740533D01*
X184261904Y-107740533D02*
X184214285Y-107883390D01*
X184214285Y-107883390D02*
X183642857Y-108454819D01*
X183642857Y-108454819D02*
X184261904Y-108454819D01*
X184709580Y-96691666D02*
X184757200Y-96739285D01*
X184757200Y-96739285D02*
X184804819Y-96882142D01*
X184804819Y-96882142D02*
X184804819Y-96977380D01*
X184804819Y-96977380D02*
X184757200Y-97120237D01*
X184757200Y-97120237D02*
X184661961Y-97215475D01*
X184661961Y-97215475D02*
X184566723Y-97263094D01*
X184566723Y-97263094D02*
X184376247Y-97310713D01*
X184376247Y-97310713D02*
X184233390Y-97310713D01*
X184233390Y-97310713D02*
X184042914Y-97263094D01*
X184042914Y-97263094D02*
X183947676Y-97215475D01*
X183947676Y-97215475D02*
X183852438Y-97120237D01*
X183852438Y-97120237D02*
X183804819Y-96977380D01*
X183804819Y-96977380D02*
X183804819Y-96882142D01*
X183804819Y-96882142D02*
X183852438Y-96739285D01*
X183852438Y-96739285D02*
X183900057Y-96691666D01*
X183804819Y-95834523D02*
X183804819Y-96024999D01*
X183804819Y-96024999D02*
X183852438Y-96120237D01*
X183852438Y-96120237D02*
X183900057Y-96167856D01*
X183900057Y-96167856D02*
X184042914Y-96263094D01*
X184042914Y-96263094D02*
X184233390Y-96310713D01*
X184233390Y-96310713D02*
X184614342Y-96310713D01*
X184614342Y-96310713D02*
X184709580Y-96263094D01*
X184709580Y-96263094D02*
X184757200Y-96215475D01*
X184757200Y-96215475D02*
X184804819Y-96120237D01*
X184804819Y-96120237D02*
X184804819Y-95929761D01*
X184804819Y-95929761D02*
X184757200Y-95834523D01*
X184757200Y-95834523D02*
X184709580Y-95786904D01*
X184709580Y-95786904D02*
X184614342Y-95739285D01*
X184614342Y-95739285D02*
X184376247Y-95739285D01*
X184376247Y-95739285D02*
X184281009Y-95786904D01*
X184281009Y-95786904D02*
X184233390Y-95834523D01*
X184233390Y-95834523D02*
X184185771Y-95929761D01*
X184185771Y-95929761D02*
X184185771Y-96120237D01*
X184185771Y-96120237D02*
X184233390Y-96215475D01*
X184233390Y-96215475D02*
X184281009Y-96263094D01*
X184281009Y-96263094D02*
X184376247Y-96310713D01*
X199784819Y-71204166D02*
X199308628Y-71537499D01*
X199784819Y-71775594D02*
X198784819Y-71775594D01*
X198784819Y-71775594D02*
X198784819Y-71394642D01*
X198784819Y-71394642D02*
X198832438Y-71299404D01*
X198832438Y-71299404D02*
X198880057Y-71251785D01*
X198880057Y-71251785D02*
X198975295Y-71204166D01*
X198975295Y-71204166D02*
X199118152Y-71204166D01*
X199118152Y-71204166D02*
X199213390Y-71251785D01*
X199213390Y-71251785D02*
X199261009Y-71299404D01*
X199261009Y-71299404D02*
X199308628Y-71394642D01*
X199308628Y-71394642D02*
X199308628Y-71775594D01*
X198784819Y-70299404D02*
X198784819Y-70775594D01*
X198784819Y-70775594D02*
X199261009Y-70823213D01*
X199261009Y-70823213D02*
X199213390Y-70775594D01*
X199213390Y-70775594D02*
X199165771Y-70680356D01*
X199165771Y-70680356D02*
X199165771Y-70442261D01*
X199165771Y-70442261D02*
X199213390Y-70347023D01*
X199213390Y-70347023D02*
X199261009Y-70299404D01*
X199261009Y-70299404D02*
X199356247Y-70251785D01*
X199356247Y-70251785D02*
X199594342Y-70251785D01*
X199594342Y-70251785D02*
X199689580Y-70299404D01*
X199689580Y-70299404D02*
X199737200Y-70347023D01*
X199737200Y-70347023D02*
X199784819Y-70442261D01*
X199784819Y-70442261D02*
X199784819Y-70680356D01*
X199784819Y-70680356D02*
X199737200Y-70775594D01*
X199737200Y-70775594D02*
X199689580Y-70823213D01*
X204904761Y-80954819D02*
X204571428Y-80478628D01*
X204333333Y-80954819D02*
X204333333Y-79954819D01*
X204333333Y-79954819D02*
X204714285Y-79954819D01*
X204714285Y-79954819D02*
X204809523Y-80002438D01*
X204809523Y-80002438D02*
X204857142Y-80050057D01*
X204857142Y-80050057D02*
X204904761Y-80145295D01*
X204904761Y-80145295D02*
X204904761Y-80288152D01*
X204904761Y-80288152D02*
X204857142Y-80383390D01*
X204857142Y-80383390D02*
X204809523Y-80431009D01*
X204809523Y-80431009D02*
X204714285Y-80478628D01*
X204714285Y-80478628D02*
X204333333Y-80478628D01*
X205190476Y-79954819D02*
X205523809Y-80954819D01*
X205523809Y-80954819D02*
X205857142Y-79954819D01*
X206714285Y-80954819D02*
X206142857Y-80954819D01*
X206428571Y-80954819D02*
X206428571Y-79954819D01*
X206428571Y-79954819D02*
X206333333Y-80097676D01*
X206333333Y-80097676D02*
X206238095Y-80192914D01*
X206238095Y-80192914D02*
X206142857Y-80240533D01*
X187124819Y-100629166D02*
X186648628Y-100962499D01*
X187124819Y-101200594D02*
X186124819Y-101200594D01*
X186124819Y-101200594D02*
X186124819Y-100819642D01*
X186124819Y-100819642D02*
X186172438Y-100724404D01*
X186172438Y-100724404D02*
X186220057Y-100676785D01*
X186220057Y-100676785D02*
X186315295Y-100629166D01*
X186315295Y-100629166D02*
X186458152Y-100629166D01*
X186458152Y-100629166D02*
X186553390Y-100676785D01*
X186553390Y-100676785D02*
X186601009Y-100724404D01*
X186601009Y-100724404D02*
X186648628Y-100819642D01*
X186648628Y-100819642D02*
X186648628Y-101200594D01*
X186458152Y-99772023D02*
X187124819Y-99772023D01*
X186077200Y-100010118D02*
X186791485Y-100248213D01*
X186791485Y-100248213D02*
X186791485Y-99629166D01*
X188284819Y-81704166D02*
X187808628Y-82037499D01*
X188284819Y-82275594D02*
X187284819Y-82275594D01*
X187284819Y-82275594D02*
X187284819Y-81894642D01*
X187284819Y-81894642D02*
X187332438Y-81799404D01*
X187332438Y-81799404D02*
X187380057Y-81751785D01*
X187380057Y-81751785D02*
X187475295Y-81704166D01*
X187475295Y-81704166D02*
X187618152Y-81704166D01*
X187618152Y-81704166D02*
X187713390Y-81751785D01*
X187713390Y-81751785D02*
X187761009Y-81799404D01*
X187761009Y-81799404D02*
X187808628Y-81894642D01*
X187808628Y-81894642D02*
X187808628Y-82275594D01*
X187284819Y-80847023D02*
X187284819Y-81037499D01*
X187284819Y-81037499D02*
X187332438Y-81132737D01*
X187332438Y-81132737D02*
X187380057Y-81180356D01*
X187380057Y-81180356D02*
X187522914Y-81275594D01*
X187522914Y-81275594D02*
X187713390Y-81323213D01*
X187713390Y-81323213D02*
X188094342Y-81323213D01*
X188094342Y-81323213D02*
X188189580Y-81275594D01*
X188189580Y-81275594D02*
X188237200Y-81227975D01*
X188237200Y-81227975D02*
X188284819Y-81132737D01*
X188284819Y-81132737D02*
X188284819Y-80942261D01*
X188284819Y-80942261D02*
X188237200Y-80847023D01*
X188237200Y-80847023D02*
X188189580Y-80799404D01*
X188189580Y-80799404D02*
X188094342Y-80751785D01*
X188094342Y-80751785D02*
X187856247Y-80751785D01*
X187856247Y-80751785D02*
X187761009Y-80799404D01*
X187761009Y-80799404D02*
X187713390Y-80847023D01*
X187713390Y-80847023D02*
X187665771Y-80942261D01*
X187665771Y-80942261D02*
X187665771Y-81132737D01*
X187665771Y-81132737D02*
X187713390Y-81227975D01*
X187713390Y-81227975D02*
X187761009Y-81275594D01*
X187761009Y-81275594D02*
X187856247Y-81323213D01*
X168308333Y-96709580D02*
X168260714Y-96757200D01*
X168260714Y-96757200D02*
X168117857Y-96804819D01*
X168117857Y-96804819D02*
X168022619Y-96804819D01*
X168022619Y-96804819D02*
X167879762Y-96757200D01*
X167879762Y-96757200D02*
X167784524Y-96661961D01*
X167784524Y-96661961D02*
X167736905Y-96566723D01*
X167736905Y-96566723D02*
X167689286Y-96376247D01*
X167689286Y-96376247D02*
X167689286Y-96233390D01*
X167689286Y-96233390D02*
X167736905Y-96042914D01*
X167736905Y-96042914D02*
X167784524Y-95947676D01*
X167784524Y-95947676D02*
X167879762Y-95852438D01*
X167879762Y-95852438D02*
X168022619Y-95804819D01*
X168022619Y-95804819D02*
X168117857Y-95804819D01*
X168117857Y-95804819D02*
X168260714Y-95852438D01*
X168260714Y-95852438D02*
X168308333Y-95900057D01*
X168641667Y-95804819D02*
X169260714Y-95804819D01*
X169260714Y-95804819D02*
X168927381Y-96185771D01*
X168927381Y-96185771D02*
X169070238Y-96185771D01*
X169070238Y-96185771D02*
X169165476Y-96233390D01*
X169165476Y-96233390D02*
X169213095Y-96281009D01*
X169213095Y-96281009D02*
X169260714Y-96376247D01*
X169260714Y-96376247D02*
X169260714Y-96614342D01*
X169260714Y-96614342D02*
X169213095Y-96709580D01*
X169213095Y-96709580D02*
X169165476Y-96757200D01*
X169165476Y-96757200D02*
X169070238Y-96804819D01*
X169070238Y-96804819D02*
X168784524Y-96804819D01*
X168784524Y-96804819D02*
X168689286Y-96757200D01*
X168689286Y-96757200D02*
X168641667Y-96709580D01*
X193666666Y-66777319D02*
X193666666Y-67491604D01*
X193666666Y-67491604D02*
X193619047Y-67634461D01*
X193619047Y-67634461D02*
X193523809Y-67729700D01*
X193523809Y-67729700D02*
X193380952Y-67777319D01*
X193380952Y-67777319D02*
X193285714Y-67777319D01*
X194095238Y-66872557D02*
X194142857Y-66824938D01*
X194142857Y-66824938D02*
X194238095Y-66777319D01*
X194238095Y-66777319D02*
X194476190Y-66777319D01*
X194476190Y-66777319D02*
X194571428Y-66824938D01*
X194571428Y-66824938D02*
X194619047Y-66872557D01*
X194619047Y-66872557D02*
X194666666Y-66967795D01*
X194666666Y-66967795D02*
X194666666Y-67063033D01*
X194666666Y-67063033D02*
X194619047Y-67205890D01*
X194619047Y-67205890D02*
X194047619Y-67777319D01*
X194047619Y-67777319D02*
X194666666Y-67777319D01*
X172624819Y-93738094D02*
X171624819Y-93738094D01*
X171624819Y-93738094D02*
X171624819Y-93499999D01*
X171624819Y-93499999D02*
X171672438Y-93357142D01*
X171672438Y-93357142D02*
X171767676Y-93261904D01*
X171767676Y-93261904D02*
X171862914Y-93214285D01*
X171862914Y-93214285D02*
X172053390Y-93166666D01*
X172053390Y-93166666D02*
X172196247Y-93166666D01*
X172196247Y-93166666D02*
X172386723Y-93214285D01*
X172386723Y-93214285D02*
X172481961Y-93261904D01*
X172481961Y-93261904D02*
X172577200Y-93357142D01*
X172577200Y-93357142D02*
X172624819Y-93499999D01*
X172624819Y-93499999D02*
X172624819Y-93738094D01*
X172624819Y-92214285D02*
X172624819Y-92785713D01*
X172624819Y-92499999D02*
X171624819Y-92499999D01*
X171624819Y-92499999D02*
X171767676Y-92595237D01*
X171767676Y-92595237D02*
X171862914Y-92690475D01*
X171862914Y-92690475D02*
X171910533Y-92785713D01*
X189454819Y-105704166D02*
X188978628Y-106037499D01*
X189454819Y-106275594D02*
X188454819Y-106275594D01*
X188454819Y-106275594D02*
X188454819Y-105894642D01*
X188454819Y-105894642D02*
X188502438Y-105799404D01*
X188502438Y-105799404D02*
X188550057Y-105751785D01*
X188550057Y-105751785D02*
X188645295Y-105704166D01*
X188645295Y-105704166D02*
X188788152Y-105704166D01*
X188788152Y-105704166D02*
X188883390Y-105751785D01*
X188883390Y-105751785D02*
X188931009Y-105799404D01*
X188931009Y-105799404D02*
X188978628Y-105894642D01*
X188978628Y-105894642D02*
X188978628Y-106275594D01*
X188454819Y-105370832D02*
X188454819Y-104751785D01*
X188454819Y-104751785D02*
X188835771Y-105085118D01*
X188835771Y-105085118D02*
X188835771Y-104942261D01*
X188835771Y-104942261D02*
X188883390Y-104847023D01*
X188883390Y-104847023D02*
X188931009Y-104799404D01*
X188931009Y-104799404D02*
X189026247Y-104751785D01*
X189026247Y-104751785D02*
X189264342Y-104751785D01*
X189264342Y-104751785D02*
X189359580Y-104799404D01*
X189359580Y-104799404D02*
X189407200Y-104847023D01*
X189407200Y-104847023D02*
X189454819Y-104942261D01*
X189454819Y-104942261D02*
X189454819Y-105227975D01*
X189454819Y-105227975D02*
X189407200Y-105323213D01*
X189407200Y-105323213D02*
X189359580Y-105370832D01*
X168833333Y-76209580D02*
X168785714Y-76257200D01*
X168785714Y-76257200D02*
X168642857Y-76304819D01*
X168642857Y-76304819D02*
X168547619Y-76304819D01*
X168547619Y-76304819D02*
X168404762Y-76257200D01*
X168404762Y-76257200D02*
X168309524Y-76161961D01*
X168309524Y-76161961D02*
X168261905Y-76066723D01*
X168261905Y-76066723D02*
X168214286Y-75876247D01*
X168214286Y-75876247D02*
X168214286Y-75733390D01*
X168214286Y-75733390D02*
X168261905Y-75542914D01*
X168261905Y-75542914D02*
X168309524Y-75447676D01*
X168309524Y-75447676D02*
X168404762Y-75352438D01*
X168404762Y-75352438D02*
X168547619Y-75304819D01*
X168547619Y-75304819D02*
X168642857Y-75304819D01*
X168642857Y-75304819D02*
X168785714Y-75352438D01*
X168785714Y-75352438D02*
X168833333Y-75400057D01*
X169690476Y-75638152D02*
X169690476Y-76304819D01*
X169452381Y-75257200D02*
X169214286Y-75971485D01*
X169214286Y-75971485D02*
X169833333Y-75971485D01*
X180954819Y-103638094D02*
X179954819Y-103638094D01*
X179954819Y-103638094D02*
X179954819Y-103399999D01*
X179954819Y-103399999D02*
X180002438Y-103257142D01*
X180002438Y-103257142D02*
X180097676Y-103161904D01*
X180097676Y-103161904D02*
X180192914Y-103114285D01*
X180192914Y-103114285D02*
X180383390Y-103066666D01*
X180383390Y-103066666D02*
X180526247Y-103066666D01*
X180526247Y-103066666D02*
X180716723Y-103114285D01*
X180716723Y-103114285D02*
X180811961Y-103161904D01*
X180811961Y-103161904D02*
X180907200Y-103257142D01*
X180907200Y-103257142D02*
X180954819Y-103399999D01*
X180954819Y-103399999D02*
X180954819Y-103638094D01*
X179954819Y-102733332D02*
X179954819Y-102114285D01*
X179954819Y-102114285D02*
X180335771Y-102447618D01*
X180335771Y-102447618D02*
X180335771Y-102304761D01*
X180335771Y-102304761D02*
X180383390Y-102209523D01*
X180383390Y-102209523D02*
X180431009Y-102161904D01*
X180431009Y-102161904D02*
X180526247Y-102114285D01*
X180526247Y-102114285D02*
X180764342Y-102114285D01*
X180764342Y-102114285D02*
X180859580Y-102161904D01*
X180859580Y-102161904D02*
X180907200Y-102209523D01*
X180907200Y-102209523D02*
X180954819Y-102304761D01*
X180954819Y-102304761D02*
X180954819Y-102590475D01*
X180954819Y-102590475D02*
X180907200Y-102685713D01*
X180907200Y-102685713D02*
X180859580Y-102733332D01*
X184333333Y-72359580D02*
X184285714Y-72407200D01*
X184285714Y-72407200D02*
X184142857Y-72454819D01*
X184142857Y-72454819D02*
X184047619Y-72454819D01*
X184047619Y-72454819D02*
X183904762Y-72407200D01*
X183904762Y-72407200D02*
X183809524Y-72311961D01*
X183809524Y-72311961D02*
X183761905Y-72216723D01*
X183761905Y-72216723D02*
X183714286Y-72026247D01*
X183714286Y-72026247D02*
X183714286Y-71883390D01*
X183714286Y-71883390D02*
X183761905Y-71692914D01*
X183761905Y-71692914D02*
X183809524Y-71597676D01*
X183809524Y-71597676D02*
X183904762Y-71502438D01*
X183904762Y-71502438D02*
X184047619Y-71454819D01*
X184047619Y-71454819D02*
X184142857Y-71454819D01*
X184142857Y-71454819D02*
X184285714Y-71502438D01*
X184285714Y-71502438D02*
X184333333Y-71550057D01*
X185238095Y-71454819D02*
X184761905Y-71454819D01*
X184761905Y-71454819D02*
X184714286Y-71931009D01*
X184714286Y-71931009D02*
X184761905Y-71883390D01*
X184761905Y-71883390D02*
X184857143Y-71835771D01*
X184857143Y-71835771D02*
X185095238Y-71835771D01*
X185095238Y-71835771D02*
X185190476Y-71883390D01*
X185190476Y-71883390D02*
X185238095Y-71931009D01*
X185238095Y-71931009D02*
X185285714Y-72026247D01*
X185285714Y-72026247D02*
X185285714Y-72264342D01*
X185285714Y-72264342D02*
X185238095Y-72359580D01*
X185238095Y-72359580D02*
X185190476Y-72407200D01*
X185190476Y-72407200D02*
X185095238Y-72454819D01*
X185095238Y-72454819D02*
X184857143Y-72454819D01*
X184857143Y-72454819D02*
X184761905Y-72407200D01*
X184761905Y-72407200D02*
X184714286Y-72359580D01*
X188209580Y-96691666D02*
X188257200Y-96739285D01*
X188257200Y-96739285D02*
X188304819Y-96882142D01*
X188304819Y-96882142D02*
X188304819Y-96977380D01*
X188304819Y-96977380D02*
X188257200Y-97120237D01*
X188257200Y-97120237D02*
X188161961Y-97215475D01*
X188161961Y-97215475D02*
X188066723Y-97263094D01*
X188066723Y-97263094D02*
X187876247Y-97310713D01*
X187876247Y-97310713D02*
X187733390Y-97310713D01*
X187733390Y-97310713D02*
X187542914Y-97263094D01*
X187542914Y-97263094D02*
X187447676Y-97215475D01*
X187447676Y-97215475D02*
X187352438Y-97120237D01*
X187352438Y-97120237D02*
X187304819Y-96977380D01*
X187304819Y-96977380D02*
X187304819Y-96882142D01*
X187304819Y-96882142D02*
X187352438Y-96739285D01*
X187352438Y-96739285D02*
X187400057Y-96691666D01*
X187304819Y-96358332D02*
X187304819Y-95691666D01*
X187304819Y-95691666D02*
X188304819Y-96120237D01*
X172624819Y-76238094D02*
X171624819Y-76238094D01*
X171624819Y-76238094D02*
X171624819Y-75999999D01*
X171624819Y-75999999D02*
X171672438Y-75857142D01*
X171672438Y-75857142D02*
X171767676Y-75761904D01*
X171767676Y-75761904D02*
X171862914Y-75714285D01*
X171862914Y-75714285D02*
X172053390Y-75666666D01*
X172053390Y-75666666D02*
X172196247Y-75666666D01*
X172196247Y-75666666D02*
X172386723Y-75714285D01*
X172386723Y-75714285D02*
X172481961Y-75761904D01*
X172481961Y-75761904D02*
X172577200Y-75857142D01*
X172577200Y-75857142D02*
X172624819Y-75999999D01*
X172624819Y-75999999D02*
X172624819Y-76238094D01*
X171720057Y-75285713D02*
X171672438Y-75238094D01*
X171672438Y-75238094D02*
X171624819Y-75142856D01*
X171624819Y-75142856D02*
X171624819Y-74904761D01*
X171624819Y-74904761D02*
X171672438Y-74809523D01*
X171672438Y-74809523D02*
X171720057Y-74761904D01*
X171720057Y-74761904D02*
X171815295Y-74714285D01*
X171815295Y-74714285D02*
X171910533Y-74714285D01*
X171910533Y-74714285D02*
X172053390Y-74761904D01*
X172053390Y-74761904D02*
X172624819Y-75333332D01*
X172624819Y-75333332D02*
X172624819Y-74714285D01*
X179954819Y-101911904D02*
X180764342Y-101911904D01*
X180764342Y-101911904D02*
X180859580Y-101864285D01*
X180859580Y-101864285D02*
X180907200Y-101816666D01*
X180907200Y-101816666D02*
X180954819Y-101721428D01*
X180954819Y-101721428D02*
X180954819Y-101530952D01*
X180954819Y-101530952D02*
X180907200Y-101435714D01*
X180907200Y-101435714D02*
X180859580Y-101388095D01*
X180859580Y-101388095D02*
X180764342Y-101340476D01*
X180764342Y-101340476D02*
X179954819Y-101340476D01*
X180050057Y-100911904D02*
X180002438Y-100864285D01*
X180002438Y-100864285D02*
X179954819Y-100769047D01*
X179954819Y-100769047D02*
X179954819Y-100530952D01*
X179954819Y-100530952D02*
X180002438Y-100435714D01*
X180002438Y-100435714D02*
X180050057Y-100388095D01*
X180050057Y-100388095D02*
X180145295Y-100340476D01*
X180145295Y-100340476D02*
X180240533Y-100340476D01*
X180240533Y-100340476D02*
X180383390Y-100388095D01*
X180383390Y-100388095D02*
X180954819Y-100959523D01*
X180954819Y-100959523D02*
X180954819Y-100340476D01*
X168308333Y-83209580D02*
X168260714Y-83257200D01*
X168260714Y-83257200D02*
X168117857Y-83304819D01*
X168117857Y-83304819D02*
X168022619Y-83304819D01*
X168022619Y-83304819D02*
X167879762Y-83257200D01*
X167879762Y-83257200D02*
X167784524Y-83161961D01*
X167784524Y-83161961D02*
X167736905Y-83066723D01*
X167736905Y-83066723D02*
X167689286Y-82876247D01*
X167689286Y-82876247D02*
X167689286Y-82733390D01*
X167689286Y-82733390D02*
X167736905Y-82542914D01*
X167736905Y-82542914D02*
X167784524Y-82447676D01*
X167784524Y-82447676D02*
X167879762Y-82352438D01*
X167879762Y-82352438D02*
X168022619Y-82304819D01*
X168022619Y-82304819D02*
X168117857Y-82304819D01*
X168117857Y-82304819D02*
X168260714Y-82352438D01*
X168260714Y-82352438D02*
X168308333Y-82400057D01*
X168689286Y-82400057D02*
X168736905Y-82352438D01*
X168736905Y-82352438D02*
X168832143Y-82304819D01*
X168832143Y-82304819D02*
X169070238Y-82304819D01*
X169070238Y-82304819D02*
X169165476Y-82352438D01*
X169165476Y-82352438D02*
X169213095Y-82400057D01*
X169213095Y-82400057D02*
X169260714Y-82495295D01*
X169260714Y-82495295D02*
X169260714Y-82590533D01*
X169260714Y-82590533D02*
X169213095Y-82733390D01*
X169213095Y-82733390D02*
X168641667Y-83304819D01*
X168641667Y-83304819D02*
X169260714Y-83304819D01*
X168308333Y-89209580D02*
X168260714Y-89257200D01*
X168260714Y-89257200D02*
X168117857Y-89304819D01*
X168117857Y-89304819D02*
X168022619Y-89304819D01*
X168022619Y-89304819D02*
X167879762Y-89257200D01*
X167879762Y-89257200D02*
X167784524Y-89161961D01*
X167784524Y-89161961D02*
X167736905Y-89066723D01*
X167736905Y-89066723D02*
X167689286Y-88876247D01*
X167689286Y-88876247D02*
X167689286Y-88733390D01*
X167689286Y-88733390D02*
X167736905Y-88542914D01*
X167736905Y-88542914D02*
X167784524Y-88447676D01*
X167784524Y-88447676D02*
X167879762Y-88352438D01*
X167879762Y-88352438D02*
X168022619Y-88304819D01*
X168022619Y-88304819D02*
X168117857Y-88304819D01*
X168117857Y-88304819D02*
X168260714Y-88352438D01*
X168260714Y-88352438D02*
X168308333Y-88400057D01*
X169260714Y-89304819D02*
X168689286Y-89304819D01*
X168975000Y-89304819D02*
X168975000Y-88304819D01*
X168975000Y-88304819D02*
X168879762Y-88447676D01*
X168879762Y-88447676D02*
X168784524Y-88542914D01*
X168784524Y-88542914D02*
X168689286Y-88590533D01*
D12*
%TO.C,C9*%
X197910000Y-90788748D02*
X197910000Y-92211252D01*
X196090000Y-90788748D02*
X196090000Y-92211252D01*
%TO.C,U3*%
X170790000Y-68200000D02*
X170790000Y-64440000D01*
X177610000Y-68200000D02*
X177610000Y-64440000D01*
X170790000Y-64440000D02*
X172050000Y-64440000D01*
X177610000Y-64440000D02*
X176350000Y-64440000D01*
X170890000Y-69480000D02*
X170560000Y-69720000D01*
X170560000Y-69240000D01*
X170890000Y-69480000D01*
G36*
X170890000Y-69480000D02*
G01*
X170560000Y-69720000D01*
X170560000Y-69240000D01*
X170890000Y-69480000D01*
G37*
%TO.C,R7*%
X195910000Y-82772936D02*
X195910000Y-84227064D01*
X194090000Y-82772936D02*
X194090000Y-84227064D01*
%TO.C,U1*%
X189570000Y-91310000D02*
X191520000Y-91310000D01*
X189570000Y-91310000D02*
X187620000Y-91310000D01*
X189570000Y-86190000D02*
X191520000Y-86190000D01*
X189570000Y-86190000D02*
X187620000Y-86190000D01*
X192510000Y-91545000D02*
X192030000Y-91545000D01*
X192270000Y-91215000D01*
X192510000Y-91545000D01*
G36*
X192510000Y-91545000D02*
G01*
X192030000Y-91545000D01*
X192270000Y-91215000D01*
X192510000Y-91545000D01*
G37*
%TO.C,D4*%
X178815000Y-72865000D02*
X178815000Y-75135000D01*
X178815000Y-75135000D02*
X182700000Y-75135000D01*
X182700000Y-72865000D02*
X178815000Y-72865000D01*
%TO.C,J3*%
X197250000Y-102790000D02*
X196750000Y-102790000D01*
X196750000Y-102790000D02*
X197000000Y-103290000D01*
X197000000Y-103290000D02*
X197250000Y-102790000D01*
%TO.C,R10*%
X181590000Y-82689564D02*
X181590000Y-81235436D01*
X183410000Y-82689564D02*
X183410000Y-81235436D01*
%TO.C,R11*%
X198410000Y-95810436D02*
X198410000Y-97264564D01*
X196590000Y-95810436D02*
X196590000Y-97264564D01*
%TO.C,C10*%
X180910000Y-87288748D02*
X180910000Y-88711252D01*
X179090000Y-87288748D02*
X179090000Y-88711252D01*
%TO.C,RV2*%
X191310000Y-70670000D02*
X186170000Y-70670000D01*
X191310000Y-70670000D02*
X191310000Y-73330000D01*
X186170000Y-70670000D02*
X186170000Y-73330000D01*
X193910000Y-72000000D02*
X193910000Y-73330000D01*
X193910000Y-73330000D02*
X192580000Y-73330000D01*
X191310000Y-73330000D02*
X186170000Y-73330000D01*
%TO.C,R13*%
X188310436Y-76090000D02*
X189764564Y-76090000D01*
X188310436Y-77910000D02*
X189764564Y-77910000D01*
%TO.C,R1*%
X182410000Y-65810436D02*
X182410000Y-67264564D01*
X180590000Y-65810436D02*
X180590000Y-67264564D01*
%TO.C,R8*%
X204910000Y-92810436D02*
X204910000Y-94264564D01*
X203090000Y-92810436D02*
X203090000Y-94264564D01*
%TO.C,R2*%
X186689564Y-65910000D02*
X185235436Y-65910000D01*
X186689564Y-64090000D02*
X185235436Y-64090000D01*
%TO.C,J1*%
X172670000Y-82690000D02*
X172670000Y-87830000D01*
X172670000Y-82690000D02*
X175330000Y-82690000D01*
X172670000Y-87830000D02*
X175330000Y-87830000D01*
X174000000Y-80090000D02*
X175330000Y-80090000D01*
X175330000Y-80090000D02*
X175330000Y-81420000D01*
X175330000Y-82690000D02*
X175330000Y-87830000D01*
%TO.C,R9*%
X200090000Y-90764564D02*
X200090000Y-89310436D01*
X201910000Y-90764564D02*
X201910000Y-89310436D01*
%TO.C,R12*%
X177810436Y-106590000D02*
X179264564Y-106590000D01*
X177810436Y-108410000D02*
X179264564Y-108410000D01*
%TO.C,C6*%
X183410000Y-95813748D02*
X183410000Y-97236252D01*
X181590000Y-95813748D02*
X181590000Y-97236252D01*
%TO.C,R5*%
X198410000Y-70310436D02*
X198410000Y-71764564D01*
X196590000Y-70310436D02*
X196590000Y-71764564D01*
%TO.C,RV1*%
X201690000Y-84830000D02*
X206830000Y-84830000D01*
X201690000Y-84830000D02*
X201690000Y-82170000D01*
X206830000Y-84830000D02*
X206830000Y-82170000D01*
X199090000Y-83500000D02*
X199090000Y-82170000D01*
X199090000Y-82170000D02*
X200420000Y-82170000D01*
X201690000Y-82170000D02*
X206830000Y-82170000D01*
%TO.C,R4*%
X187590000Y-101189564D02*
X187590000Y-99735436D01*
X189410000Y-101189564D02*
X189410000Y-99735436D01*
%TO.C,R6*%
X186910000Y-80810436D02*
X186910000Y-82264564D01*
X185090000Y-80810436D02*
X185090000Y-82264564D01*
%TO.C,C3*%
X169186252Y-95410000D02*
X167763748Y-95410000D01*
X169186252Y-93590000D02*
X167763748Y-93590000D01*
%TO.C,J2*%
X196750000Y-67072500D02*
X197250000Y-67072500D01*
X197250000Y-67072500D02*
X197000000Y-66572500D01*
X197000000Y-66572500D02*
X196750000Y-67072500D01*
%TO.C,D1*%
X172865000Y-95285000D02*
X175135000Y-95285000D01*
X175135000Y-95285000D02*
X175135000Y-91400000D01*
X172865000Y-91400000D02*
X172865000Y-95285000D01*
%TO.C,R3*%
X185090000Y-106264564D02*
X185090000Y-104810436D01*
X186910000Y-106264564D02*
X186910000Y-104810436D01*
%TO.C,C4*%
X169711252Y-74910000D02*
X168288748Y-74910000D01*
X169711252Y-73090000D02*
X168288748Y-73090000D01*
%TO.C,D3*%
X183635000Y-100615000D02*
X181365000Y-100615000D01*
X181365000Y-100615000D02*
X181365000Y-104500000D01*
X183635000Y-104500000D02*
X183635000Y-100615000D01*
%TO.C,C5*%
X180288748Y-70090000D02*
X181711252Y-70090000D01*
X180288748Y-71910000D02*
X181711252Y-71910000D01*
%TO.C,C7*%
X186910000Y-95813748D02*
X186910000Y-97236252D01*
X185090000Y-95813748D02*
X185090000Y-97236252D01*
%TO.C,D2*%
X172865000Y-77785000D02*
X175135000Y-77785000D01*
X175135000Y-77785000D02*
X175135000Y-73900000D01*
X172865000Y-73900000D02*
X172865000Y-77785000D01*
%TO.C,U2*%
X179410000Y-99300000D02*
X179410000Y-103060000D01*
X172590000Y-99300000D02*
X172590000Y-103060000D01*
X179410000Y-103060000D02*
X178150000Y-103060000D01*
X172590000Y-103060000D02*
X173850000Y-103060000D01*
X179640000Y-98260000D02*
X179310000Y-98020000D01*
X179640000Y-97780000D01*
X179640000Y-98260000D01*
G36*
X179640000Y-98260000D02*
G01*
X179310000Y-98020000D01*
X179640000Y-97780000D01*
X179640000Y-98260000D01*
G37*
%TO.C,C2*%
X169186252Y-81910000D02*
X167763748Y-81910000D01*
X169186252Y-80090000D02*
X167763748Y-80090000D01*
%TO.C,C1*%
X169186252Y-87910000D02*
X167763748Y-87910000D01*
X169186252Y-86090000D02*
X167763748Y-86090000D01*
%TD*%
M02*
