%TF.GenerationSoftware,KiCad,Pcbnew,9.0.4-9.0.4-0~ubuntu24.04.1*%
%TF.CreationDate,2025-11-05T14:30:18-05:00*%
%TF.ProjectId,LFAmp-offset,4c46416d-702d-46f6-9666-7365742e6b69,rev?*%
%TF.SameCoordinates,Original*%
%TF.FileFunction,Copper,L1,Top*%
%TF.FilePolarity,Positive*%
%FSLAX46Y46*%
G04 Gerber Fmt 4.6, Leading zero omitted, Abs format (unit mm)*
G04 Created by KiCad (PCBNEW 9.0.4-9.0.4-0~ubuntu24.04.1) date 2025-11-05 14:30:18*
%MOMM*%
%LPD*%
G01*
G04 APERTURE LIST*
G04 Aperture macros list*
%AMRoundRect*
0 Rectangle with rounded corners*
0 $1 Rounding radius*
0 $2 $3 $4 $5 $6 $7 $8 $9 X,Y pos of 4 corners*
0 Add a 4 corners polygon primitive as box body*
4,1,4,$2,$3,$4,$5,$6,$7,$8,$9,$2,$3,0*
0 Add four circle primitives for the rounded corners*
1,1,$1+$1,$2,$3*
1,1,$1+$1,$4,$5*
1,1,$1+$1,$6,$7*
1,1,$1+$1,$8,$9*
0 Add four rect primitives between the rounded corners*
20,1,$1+$1,$2,$3,$4,$5,0*
20,1,$1+$1,$4,$5,$6,$7,0*
20,1,$1+$1,$6,$7,$8,$9,0*
20,1,$1+$1,$8,$9,$2,$3,0*%
G04 Aperture macros list end*
%TA.AperFunction,Conductor*%
%ADD10C,1.000000*%
%TD*%
%TA.AperFunction,SMDPad,CuDef*%
%ADD11RoundRect,0.250000X-0.650000X0.325000X-0.650000X-0.325000X0.650000X-0.325000X0.650000X0.325000X0*%
%TD*%
%TA.AperFunction,SMDPad,CuDef*%
%ADD12RoundRect,0.375000X0.375000X-0.625000X0.375000X0.625000X-0.375000X0.625000X-0.375000X-0.625000X0*%
%TD*%
%TA.AperFunction,SMDPad,CuDef*%
%ADD13RoundRect,0.500000X1.400000X-0.500000X1.400000X0.500000X-1.400000X0.500000X-1.400000X-0.500000X0*%
%TD*%
%TA.AperFunction,SMDPad,CuDef*%
%ADD14RoundRect,0.250000X-0.625000X0.312500X-0.625000X-0.312500X0.625000X-0.312500X0.625000X0.312500X0*%
%TD*%
%TA.AperFunction,SMDPad,CuDef*%
%ADD15RoundRect,0.150000X0.825000X0.150000X-0.825000X0.150000X-0.825000X-0.150000X0.825000X-0.150000X0*%
%TD*%
%TA.AperFunction,HeatsinkPad*%
%ADD16R,2.290000X3.000000*%
%TD*%
%TA.AperFunction,SMDPad,CuDef*%
%ADD17RoundRect,0.250000X-0.375000X-0.625000X0.375000X-0.625000X0.375000X0.625000X-0.375000X0.625000X0*%
%TD*%
%TA.AperFunction,SMDPad,CuDef*%
%ADD18R,1.500000X5.080000*%
%TD*%
%TA.AperFunction,SMDPad,CuDef*%
%ADD19RoundRect,0.250000X0.625000X-0.312500X0.625000X0.312500X-0.625000X0.312500X-0.625000X-0.312500X0*%
%TD*%
%TA.AperFunction,ComponentPad*%
%ADD20R,1.700000X1.700000*%
%TD*%
%TA.AperFunction,ComponentPad*%
%ADD21C,1.700000*%
%TD*%
%TA.AperFunction,SMDPad,CuDef*%
%ADD22RoundRect,0.250000X-0.312500X-0.625000X0.312500X-0.625000X0.312500X0.625000X-0.312500X0.625000X0*%
%TD*%
%TA.AperFunction,SMDPad,CuDef*%
%ADD23RoundRect,0.250000X0.312500X0.625000X-0.312500X0.625000X-0.312500X-0.625000X0.312500X-0.625000X0*%
%TD*%
%TA.AperFunction,SMDPad,CuDef*%
%ADD24RoundRect,0.250000X0.325000X0.650000X-0.325000X0.650000X-0.325000X-0.650000X0.325000X-0.650000X0*%
%TD*%
%TA.AperFunction,SMDPad,CuDef*%
%ADD25RoundRect,0.250000X0.625000X-0.375000X0.625000X0.375000X-0.625000X0.375000X-0.625000X-0.375000X0*%
%TD*%
%TA.AperFunction,SMDPad,CuDef*%
%ADD26RoundRect,0.250000X-0.625000X0.375000X-0.625000X-0.375000X0.625000X-0.375000X0.625000X0.375000X0*%
%TD*%
%TA.AperFunction,SMDPad,CuDef*%
%ADD27RoundRect,0.250000X-0.325000X-0.650000X0.325000X-0.650000X0.325000X0.650000X-0.325000X0.650000X0*%
%TD*%
%TA.AperFunction,SMDPad,CuDef*%
%ADD28RoundRect,0.375000X-0.375000X0.625000X-0.375000X-0.625000X0.375000X-0.625000X0.375000X0.625000X0*%
%TD*%
%TA.AperFunction,SMDPad,CuDef*%
%ADD29RoundRect,0.500000X-1.400000X0.500000X-1.400000X-0.500000X1.400000X-0.500000X1.400000X0.500000X0*%
%TD*%
%TA.AperFunction,ViaPad*%
%ADD30C,0.600000*%
%TD*%
%TA.AperFunction,Conductor*%
%ADD31C,0.250000*%
%TD*%
%TA.AperFunction,Conductor*%
%ADD32C,0.500000*%
%TD*%
G04 APERTURE END LIST*
D10*
%TO.N,+15V*%
X173500000Y-94500000D02*
X170000000Y-94500000D01*
%TD*%
D11*
%TO.P,C9,1*%
%TO.N,Net-(U1A--)*%
X197000000Y-90025000D03*
%TO.P,C9,2*%
%TO.N,Net-(C9-Pad2)*%
X197000000Y-92975000D03*
%TD*%
D12*
%TO.P,U3,1,ADJ*%
%TO.N,Net-(U3-ADJ)*%
X171900000Y-69500000D03*
%TO.P,U3,2,VI*%
%TO.N,-15V*%
X174200000Y-69500000D03*
D13*
X174200000Y-63200000D03*
D12*
%TO.P,U3,3,VO*%
%TO.N,-5V*%
X176500000Y-69500000D03*
%TD*%
D14*
%TO.P,R7,1*%
%TO.N,GND*%
X195000000Y-82037500D03*
%TO.P,R7,2*%
%TO.N,Net-(U1A-+)*%
X195000000Y-84962500D03*
%TD*%
D15*
%TO.P,U1,1*%
%TO.N,Net-(C9-Pad2)*%
X192045000Y-90655000D03*
%TO.P,U1,2,-*%
%TO.N,Net-(U1A--)*%
X192045000Y-89385000D03*
%TO.P,U1,3,+*%
%TO.N,Net-(U1A-+)*%
X192045000Y-88115000D03*
%TO.P,U1,4,V-*%
%TO.N,-5V*%
X192045000Y-86845000D03*
%TO.P,U1,5,+*%
%TO.N,Net-(U1B-+)*%
X187095000Y-86845000D03*
%TO.P,U1,6,-*%
%TO.N,Net-(U1B--)*%
X187095000Y-88115000D03*
%TO.P,U1,7*%
%TO.N,Net-(C10-Pad2)*%
X187095000Y-89385000D03*
%TO.P,U1,8,V+*%
%TO.N,+5V*%
X187095000Y-90655000D03*
D16*
%TO.P,U1,9*%
%TO.N,N/C*%
X189570000Y-88750000D03*
%TD*%
D17*
%TO.P,D4,1,K*%
%TO.N,-5V*%
X179700000Y-74000000D03*
%TO.P,D4,2,A*%
%TO.N,Net-(D4-A)*%
X182500000Y-74000000D03*
%TD*%
D18*
%TO.P,J3,1,In*%
%TO.N,Net-(J3-In)*%
X197000000Y-106500000D03*
%TO.P,J3,2,Ext*%
%TO.N,GND*%
X201250000Y-106500000D03*
X192750000Y-106500000D03*
%TD*%
D19*
%TO.P,R10,1*%
%TO.N,Net-(U1B--)*%
X182500000Y-83425000D03*
%TO.P,R10,2*%
%TO.N,Net-(R10-Pad2)*%
X182500000Y-80500000D03*
%TD*%
D14*
%TO.P,R11,1*%
%TO.N,Net-(C10-Pad2)*%
X197500000Y-95075000D03*
%TO.P,R11,2*%
%TO.N,Net-(J3-In)*%
X197500000Y-98000000D03*
%TD*%
D11*
%TO.P,C10,1*%
%TO.N,Net-(U1B--)*%
X180000000Y-86525000D03*
%TO.P,C10,2*%
%TO.N,Net-(C10-Pad2)*%
X180000000Y-89475000D03*
%TD*%
D20*
%TO.P,RV2,1,1*%
%TO.N,+5V*%
X192580000Y-72000000D03*
D21*
%TO.P,RV2,2,2*%
%TO.N,Net-(R10-Pad2)*%
X190040000Y-72000000D03*
%TO.P,RV2,3,3*%
%TO.N,-5V*%
X187500000Y-72000000D03*
%TD*%
D22*
%TO.P,R13,1*%
%TO.N,Net-(D4-A)*%
X187575000Y-77000000D03*
%TO.P,R13,2*%
%TO.N,GND*%
X190500000Y-77000000D03*
%TD*%
D14*
%TO.P,R1,1*%
%TO.N,Net-(U3-ADJ)*%
X181500000Y-65075000D03*
%TO.P,R1,2*%
%TO.N,-5V*%
X181500000Y-68000000D03*
%TD*%
%TO.P,R8,1*%
%TO.N,Net-(U1B--)*%
X204000000Y-92075000D03*
%TO.P,R8,2*%
%TO.N,Net-(C10-Pad2)*%
X204000000Y-95000000D03*
%TD*%
D23*
%TO.P,R2,1*%
%TO.N,GND*%
X187425000Y-65000000D03*
%TO.P,R2,2*%
%TO.N,Net-(U3-ADJ)*%
X184500000Y-65000000D03*
%TD*%
D20*
%TO.P,J1,1,Pin_1*%
%TO.N,Net-(D2-K)*%
X174000000Y-81420000D03*
D21*
%TO.P,J1,2,Pin_2*%
%TO.N,GND*%
X174000000Y-83960000D03*
%TO.P,J1,3,Pin_3*%
%TO.N,Net-(D1-A)*%
X174000000Y-86500000D03*
%TD*%
D19*
%TO.P,R9,1*%
%TO.N,Net-(C9-Pad2)*%
X201000000Y-91500000D03*
%TO.P,R9,2*%
%TO.N,Net-(U1B--)*%
X201000000Y-88575000D03*
%TD*%
D22*
%TO.P,R12,1*%
%TO.N,+5V*%
X177075000Y-107500000D03*
%TO.P,R12,2*%
%TO.N,Net-(D3-A)*%
X180000000Y-107500000D03*
%TD*%
D11*
%TO.P,C6,1*%
%TO.N,+5V*%
X182500000Y-95050000D03*
%TO.P,C6,2*%
%TO.N,GND*%
X182500000Y-98000000D03*
%TD*%
D14*
%TO.P,R5,1*%
%TO.N,Net-(J2-In)*%
X197500000Y-69575000D03*
%TO.P,R5,2*%
%TO.N,Net-(U1A--)*%
X197500000Y-72500000D03*
%TD*%
D20*
%TO.P,RV1,1,1*%
%TO.N,Net-(U1A--)*%
X200420000Y-83500000D03*
D21*
%TO.P,RV1,2,2*%
%TO.N,Net-(C9-Pad2)*%
X202960000Y-83500000D03*
%TO.P,RV1,3,3*%
%TO.N,unconnected-(RV1-Pad3)*%
X205500000Y-83500000D03*
%TD*%
D19*
%TO.P,R4,1*%
%TO.N,Net-(U2-ADJ)*%
X188500000Y-101925000D03*
%TO.P,R4,2*%
%TO.N,+5V*%
X188500000Y-99000000D03*
%TD*%
D14*
%TO.P,R6,1*%
%TO.N,GND*%
X186000000Y-80075000D03*
%TO.P,R6,2*%
%TO.N,Net-(U1B-+)*%
X186000000Y-83000000D03*
%TD*%
D24*
%TO.P,C3,1*%
%TO.N,+15V*%
X169950000Y-94500000D03*
%TO.P,C3,2*%
%TO.N,GND*%
X167000000Y-94500000D03*
%TD*%
D18*
%TO.P,J2,1,In*%
%TO.N,Net-(J2-In)*%
X197000000Y-63362500D03*
%TO.P,J2,2,Ext*%
%TO.N,GND*%
X192750000Y-63362500D03*
X201250000Y-63362500D03*
%TD*%
D25*
%TO.P,D1,1,K*%
%TO.N,+15V*%
X174000000Y-94400000D03*
%TO.P,D1,2,A*%
%TO.N,Net-(D1-A)*%
X174000000Y-91600000D03*
%TD*%
D19*
%TO.P,R3,1*%
%TO.N,GND*%
X186000000Y-107000000D03*
%TO.P,R3,2*%
%TO.N,Net-(U2-ADJ)*%
X186000000Y-104075000D03*
%TD*%
D24*
%TO.P,C4,1*%
%TO.N,-15V*%
X170475000Y-74000000D03*
%TO.P,C4,2*%
%TO.N,GND*%
X167525000Y-74000000D03*
%TD*%
D26*
%TO.P,D3,1,K*%
%TO.N,GND*%
X182500000Y-101500000D03*
%TO.P,D3,2,A*%
%TO.N,Net-(D3-A)*%
X182500000Y-104300000D03*
%TD*%
D27*
%TO.P,C5,1*%
%TO.N,-5V*%
X179525000Y-71000000D03*
%TO.P,C5,2*%
%TO.N,GND*%
X182475000Y-71000000D03*
%TD*%
D11*
%TO.P,C7,1*%
%TO.N,+5V*%
X186000000Y-95050000D03*
%TO.P,C7,2*%
%TO.N,GND*%
X186000000Y-98000000D03*
%TD*%
D25*
%TO.P,D2,1,K*%
%TO.N,Net-(D2-K)*%
X174000000Y-76900000D03*
%TO.P,D2,2,A*%
%TO.N,-15V*%
X174000000Y-74100000D03*
%TD*%
D28*
%TO.P,U2,1,ADJ*%
%TO.N,Net-(U2-ADJ)*%
X178300000Y-98000000D03*
%TO.P,U2,2,VO*%
%TO.N,+5V*%
X176000000Y-98000000D03*
D29*
X176000000Y-104300000D03*
D28*
%TO.P,U2,3,VI*%
%TO.N,+15V*%
X173700000Y-98000000D03*
%TD*%
D24*
%TO.P,C2,1*%
%TO.N,Net-(D2-K)*%
X169950000Y-81000000D03*
%TO.P,C2,2*%
%TO.N,GND*%
X167000000Y-81000000D03*
%TD*%
%TO.P,C1,1*%
%TO.N,Net-(D1-A)*%
X169950000Y-87000000D03*
%TO.P,C1,2*%
%TO.N,GND*%
X167000000Y-87000000D03*
%TD*%
D30*
%TO.N,Net-(D4-A)*%
X185500000Y-78000000D03*
X185000000Y-74000000D03*
%TO.N,+5V*%
X194500000Y-75000000D03*
%TO.N,Net-(U1B--)*%
X201000000Y-87000000D03*
X184000000Y-88000000D03*
%TO.N,+5V*%
X180000000Y-95050000D03*
X184500000Y-91000000D03*
%TO.N,-5V*%
X192500000Y-85000000D03*
X176468962Y-71468963D03*
%TD*%
D31*
%TO.N,Net-(D4-A)*%
X186575000Y-78000000D02*
X185500000Y-78000000D01*
X187575000Y-77000000D02*
X186575000Y-78000000D01*
X182500000Y-74000000D02*
X184000000Y-74000000D01*
X184000000Y-74000000D02*
X185000000Y-74000000D01*
D32*
%TO.N,+5V*%
X176000000Y-104300000D02*
X176000000Y-98000000D01*
D31*
X192580000Y-73080000D02*
X194500000Y-75000000D01*
X192580000Y-72000000D02*
X192580000Y-73080000D01*
%TO.N,Net-(R10-Pad2)*%
X190040000Y-72000000D02*
X182500000Y-79540000D01*
X182500000Y-79540000D02*
X182500000Y-80500000D01*
%TO.N,-5V*%
X187500000Y-72000000D02*
X187000000Y-72000000D01*
X187000000Y-72000000D02*
X183000000Y-68000000D01*
X183000000Y-68000000D02*
X181500000Y-68000000D01*
D32*
%TO.N,Net-(U1A--)*%
X197500000Y-83500000D02*
X197500000Y-89525000D01*
X197500000Y-83500000D02*
X200420000Y-83500000D01*
D31*
%TO.N,Net-(C9-Pad2)*%
X202500000Y-86000000D02*
X199500000Y-86000000D01*
X202960000Y-83500000D02*
X202960000Y-85540000D01*
D32*
X199000000Y-91500000D02*
X198475000Y-91500000D01*
D31*
X199500000Y-86000000D02*
X199500000Y-91000000D01*
X202960000Y-85540000D02*
X202500000Y-86000000D01*
X199500000Y-91000000D02*
X199000000Y-91500000D01*
D32*
%TO.N,Net-(U3-ADJ)*%
X181500000Y-65075000D02*
X184425000Y-65075000D01*
X184425000Y-65075000D02*
X184500000Y-65000000D01*
%TO.N,-5V*%
X179525000Y-71000000D02*
X179525000Y-69975000D01*
X179525000Y-69975000D02*
X181500000Y-68000000D01*
%TO.N,Net-(U3-ADJ)*%
X173000000Y-66000000D02*
X178000000Y-66000000D01*
X171900000Y-69500000D02*
X171900000Y-67100000D01*
X178925000Y-65075000D02*
X181500000Y-65075000D01*
X171900000Y-67100000D02*
X173000000Y-66000000D01*
X178000000Y-66000000D02*
X178925000Y-65075000D01*
%TO.N,Net-(U1B-+)*%
X186000000Y-83000000D02*
X186000000Y-85750000D01*
X186000000Y-85750000D02*
X187095000Y-86845000D01*
%TO.N,Net-(U1A-+)*%
X194885000Y-88115000D02*
X195000000Y-88000000D01*
X192045000Y-88115000D02*
X194885000Y-88115000D01*
X195000000Y-88000000D02*
X195000000Y-84962500D01*
%TO.N,Net-(J3-In)*%
X197500000Y-98000000D02*
X197500000Y-107000000D01*
X197500000Y-107000000D02*
X197000000Y-107500000D01*
%TO.N,Net-(U1A--)*%
X197500000Y-72500000D02*
X197500000Y-83500000D01*
X197500000Y-89525000D02*
X197000000Y-90025000D01*
%TO.N,Net-(J2-In)*%
X197000000Y-63362500D02*
X197000000Y-69075000D01*
X197000000Y-69075000D02*
X197500000Y-69575000D01*
%TO.N,Net-(U2-ADJ)*%
X186925000Y-101925000D02*
X186925000Y-103150000D01*
X186925000Y-103150000D02*
X186000000Y-104075000D01*
X188500000Y-101925000D02*
X186925000Y-101925000D01*
X186925000Y-101925000D02*
X184500000Y-99500000D01*
X179800000Y-99500000D02*
X178300000Y-98000000D01*
X184500000Y-99500000D02*
X179800000Y-99500000D01*
%TO.N,+5V*%
X188500000Y-99000000D02*
X188500000Y-96000000D01*
X188500000Y-96000000D02*
X186950000Y-96000000D01*
X186950000Y-96000000D02*
X186000000Y-95050000D01*
%TO.N,Net-(C10-Pad2)*%
X191500000Y-94575000D02*
X203575000Y-94575000D01*
X203575000Y-94575000D02*
X204000000Y-95000000D01*
%TO.N,Net-(U1B--)*%
X201000000Y-88575000D02*
X201000000Y-89075000D01*
X201000000Y-89075000D02*
X204000000Y-92075000D01*
X201000000Y-88575000D02*
X201000000Y-87000000D01*
X184000000Y-88000000D02*
X182525000Y-86525000D01*
%TO.N,Net-(C9-Pad2)*%
X201000000Y-91500000D02*
X199000000Y-91500000D01*
X198475000Y-91500000D02*
X197000000Y-92975000D01*
%TO.N,Net-(U1A--)*%
X196360000Y-89385000D02*
X195500000Y-89385000D01*
%TO.N,Net-(U1B--)*%
X182500000Y-83425000D02*
X182500000Y-86500000D01*
X182500000Y-86500000D02*
X182525000Y-86525000D01*
%TO.N,Net-(C10-Pad2)*%
X190075000Y-94575000D02*
X189000000Y-93500000D01*
X191500000Y-94575000D02*
X190075000Y-94575000D01*
X184025000Y-93500000D02*
X180000000Y-89475000D01*
X189000000Y-93500000D02*
X184025000Y-93500000D01*
%TO.N,+5V*%
X180000000Y-95050000D02*
X178950000Y-95050000D01*
X182500000Y-95050000D02*
X180000000Y-95050000D01*
X178950000Y-95050000D02*
X176000000Y-98000000D01*
X182500000Y-95050000D02*
X186000000Y-95050000D01*
X184845000Y-90655000D02*
X184500000Y-91000000D01*
X187095000Y-90655000D02*
X184845000Y-90655000D01*
%TO.N,Net-(D3-A)*%
X180000000Y-107500000D02*
X180000000Y-106800000D01*
X180000000Y-106800000D02*
X182500000Y-104300000D01*
%TO.N,+5V*%
X176000000Y-104300000D02*
X176000000Y-106425000D01*
X176000000Y-106425000D02*
X177075000Y-107500000D01*
%TO.N,-5V*%
X176468962Y-71468963D02*
X177168963Y-71468963D01*
X177168963Y-71468963D02*
X179700000Y-74000000D01*
%TO.N,Net-(U1A--)*%
X197000000Y-90025000D02*
X196360000Y-89385000D01*
X195500000Y-89385000D02*
X192045000Y-89385000D01*
%TO.N,Net-(C9-Pad2)*%
X193500000Y-92110000D02*
X193500000Y-93000000D01*
X193500000Y-93000000D02*
X194500000Y-93000000D01*
X192045000Y-90655000D02*
X193500000Y-92110000D01*
X194500000Y-93000000D02*
X194525000Y-92975000D01*
X194525000Y-92975000D02*
X197000000Y-92975000D01*
%TO.N,+5V*%
X187000000Y-90750000D02*
X187095000Y-90655000D01*
%TO.N,Net-(D2-K)*%
X169950000Y-81000000D02*
X173580000Y-81000000D01*
X173580000Y-81000000D02*
X174000000Y-81420000D01*
D10*
%TO.N,-15V*%
X174000000Y-74100000D02*
X170575000Y-74100000D01*
X170575000Y-74100000D02*
X170475000Y-74000000D01*
D32*
%TO.N,-5V*%
X176468962Y-71468963D02*
X179056037Y-71468963D01*
X179056037Y-71468963D02*
X179525000Y-71000000D01*
D10*
%TO.N,Net-(D1-A)*%
X174000000Y-86500000D02*
X170450000Y-86500000D01*
X170450000Y-86500000D02*
X169950000Y-87000000D01*
D32*
%TO.N,Net-(C10-Pad2)*%
X180000000Y-89475000D02*
X187005000Y-89475000D01*
X187005000Y-89475000D02*
X187095000Y-89385000D01*
%TO.N,Net-(U1B--)*%
X187095000Y-88115000D02*
X184115000Y-88115000D01*
X184115000Y-88115000D02*
X184000000Y-88000000D01*
X182525000Y-86525000D02*
X180000000Y-86525000D01*
%TO.N,-5V*%
X192500000Y-86390000D02*
X192500000Y-85000000D01*
X192045000Y-86845000D02*
X192500000Y-86390000D01*
X192500000Y-85000000D02*
X192612000Y-85112000D01*
X176500000Y-71437925D02*
X176468962Y-71468963D01*
X176500000Y-69500000D02*
X176500000Y-71437925D01*
D10*
%TO.N,+15V*%
X173700000Y-98000000D02*
X173700000Y-94700000D01*
X173700000Y-94700000D02*
X174000000Y-94400000D01*
%TO.N,Net-(D1-A)*%
X174000000Y-86500000D02*
X174000000Y-91600000D01*
%TO.N,Net-(D2-K)*%
X174000000Y-76900000D02*
X174000000Y-81420000D01*
%TO.N,-15V*%
X174000000Y-74100000D02*
X174000000Y-69700000D01*
D32*
X174000000Y-69700000D02*
X174200000Y-69500000D01*
%TD*%
%TA.AperFunction,Conductor*%
%TO.N,GND*%
G36*
X191474897Y-60520185D02*
G01*
X191520652Y-60572989D01*
X191530596Y-60642147D01*
X191524040Y-60667833D01*
X191506403Y-60715119D01*
X191506401Y-60715127D01*
X191500000Y-60774655D01*
X191500000Y-63112500D01*
X194000000Y-63112500D01*
X194000000Y-60774672D01*
X193999999Y-60774655D01*
X193993598Y-60715127D01*
X193993596Y-60715119D01*
X193975960Y-60667833D01*
X193970976Y-60598141D01*
X194004461Y-60536818D01*
X194065785Y-60503334D01*
X194092142Y-60500500D01*
X195657325Y-60500500D01*
X195724364Y-60520185D01*
X195770119Y-60572989D01*
X195780063Y-60642147D01*
X195773507Y-60667833D01*
X195755908Y-60715016D01*
X195749501Y-60774616D01*
X195749501Y-60774623D01*
X195749500Y-60774635D01*
X195749500Y-65950370D01*
X195749501Y-65950376D01*
X195755908Y-66009983D01*
X195806202Y-66144828D01*
X195806206Y-66144835D01*
X195892452Y-66260044D01*
X195892455Y-66260047D01*
X196007664Y-66346293D01*
X196007671Y-66346297D01*
X196142517Y-66396591D01*
X196150062Y-66398374D01*
X196149523Y-66400651D01*
X196203287Y-66422908D01*
X196243147Y-66480293D01*
X196249500Y-66519475D01*
X196249500Y-68811836D01*
X196231039Y-68876932D01*
X196190189Y-68943159D01*
X196190186Y-68943166D01*
X196135001Y-69109703D01*
X196135001Y-69109704D01*
X196135000Y-69109704D01*
X196124500Y-69212483D01*
X196124500Y-69937501D01*
X196124501Y-69937519D01*
X196135000Y-70040296D01*
X196135001Y-70040299D01*
X196190185Y-70206831D01*
X196190187Y-70206836D01*
X196213043Y-70243892D01*
X196282288Y-70356156D01*
X196406344Y-70480212D01*
X196555666Y-70572314D01*
X196722203Y-70627499D01*
X196824991Y-70638000D01*
X198175008Y-70637999D01*
X198277797Y-70627499D01*
X198444334Y-70572314D01*
X198593656Y-70480212D01*
X198717712Y-70356156D01*
X198809814Y-70206834D01*
X198864999Y-70040297D01*
X198875500Y-69937509D01*
X198875499Y-69212492D01*
X198864999Y-69109703D01*
X198809814Y-68943166D01*
X198717712Y-68793844D01*
X198593656Y-68669788D01*
X198444334Y-68577686D01*
X198277797Y-68522501D01*
X198277795Y-68522500D01*
X198175016Y-68512000D01*
X198175009Y-68512000D01*
X197874500Y-68512000D01*
X197807461Y-68492315D01*
X197761706Y-68439511D01*
X197750500Y-68388000D01*
X197750500Y-66519476D01*
X197770185Y-66452437D01*
X197822989Y-66406682D01*
X197850135Y-66399236D01*
X197849932Y-66398376D01*
X197857479Y-66396592D01*
X197857481Y-66396591D01*
X197857483Y-66396591D01*
X197992331Y-66346296D01*
X198107546Y-66260046D01*
X198193796Y-66144831D01*
X198244091Y-66009983D01*
X198250500Y-65950373D01*
X198250500Y-65950344D01*
X200000000Y-65950344D01*
X200006401Y-66009872D01*
X200006403Y-66009879D01*
X200056645Y-66144586D01*
X200056649Y-66144593D01*
X200142809Y-66259687D01*
X200142812Y-66259690D01*
X200257906Y-66345850D01*
X200257913Y-66345854D01*
X200392620Y-66396096D01*
X200392627Y-66396098D01*
X200452155Y-66402499D01*
X200452172Y-66402500D01*
X201000000Y-66402500D01*
X201500000Y-66402500D01*
X202047828Y-66402500D01*
X202047844Y-66402499D01*
X202107372Y-66396098D01*
X202107379Y-66396096D01*
X202242086Y-66345854D01*
X202242093Y-66345850D01*
X202357187Y-66259690D01*
X202357190Y-66259687D01*
X202443350Y-66144593D01*
X202443354Y-66144586D01*
X202493596Y-66009879D01*
X202493598Y-66009872D01*
X202499999Y-65950344D01*
X202500000Y-65950327D01*
X202500000Y-63612500D01*
X201500000Y-63612500D01*
X201500000Y-66402500D01*
X201000000Y-66402500D01*
X201000000Y-63612500D01*
X200000000Y-63612500D01*
X200000000Y-65950344D01*
X198250500Y-65950344D01*
X198250499Y-63316243D01*
X198250499Y-60774629D01*
X198250498Y-60774623D01*
X198250497Y-60774616D01*
X198244091Y-60715017D01*
X198226493Y-60667833D01*
X198221509Y-60598141D01*
X198254995Y-60536818D01*
X198316318Y-60503334D01*
X198342675Y-60500500D01*
X199907858Y-60500500D01*
X199974897Y-60520185D01*
X200020652Y-60572989D01*
X200030596Y-60642147D01*
X200024040Y-60667833D01*
X200006403Y-60715119D01*
X200006401Y-60715127D01*
X200000000Y-60774655D01*
X200000000Y-63112500D01*
X202500000Y-63112500D01*
X202500000Y-62893713D01*
X209649500Y-62893713D01*
X209649500Y-63106286D01*
X209682753Y-63316239D01*
X209748444Y-63518414D01*
X209844951Y-63707820D01*
X209969890Y-63879786D01*
X210120213Y-64030109D01*
X210292179Y-64155048D01*
X210292181Y-64155049D01*
X210292184Y-64155051D01*
X210481588Y-64251557D01*
X210683757Y-64317246D01*
X210893713Y-64350500D01*
X210893714Y-64350500D01*
X211106286Y-64350500D01*
X211106287Y-64350500D01*
X211316243Y-64317246D01*
X211518412Y-64251557D01*
X211707816Y-64155051D01*
X211729789Y-64139086D01*
X211879786Y-64030109D01*
X211879788Y-64030106D01*
X211879792Y-64030104D01*
X212030104Y-63879792D01*
X212030106Y-63879788D01*
X212030109Y-63879786D01*
X212155048Y-63707820D01*
X212155047Y-63707820D01*
X212155051Y-63707816D01*
X212251557Y-63518412D01*
X212317246Y-63316243D01*
X212350500Y-63106287D01*
X212350500Y-62893713D01*
X212317246Y-62683757D01*
X212251557Y-62481588D01*
X212155051Y-62292184D01*
X212155049Y-62292181D01*
X212155048Y-62292179D01*
X212030109Y-62120213D01*
X211879786Y-61969890D01*
X211707820Y-61844951D01*
X211518414Y-61748444D01*
X211518413Y-61748443D01*
X211518412Y-61748443D01*
X211316243Y-61682754D01*
X211316241Y-61682753D01*
X211316240Y-61682753D01*
X211154957Y-61657208D01*
X211106287Y-61649500D01*
X210893713Y-61649500D01*
X210845042Y-61657208D01*
X210683760Y-61682753D01*
X210481585Y-61748444D01*
X210292179Y-61844951D01*
X210120213Y-61969890D01*
X209969890Y-62120213D01*
X209844951Y-62292179D01*
X209748444Y-62481585D01*
X209682753Y-62683760D01*
X209649500Y-62893713D01*
X202500000Y-62893713D01*
X202500000Y-60774672D01*
X202499999Y-60774655D01*
X202493598Y-60715127D01*
X202493596Y-60715119D01*
X202475960Y-60667833D01*
X202470976Y-60598141D01*
X202504461Y-60536818D01*
X202565785Y-60503334D01*
X202592142Y-60500500D01*
X214375500Y-60500500D01*
X214442539Y-60520185D01*
X214488294Y-60572989D01*
X214499500Y-60624500D01*
X214499500Y-109375500D01*
X214479815Y-109442539D01*
X214427011Y-109488294D01*
X214375500Y-109499500D01*
X202528322Y-109499500D01*
X202461283Y-109479815D01*
X202415528Y-109427011D01*
X202405584Y-109357853D01*
X202429055Y-109301190D01*
X202443350Y-109282093D01*
X202443354Y-109282086D01*
X202493596Y-109147379D01*
X202493598Y-109147372D01*
X202499999Y-109087844D01*
X202500000Y-109087827D01*
X202500000Y-106750000D01*
X200000000Y-106750000D01*
X200000000Y-109087844D01*
X200006401Y-109147372D01*
X200006403Y-109147379D01*
X200056645Y-109282086D01*
X200056649Y-109282093D01*
X200070945Y-109301190D01*
X200095362Y-109366654D01*
X200080510Y-109434927D01*
X200031105Y-109484332D01*
X199971678Y-109499500D01*
X198278946Y-109499500D01*
X198211907Y-109479815D01*
X198166152Y-109427011D01*
X198156208Y-109357853D01*
X198179679Y-109301189D01*
X198181045Y-109299363D01*
X198193796Y-109282331D01*
X198244091Y-109147483D01*
X198250500Y-109087873D01*
X198250500Y-106518412D01*
X198250500Y-103912155D01*
X200000000Y-103912155D01*
X200000000Y-106250000D01*
X201000000Y-106250000D01*
X201500000Y-106250000D01*
X202500000Y-106250000D01*
X202500000Y-105893713D01*
X209649500Y-105893713D01*
X209649500Y-106106286D01*
X209667376Y-106219154D01*
X209682754Y-106316243D01*
X209699694Y-106368380D01*
X209748444Y-106518414D01*
X209844951Y-106707820D01*
X209969890Y-106879786D01*
X210120213Y-107030109D01*
X210292179Y-107155048D01*
X210292181Y-107155049D01*
X210292184Y-107155051D01*
X210481588Y-107251557D01*
X210683757Y-107317246D01*
X210893713Y-107350500D01*
X210893714Y-107350500D01*
X211106286Y-107350500D01*
X211106287Y-107350500D01*
X211316243Y-107317246D01*
X211518412Y-107251557D01*
X211707816Y-107155051D01*
X211729789Y-107139086D01*
X211879786Y-107030109D01*
X211879788Y-107030106D01*
X211879792Y-107030104D01*
X212030104Y-106879792D01*
X212030106Y-106879788D01*
X212030109Y-106879786D01*
X212155048Y-106707820D01*
X212155047Y-106707820D01*
X212155051Y-106707816D01*
X212251557Y-106518412D01*
X212317246Y-106316243D01*
X212350500Y-106106287D01*
X212350500Y-105893713D01*
X212317246Y-105683757D01*
X212251557Y-105481588D01*
X212155051Y-105292184D01*
X212155049Y-105292181D01*
X212155048Y-105292179D01*
X212030109Y-105120213D01*
X211879786Y-104969890D01*
X211707820Y-104844951D01*
X211518414Y-104748444D01*
X211518413Y-104748443D01*
X211518412Y-104748443D01*
X211316243Y-104682754D01*
X211316241Y-104682753D01*
X211316240Y-104682753D01*
X211154957Y-104657208D01*
X211106287Y-104649500D01*
X210893713Y-104649500D01*
X210845042Y-104657208D01*
X210683760Y-104682753D01*
X210481585Y-104748444D01*
X210292179Y-104844951D01*
X210120213Y-104969890D01*
X209969890Y-105120213D01*
X209844951Y-105292179D01*
X209748444Y-105481585D01*
X209682753Y-105683760D01*
X209649500Y-105893713D01*
X202500000Y-105893713D01*
X202500000Y-103912172D01*
X202499999Y-103912155D01*
X202493598Y-103852627D01*
X202493596Y-103852620D01*
X202443354Y-103717913D01*
X202443350Y-103717906D01*
X202357190Y-103602812D01*
X202357187Y-103602809D01*
X202242093Y-103516649D01*
X202242086Y-103516645D01*
X202107379Y-103466403D01*
X202107372Y-103466401D01*
X202047844Y-103460000D01*
X201500000Y-103460000D01*
X201500000Y-106250000D01*
X201000000Y-106250000D01*
X201000000Y-103460000D01*
X200452155Y-103460000D01*
X200392627Y-103466401D01*
X200392620Y-103466403D01*
X200257913Y-103516645D01*
X200257906Y-103516649D01*
X200142812Y-103602809D01*
X200142809Y-103602812D01*
X200056649Y-103717906D01*
X200056645Y-103717913D01*
X200006403Y-103852620D01*
X200006401Y-103852627D01*
X200000000Y-103912155D01*
X198250500Y-103912155D01*
X198250500Y-99151085D01*
X198270185Y-99084046D01*
X198322989Y-99038291D01*
X198335489Y-99033381D01*
X198444334Y-98997314D01*
X198593656Y-98905212D01*
X198717712Y-98781156D01*
X198809814Y-98631834D01*
X198864999Y-98465297D01*
X198875500Y-98362509D01*
X198875499Y-97637492D01*
X198864999Y-97534703D01*
X198809814Y-97368166D01*
X198717712Y-97218844D01*
X198593656Y-97094788D01*
X198444334Y-97002686D01*
X198277797Y-96947501D01*
X198277795Y-96947500D01*
X198175010Y-96937000D01*
X196824998Y-96937000D01*
X196824981Y-96937001D01*
X196722203Y-96947500D01*
X196722200Y-96947501D01*
X196555668Y-97002685D01*
X196555663Y-97002687D01*
X196406342Y-97094789D01*
X196282289Y-97218842D01*
X196190187Y-97368163D01*
X196190186Y-97368166D01*
X196135001Y-97534703D01*
X196135001Y-97534704D01*
X196135000Y-97534704D01*
X196124500Y-97637483D01*
X196124500Y-98362501D01*
X196124501Y-98362519D01*
X196135000Y-98465296D01*
X196135001Y-98465299D01*
X196190185Y-98631831D01*
X196190187Y-98631836D01*
X196205291Y-98656324D01*
X196282288Y-98781156D01*
X196406344Y-98905212D01*
X196555666Y-98997314D01*
X196664505Y-99033379D01*
X196721949Y-99073152D01*
X196748772Y-99137667D01*
X196749500Y-99151085D01*
X196749500Y-103335500D01*
X196729815Y-103402539D01*
X196677011Y-103448294D01*
X196625500Y-103459500D01*
X196202129Y-103459500D01*
X196202123Y-103459501D01*
X196142516Y-103465908D01*
X196007671Y-103516202D01*
X196007664Y-103516206D01*
X195892455Y-103602452D01*
X195892452Y-103602455D01*
X195806206Y-103717664D01*
X195806202Y-103717671D01*
X195755908Y-103852517D01*
X195749501Y-103912116D01*
X195749500Y-103912135D01*
X195749500Y-109087870D01*
X195749501Y-109087876D01*
X195755908Y-109147483D01*
X195806202Y-109282328D01*
X195806204Y-109282331D01*
X195820321Y-109301189D01*
X195844738Y-109366654D01*
X195829886Y-109434927D01*
X195780481Y-109484332D01*
X195721054Y-109499500D01*
X194028322Y-109499500D01*
X193961283Y-109479815D01*
X193915528Y-109427011D01*
X193905584Y-109357853D01*
X193929055Y-109301190D01*
X193943350Y-109282093D01*
X193943354Y-109282086D01*
X193993596Y-109147379D01*
X193993598Y-109147372D01*
X193999999Y-109087844D01*
X194000000Y-109087827D01*
X194000000Y-106750000D01*
X191500000Y-106750000D01*
X191500000Y-109087844D01*
X191506401Y-109147372D01*
X191506403Y-109147379D01*
X191556645Y-109282086D01*
X191556649Y-109282093D01*
X191570945Y-109301190D01*
X191595362Y-109366654D01*
X191580510Y-109434927D01*
X191531105Y-109484332D01*
X191471678Y-109499500D01*
X165624500Y-109499500D01*
X165557461Y-109479815D01*
X165511706Y-109427011D01*
X165500500Y-109375500D01*
X165500500Y-105893713D01*
X166649500Y-105893713D01*
X166649500Y-106106286D01*
X166667376Y-106219154D01*
X166682754Y-106316243D01*
X166699694Y-106368380D01*
X166748444Y-106518414D01*
X166844951Y-106707820D01*
X166969890Y-106879786D01*
X167120213Y-107030109D01*
X167292179Y-107155048D01*
X167292181Y-107155049D01*
X167292184Y-107155051D01*
X167481588Y-107251557D01*
X167683757Y-107317246D01*
X167893713Y-107350500D01*
X167893714Y-107350500D01*
X168106286Y-107350500D01*
X168106287Y-107350500D01*
X168316243Y-107317246D01*
X168518412Y-107251557D01*
X168707816Y-107155051D01*
X168729789Y-107139086D01*
X168879786Y-107030109D01*
X168879788Y-107030106D01*
X168879792Y-107030104D01*
X169030104Y-106879792D01*
X169030106Y-106879788D01*
X169030109Y-106879786D01*
X169155048Y-106707820D01*
X169155047Y-106707820D01*
X169155051Y-106707816D01*
X169251557Y-106518412D01*
X169317246Y-106316243D01*
X169350500Y-106106287D01*
X169350500Y-105893713D01*
X169317246Y-105683757D01*
X169251557Y-105481588D01*
X169155051Y-105292184D01*
X169155049Y-105292181D01*
X169155048Y-105292179D01*
X169030109Y-105120213D01*
X168879786Y-104969890D01*
X168707820Y-104844951D01*
X168518414Y-104748444D01*
X168518413Y-104748443D01*
X168518412Y-104748443D01*
X168316243Y-104682754D01*
X168316241Y-104682753D01*
X168316240Y-104682753D01*
X168154957Y-104657208D01*
X168106287Y-104649500D01*
X167893713Y-104649500D01*
X167845042Y-104657208D01*
X167683760Y-104682753D01*
X167481585Y-104748444D01*
X167292179Y-104844951D01*
X167120213Y-104969890D01*
X166969890Y-105120213D01*
X166844951Y-105292179D01*
X166748444Y-105481585D01*
X166682753Y-105683760D01*
X166649500Y-105893713D01*
X165500500Y-105893713D01*
X165500500Y-95199986D01*
X165925001Y-95199986D01*
X165935494Y-95302697D01*
X165990641Y-95469119D01*
X165990643Y-95469124D01*
X166082684Y-95618345D01*
X166206654Y-95742315D01*
X166355875Y-95834356D01*
X166355880Y-95834358D01*
X166522302Y-95889505D01*
X166522309Y-95889506D01*
X166625019Y-95899999D01*
X166749999Y-95899999D01*
X167250000Y-95899999D01*
X167374972Y-95899999D01*
X167374986Y-95899998D01*
X167477697Y-95889505D01*
X167644119Y-95834358D01*
X167644124Y-95834356D01*
X167793345Y-95742315D01*
X167917315Y-95618345D01*
X168009356Y-95469124D01*
X168009358Y-95469119D01*
X168064505Y-95302697D01*
X168064506Y-95302690D01*
X168074999Y-95199986D01*
X168075000Y-95199973D01*
X168075000Y-94750000D01*
X167250000Y-94750000D01*
X167250000Y-95899999D01*
X166749999Y-95899999D01*
X166750000Y-95899998D01*
X166750000Y-94750000D01*
X165925001Y-94750000D01*
X165925001Y-95199986D01*
X165500500Y-95199986D01*
X165500500Y-93800013D01*
X165925000Y-93800013D01*
X165925000Y-94250000D01*
X166750000Y-94250000D01*
X167250000Y-94250000D01*
X168074999Y-94250000D01*
X168074999Y-93800024D01*
X168074998Y-93800016D01*
X168074995Y-93799983D01*
X168874500Y-93799983D01*
X168874500Y-95200001D01*
X168874501Y-95200018D01*
X168885000Y-95302796D01*
X168885001Y-95302799D01*
X168922860Y-95417048D01*
X168940186Y-95469334D01*
X169032288Y-95618656D01*
X169156344Y-95742712D01*
X169305666Y-95834814D01*
X169472203Y-95889999D01*
X169574991Y-95900500D01*
X170325008Y-95900499D01*
X170325016Y-95900498D01*
X170325019Y-95900498D01*
X170381302Y-95894748D01*
X170427797Y-95889999D01*
X170594334Y-95834814D01*
X170743656Y-95742712D01*
X170867712Y-95618656D01*
X170904259Y-95559402D01*
X170956207Y-95512679D01*
X171009798Y-95500500D01*
X172575500Y-95500500D01*
X172642539Y-95520185D01*
X172688294Y-95572989D01*
X172699500Y-95624500D01*
X172699500Y-96712073D01*
X172679815Y-96779112D01*
X172672148Y-96789760D01*
X172582971Y-96900702D01*
X172498361Y-97071303D01*
X172498359Y-97071307D01*
X172492519Y-97094789D01*
X172452400Y-97256107D01*
X172449500Y-97298879D01*
X172449500Y-98701122D01*
X172449501Y-98701125D01*
X172452399Y-98743886D01*
X172452399Y-98743887D01*
X172482933Y-98866666D01*
X172492519Y-98905212D01*
X172498360Y-98928696D01*
X172582967Y-99099292D01*
X172582969Y-99099295D01*
X172702277Y-99247721D01*
X172702278Y-99247722D01*
X172850704Y-99367030D01*
X172850707Y-99367032D01*
X173021302Y-99451639D01*
X173021303Y-99451639D01*
X173021307Y-99451641D01*
X173206111Y-99497600D01*
X173248877Y-99500500D01*
X174151122Y-99500499D01*
X174193889Y-99497600D01*
X174378693Y-99451641D01*
X174549296Y-99367030D01*
X174697722Y-99247722D01*
X174753353Y-99178514D01*
X174810696Y-99138595D01*
X174880518Y-99136015D01*
X174940651Y-99171594D01*
X174946647Y-99178514D01*
X175002277Y-99247721D01*
X175002278Y-99247722D01*
X175150704Y-99367030D01*
X175180594Y-99381854D01*
X175231907Y-99429275D01*
X175249500Y-99492942D01*
X175249500Y-102675500D01*
X175229815Y-102742539D01*
X175177011Y-102788294D01*
X175125500Y-102799500D01*
X174541971Y-102799500D01*
X174541965Y-102799500D01*
X174541964Y-102799501D01*
X174530316Y-102800536D01*
X174422584Y-102810113D01*
X174226954Y-102866089D01*
X174209030Y-102875452D01*
X174046593Y-102960302D01*
X174046591Y-102960303D01*
X174046590Y-102960304D01*
X173888890Y-103088890D01*
X173760304Y-103246590D01*
X173666089Y-103426954D01*
X173610114Y-103622583D01*
X173610113Y-103622586D01*
X173599500Y-103741966D01*
X173599500Y-104858028D01*
X173599501Y-104858034D01*
X173610113Y-104977415D01*
X173666089Y-105173045D01*
X173666090Y-105173048D01*
X173666091Y-105173049D01*
X173760302Y-105353407D01*
X173794977Y-105395933D01*
X173888890Y-105511109D01*
X173982803Y-105587684D01*
X174046593Y-105639698D01*
X174226951Y-105733909D01*
X174422582Y-105789886D01*
X174541963Y-105800500D01*
X175125500Y-105800499D01*
X175192539Y-105820183D01*
X175238294Y-105872987D01*
X175249500Y-105924499D01*
X175249500Y-106498918D01*
X175249500Y-106498920D01*
X175249499Y-106498920D01*
X175278340Y-106643907D01*
X175278342Y-106643913D01*
X175334914Y-106780491D01*
X175334917Y-106780497D01*
X175335270Y-106781024D01*
X175335293Y-106781099D01*
X175335312Y-106781087D01*
X175401263Y-106879792D01*
X175417051Y-106903420D01*
X175417052Y-106903421D01*
X175975681Y-107462048D01*
X176009166Y-107523371D01*
X176012000Y-107549729D01*
X176012000Y-108175001D01*
X176012001Y-108175019D01*
X176022500Y-108277796D01*
X176022501Y-108277799D01*
X176077685Y-108444331D01*
X176077686Y-108444334D01*
X176169788Y-108593656D01*
X176293844Y-108717712D01*
X176443166Y-108809814D01*
X176609703Y-108864999D01*
X176712491Y-108875500D01*
X177437508Y-108875499D01*
X177437516Y-108875498D01*
X177437519Y-108875498D01*
X177493802Y-108869748D01*
X177540297Y-108864999D01*
X177706834Y-108809814D01*
X177856156Y-108717712D01*
X177980212Y-108593656D01*
X178072314Y-108444334D01*
X178127499Y-108277797D01*
X178138000Y-108175009D01*
X178137999Y-106824992D01*
X178137998Y-106824983D01*
X178937000Y-106824983D01*
X178937000Y-108175001D01*
X178937001Y-108175018D01*
X178947500Y-108277796D01*
X178947501Y-108277799D01*
X179002685Y-108444331D01*
X179002686Y-108444334D01*
X179094788Y-108593656D01*
X179218844Y-108717712D01*
X179368166Y-108809814D01*
X179534703Y-108864999D01*
X179637491Y-108875500D01*
X180362508Y-108875499D01*
X180362516Y-108875498D01*
X180362519Y-108875498D01*
X180418802Y-108869748D01*
X180465297Y-108864999D01*
X180631834Y-108809814D01*
X180781156Y-108717712D01*
X180905212Y-108593656D01*
X180997314Y-108444334D01*
X181052499Y-108277797D01*
X181063000Y-108175009D01*
X181062999Y-107362486D01*
X184625001Y-107362486D01*
X184635494Y-107465197D01*
X184690641Y-107631619D01*
X184690643Y-107631624D01*
X184782684Y-107780845D01*
X184906654Y-107904815D01*
X185055875Y-107996856D01*
X185055880Y-107996858D01*
X185222302Y-108052005D01*
X185222309Y-108052006D01*
X185325019Y-108062499D01*
X185749999Y-108062499D01*
X186250000Y-108062499D01*
X186674972Y-108062499D01*
X186674986Y-108062498D01*
X186777697Y-108052005D01*
X186944119Y-107996858D01*
X186944124Y-107996856D01*
X187093345Y-107904815D01*
X187217315Y-107780845D01*
X187309356Y-107631624D01*
X187309358Y-107631619D01*
X187364505Y-107465197D01*
X187364506Y-107465190D01*
X187374999Y-107362486D01*
X187375000Y-107362473D01*
X187375000Y-107250000D01*
X186250000Y-107250000D01*
X186250000Y-108062499D01*
X185749999Y-108062499D01*
X185750000Y-108062498D01*
X185750000Y-107250000D01*
X184625001Y-107250000D01*
X184625001Y-107362486D01*
X181062999Y-107362486D01*
X181062999Y-106849728D01*
X181082684Y-106782690D01*
X181099313Y-106762053D01*
X181223853Y-106637513D01*
X184625000Y-106637513D01*
X184625000Y-106750000D01*
X185750000Y-106750000D01*
X186250000Y-106750000D01*
X187374999Y-106750000D01*
X187374999Y-106637528D01*
X187374998Y-106637513D01*
X187364505Y-106534802D01*
X187309358Y-106368380D01*
X187309356Y-106368375D01*
X187217315Y-106219154D01*
X187093345Y-106095184D01*
X186944124Y-106003143D01*
X186944119Y-106003141D01*
X186777697Y-105947994D01*
X186777690Y-105947993D01*
X186674986Y-105937500D01*
X186250000Y-105937500D01*
X186250000Y-106750000D01*
X185750000Y-106750000D01*
X185750000Y-105937500D01*
X185325028Y-105937500D01*
X185325012Y-105937501D01*
X185222302Y-105947994D01*
X185055880Y-106003141D01*
X185055875Y-106003143D01*
X184906654Y-106095184D01*
X184782684Y-106219154D01*
X184690643Y-106368375D01*
X184690641Y-106368380D01*
X184635494Y-106534802D01*
X184635493Y-106534809D01*
X184625000Y-106637513D01*
X181223853Y-106637513D01*
X182399549Y-105461818D01*
X182460872Y-105428333D01*
X182487230Y-105425499D01*
X183175002Y-105425499D01*
X183175008Y-105425499D01*
X183277797Y-105414999D01*
X183444334Y-105359814D01*
X183593656Y-105267712D01*
X183717712Y-105143656D01*
X183809814Y-104994334D01*
X183864999Y-104827797D01*
X183875500Y-104725009D01*
X183875499Y-103874992D01*
X183873214Y-103852627D01*
X183864999Y-103772203D01*
X183864998Y-103772200D01*
X183854978Y-103741963D01*
X183809814Y-103605666D01*
X183717712Y-103456344D01*
X183593656Y-103332288D01*
X183500888Y-103275069D01*
X183444336Y-103240187D01*
X183444331Y-103240185D01*
X183442862Y-103239698D01*
X183277797Y-103185001D01*
X183277795Y-103185000D01*
X183175010Y-103174500D01*
X181824998Y-103174500D01*
X181824981Y-103174501D01*
X181722203Y-103185000D01*
X181722200Y-103185001D01*
X181555668Y-103240185D01*
X181555663Y-103240187D01*
X181406342Y-103332289D01*
X181282289Y-103456342D01*
X181190187Y-103605663D01*
X181190185Y-103605668D01*
X181162349Y-103689670D01*
X181135001Y-103772203D01*
X181135001Y-103772204D01*
X181135000Y-103772204D01*
X181124500Y-103874983D01*
X181124500Y-104562769D01*
X181104815Y-104629808D01*
X181088181Y-104650450D01*
X179642666Y-106095964D01*
X179581343Y-106129449D01*
X179567589Y-106131641D01*
X179534708Y-106135000D01*
X179534701Y-106135001D01*
X179368168Y-106190185D01*
X179368163Y-106190187D01*
X179218842Y-106282289D01*
X179094789Y-106406342D01*
X179002687Y-106555663D01*
X179002686Y-106555666D01*
X178947501Y-106722203D01*
X178947501Y-106722204D01*
X178947500Y-106722204D01*
X178937000Y-106824983D01*
X178137998Y-106824983D01*
X178135531Y-106800836D01*
X178127499Y-106722203D01*
X178127498Y-106722200D01*
X178099435Y-106637513D01*
X178072314Y-106555666D01*
X177980212Y-106406344D01*
X177856156Y-106282288D01*
X177706834Y-106190186D01*
X177540297Y-106135001D01*
X177540295Y-106135000D01*
X177437516Y-106124500D01*
X177437509Y-106124500D01*
X176874500Y-106124500D01*
X176865814Y-106121949D01*
X176856853Y-106123238D01*
X176832812Y-106112259D01*
X176807461Y-106104815D01*
X176801533Y-106097974D01*
X176793297Y-106094213D01*
X176779007Y-106071978D01*
X176761706Y-106052011D01*
X176759418Y-106041496D01*
X176755523Y-106035435D01*
X176750500Y-106000500D01*
X176750500Y-105924499D01*
X176770185Y-105857460D01*
X176822989Y-105811705D01*
X176874500Y-105800499D01*
X177458028Y-105800499D01*
X177458036Y-105800499D01*
X177577418Y-105789886D01*
X177773049Y-105733909D01*
X177953407Y-105639698D01*
X178111109Y-105511109D01*
X178239698Y-105353407D01*
X178333909Y-105173049D01*
X178389886Y-104977418D01*
X178400500Y-104858037D01*
X178400499Y-103741964D01*
X178389886Y-103622582D01*
X178345012Y-103465756D01*
X178333910Y-103426954D01*
X178333909Y-103426953D01*
X178333909Y-103426951D01*
X178239698Y-103246593D01*
X178128355Y-103110041D01*
X178111109Y-103088890D01*
X177972269Y-102975682D01*
X177953407Y-102960302D01*
X177773049Y-102866091D01*
X177773048Y-102866090D01*
X177773045Y-102866089D01*
X177647650Y-102830210D01*
X177577418Y-102810114D01*
X177577415Y-102810113D01*
X177577413Y-102810113D01*
X177504631Y-102803642D01*
X177458037Y-102799500D01*
X177458033Y-102799500D01*
X176874500Y-102799500D01*
X176807461Y-102779815D01*
X176761706Y-102727011D01*
X176750500Y-102675500D01*
X176750500Y-101924986D01*
X181125001Y-101924986D01*
X181135494Y-102027697D01*
X181190641Y-102194119D01*
X181190643Y-102194124D01*
X181282684Y-102343345D01*
X181406654Y-102467315D01*
X181555875Y-102559356D01*
X181555880Y-102559358D01*
X181722302Y-102614505D01*
X181722309Y-102614506D01*
X181825019Y-102624999D01*
X182249999Y-102624999D01*
X182750000Y-102624999D01*
X183174972Y-102624999D01*
X183174986Y-102624998D01*
X183277697Y-102614505D01*
X183444119Y-102559358D01*
X183444124Y-102559356D01*
X183593345Y-102467315D01*
X183717315Y-102343345D01*
X183809356Y-102194124D01*
X183809358Y-102194119D01*
X183864505Y-102027697D01*
X183864506Y-102027690D01*
X183874999Y-101924986D01*
X183875000Y-101924973D01*
X183875000Y-101750000D01*
X182750000Y-101750000D01*
X182750000Y-102624999D01*
X182249999Y-102624999D01*
X182250000Y-102624998D01*
X182250000Y-101750000D01*
X181125001Y-101750000D01*
X181125001Y-101924986D01*
X176750500Y-101924986D01*
X176750500Y-99492942D01*
X176770185Y-99425903D01*
X176819406Y-99381854D01*
X176820399Y-99381361D01*
X176849296Y-99367030D01*
X176997722Y-99247722D01*
X177053353Y-99178514D01*
X177110696Y-99138595D01*
X177180518Y-99136015D01*
X177240651Y-99171594D01*
X177246647Y-99178514D01*
X177302277Y-99247721D01*
X177302278Y-99247722D01*
X177450704Y-99367030D01*
X177450707Y-99367032D01*
X177621302Y-99451639D01*
X177621303Y-99451639D01*
X177621307Y-99451641D01*
X177806111Y-99497600D01*
X177848877Y-99500500D01*
X178687769Y-99500499D01*
X178754808Y-99520183D01*
X178775450Y-99536818D01*
X179217048Y-99978415D01*
X179217049Y-99978416D01*
X179291131Y-100052498D01*
X179321585Y-100082952D01*
X179444498Y-100165080D01*
X179444511Y-100165087D01*
X179581082Y-100221656D01*
X179581087Y-100221658D01*
X179581091Y-100221658D01*
X179581092Y-100221659D01*
X179726079Y-100250500D01*
X179726082Y-100250500D01*
X181426909Y-100250500D01*
X181493948Y-100270185D01*
X181539703Y-100322989D01*
X181549647Y-100392147D01*
X181520622Y-100455703D01*
X181492006Y-100480039D01*
X181406654Y-100532684D01*
X181282684Y-100656654D01*
X181190643Y-100805875D01*
X181190641Y-100805880D01*
X181135494Y-100972302D01*
X181135493Y-100972309D01*
X181125000Y-101075013D01*
X181125000Y-101250000D01*
X183874999Y-101250000D01*
X183874999Y-101075028D01*
X183874998Y-101075013D01*
X183864505Y-100972302D01*
X183809358Y-100805880D01*
X183809356Y-100805875D01*
X183717315Y-100656654D01*
X183593345Y-100532684D01*
X183507994Y-100480039D01*
X183461270Y-100428091D01*
X183450047Y-100359128D01*
X183477891Y-100295046D01*
X183535960Y-100256190D01*
X183573091Y-100250500D01*
X184137770Y-100250500D01*
X184204809Y-100270185D01*
X184225451Y-100286819D01*
X186138181Y-102199549D01*
X186171666Y-102260872D01*
X186174500Y-102287230D01*
X186174500Y-102787770D01*
X186165855Y-102817209D01*
X186159332Y-102847197D01*
X186155577Y-102852212D01*
X186154815Y-102854809D01*
X186138185Y-102875446D01*
X186053330Y-102960302D01*
X186037950Y-102975682D01*
X185976626Y-103009166D01*
X185950269Y-103012000D01*
X185324998Y-103012000D01*
X185324980Y-103012001D01*
X185222203Y-103022500D01*
X185222200Y-103022501D01*
X185055668Y-103077685D01*
X185055663Y-103077687D01*
X184906342Y-103169789D01*
X184782289Y-103293842D01*
X184690187Y-103443163D01*
X184690185Y-103443168D01*
X184682486Y-103466403D01*
X184635001Y-103609703D01*
X184635001Y-103609704D01*
X184635000Y-103609704D01*
X184624500Y-103712483D01*
X184624500Y-104437501D01*
X184624501Y-104437519D01*
X184635000Y-104540296D01*
X184635001Y-104540299D01*
X184642447Y-104562769D01*
X184690186Y-104706834D01*
X184782288Y-104856156D01*
X184906344Y-104980212D01*
X185055666Y-105072314D01*
X185222203Y-105127499D01*
X185324991Y-105138000D01*
X186675008Y-105137999D01*
X186777797Y-105127499D01*
X186944334Y-105072314D01*
X187093656Y-104980212D01*
X187217712Y-104856156D01*
X187309814Y-104706834D01*
X187364999Y-104540297D01*
X187375500Y-104437509D01*
X187375499Y-103912155D01*
X191500000Y-103912155D01*
X191500000Y-106250000D01*
X192500000Y-106250000D01*
X193000000Y-106250000D01*
X194000000Y-106250000D01*
X194000000Y-103912172D01*
X193999999Y-103912155D01*
X193993598Y-103852627D01*
X193993596Y-103852620D01*
X193943354Y-103717913D01*
X193943350Y-103717906D01*
X193857190Y-103602812D01*
X193857187Y-103602809D01*
X193742093Y-103516649D01*
X193742086Y-103516645D01*
X193607379Y-103466403D01*
X193607372Y-103466401D01*
X193547844Y-103460000D01*
X193000000Y-103460000D01*
X193000000Y-106250000D01*
X192500000Y-106250000D01*
X192500000Y-103460000D01*
X191952155Y-103460000D01*
X191892627Y-103466401D01*
X191892620Y-103466403D01*
X191757913Y-103516645D01*
X191757906Y-103516649D01*
X191642812Y-103602809D01*
X191642809Y-103602812D01*
X191556649Y-103717906D01*
X191556645Y-103717913D01*
X191506403Y-103852620D01*
X191506401Y-103852627D01*
X191500000Y-103912155D01*
X187375499Y-103912155D01*
X187375499Y-103812229D01*
X187395184Y-103745191D01*
X187411813Y-103724553D01*
X187507952Y-103628415D01*
X187582928Y-103516204D01*
X187590084Y-103505495D01*
X187613518Y-103448920D01*
X187646659Y-103368912D01*
X187675500Y-103223917D01*
X187675500Y-103110041D01*
X187695185Y-103043002D01*
X187747989Y-102997247D01*
X187812103Y-102986683D01*
X187824991Y-102988000D01*
X189175008Y-102987999D01*
X189277797Y-102977499D01*
X189444334Y-102922314D01*
X189593656Y-102830212D01*
X189717712Y-102706156D01*
X189809814Y-102556834D01*
X189864999Y-102390297D01*
X189875500Y-102287509D01*
X189875499Y-101562492D01*
X189864999Y-101459703D01*
X189809814Y-101293166D01*
X189717712Y-101143844D01*
X189593656Y-101019788D01*
X189444334Y-100927686D01*
X189277797Y-100872501D01*
X189277795Y-100872500D01*
X189175010Y-100862000D01*
X187824998Y-100862000D01*
X187824981Y-100862001D01*
X187722203Y-100872500D01*
X187722200Y-100872501D01*
X187555668Y-100927685D01*
X187555663Y-100927687D01*
X187406342Y-101019789D01*
X187331431Y-101094701D01*
X187270108Y-101128186D01*
X187200416Y-101123202D01*
X187156069Y-101094701D01*
X185348048Y-99286680D01*
X185314563Y-99225357D01*
X185319547Y-99155665D01*
X185361419Y-99099732D01*
X185426883Y-99075315D01*
X185435729Y-99074999D01*
X185749999Y-99074999D01*
X185750000Y-99074998D01*
X185750000Y-98250000D01*
X184600001Y-98250000D01*
X184600001Y-98374986D01*
X184610494Y-98477697D01*
X184646547Y-98586496D01*
X184648949Y-98656324D01*
X184613217Y-98716366D01*
X184550697Y-98747559D01*
X184528841Y-98749500D01*
X183971159Y-98749500D01*
X183904120Y-98729815D01*
X183858365Y-98677011D01*
X183848421Y-98607853D01*
X183853453Y-98586496D01*
X183889505Y-98477697D01*
X183889506Y-98477690D01*
X183899999Y-98374986D01*
X183900000Y-98374973D01*
X183900000Y-98250000D01*
X181100001Y-98250000D01*
X181100001Y-98374986D01*
X181110494Y-98477697D01*
X181146547Y-98586496D01*
X181148949Y-98656324D01*
X181113217Y-98716366D01*
X181050697Y-98747559D01*
X181028841Y-98749500D01*
X180162229Y-98749500D01*
X180095190Y-98729815D01*
X180074548Y-98713181D01*
X179586818Y-98225451D01*
X179553333Y-98164128D01*
X179550499Y-98137770D01*
X179550499Y-97625013D01*
X181100000Y-97625013D01*
X181100000Y-97750000D01*
X182250000Y-97750000D01*
X182750000Y-97750000D01*
X183899999Y-97750000D01*
X183899999Y-97625029D01*
X183899998Y-97625013D01*
X184600000Y-97625013D01*
X184600000Y-97750000D01*
X185750000Y-97750000D01*
X185750000Y-96925000D01*
X185300028Y-96925000D01*
X185300012Y-96925001D01*
X185197302Y-96935494D01*
X185030880Y-96990641D01*
X185030875Y-96990643D01*
X184881654Y-97082684D01*
X184757684Y-97206654D01*
X184665643Y-97355875D01*
X184665641Y-97355880D01*
X184610494Y-97522302D01*
X184610493Y-97522309D01*
X184600000Y-97625013D01*
X183899998Y-97625013D01*
X183899998Y-97625012D01*
X183889505Y-97522302D01*
X183834358Y-97355880D01*
X183834356Y-97355875D01*
X183742315Y-97206654D01*
X183618345Y-97082684D01*
X183469124Y-96990643D01*
X183469119Y-96990641D01*
X183302697Y-96935494D01*
X183302690Y-96935493D01*
X183199986Y-96925000D01*
X182750000Y-96925000D01*
X182750000Y-97750000D01*
X182250000Y-97750000D01*
X182250000Y-96925000D01*
X181800028Y-96925000D01*
X181800012Y-96925001D01*
X181697302Y-96935494D01*
X181530880Y-96990641D01*
X181530875Y-96990643D01*
X181381654Y-97082684D01*
X181257684Y-97206654D01*
X181165643Y-97355875D01*
X181165641Y-97355880D01*
X181110494Y-97522302D01*
X181110493Y-97522309D01*
X181100000Y-97625013D01*
X179550499Y-97625013D01*
X179550499Y-97298877D01*
X179550498Y-97298876D01*
X179547600Y-97256111D01*
X179501641Y-97071307D01*
X179467608Y-97002685D01*
X179417032Y-96900707D01*
X179417030Y-96900704D01*
X179297722Y-96752278D01*
X179297721Y-96752277D01*
X179149295Y-96632969D01*
X179149292Y-96632967D01*
X178978696Y-96548360D01*
X178978689Y-96548357D01*
X178818593Y-96508542D01*
X178758286Y-96473260D01*
X178726628Y-96410974D01*
X178733669Y-96341460D01*
X178760836Y-96300530D01*
X179224549Y-95836819D01*
X179285872Y-95803334D01*
X179312230Y-95800500D01*
X179695396Y-95800500D01*
X179742844Y-95809937D01*
X179766503Y-95819737D01*
X179766508Y-95819738D01*
X179766511Y-95819739D01*
X179921153Y-95850499D01*
X179921156Y-95850500D01*
X179921158Y-95850500D01*
X180078844Y-95850500D01*
X180078845Y-95850499D01*
X180160003Y-95834356D01*
X180233488Y-95819739D01*
X180233489Y-95819738D01*
X180233497Y-95819737D01*
X180257155Y-95809937D01*
X180304604Y-95800500D01*
X181163132Y-95800500D01*
X181230171Y-95820185D01*
X181251346Y-95839383D01*
X181252181Y-95838549D01*
X181257288Y-95843656D01*
X181381344Y-95967712D01*
X181530666Y-96059814D01*
X181697203Y-96114999D01*
X181799991Y-96125500D01*
X183200008Y-96125499D01*
X183302797Y-96114999D01*
X183469334Y-96059814D01*
X183618656Y-95967712D01*
X183742712Y-95843656D01*
X183742712Y-95843655D01*
X183747819Y-95838549D01*
X183749705Y-95840435D01*
X183796625Y-95807212D01*
X183836868Y-95800500D01*
X184663132Y-95800500D01*
X184730171Y-95820185D01*
X184751346Y-95839383D01*
X184752181Y-95838549D01*
X184757288Y-95843656D01*
X184881344Y-95967712D01*
X185030666Y-96059814D01*
X185197203Y-96114999D01*
X185299991Y-96125500D01*
X185962769Y-96125499D01*
X186029808Y-96145183D01*
X186050450Y-96161818D01*
X186471586Y-96582954D01*
X186491567Y-96596304D01*
X186545270Y-96632186D01*
X186594505Y-96665084D01*
X186651830Y-96688828D01*
X186657325Y-96691783D01*
X186677924Y-96712116D01*
X186700464Y-96730279D01*
X186702488Y-96736362D01*
X186707051Y-96740866D01*
X186713387Y-96769106D01*
X186722529Y-96796573D01*
X186720943Y-96802785D01*
X186722347Y-96809041D01*
X186712407Y-96836229D01*
X186705250Y-96864273D01*
X186700558Y-96868640D01*
X186698357Y-96874663D01*
X186675297Y-96892160D01*
X186654113Y-96911884D01*
X186647128Y-96913534D01*
X186642697Y-96916897D01*
X186628064Y-96918039D01*
X186598608Y-96925000D01*
X186250000Y-96925000D01*
X186250000Y-97750000D01*
X187399999Y-97750000D01*
X187399999Y-97625028D01*
X187399998Y-97625013D01*
X187389505Y-97522302D01*
X187334358Y-97355880D01*
X187334356Y-97355875D01*
X187242315Y-97206654D01*
X187118345Y-97082684D01*
X186969124Y-96990643D01*
X186962579Y-96987592D01*
X186963701Y-96985184D01*
X186916400Y-96952439D01*
X186889573Y-96887924D01*
X186901884Y-96819148D01*
X186949424Y-96767945D01*
X187012844Y-96750500D01*
X187023917Y-96750500D01*
X187625500Y-96750500D01*
X187692539Y-96770185D01*
X187738294Y-96822989D01*
X187749500Y-96874500D01*
X187749500Y-97848914D01*
X187729815Y-97915953D01*
X187677011Y-97961708D01*
X187664505Y-97966620D01*
X187555666Y-98002686D01*
X187555663Y-98002687D01*
X187406342Y-98094789D01*
X187287451Y-98213681D01*
X187226128Y-98247166D01*
X187199770Y-98250000D01*
X186250000Y-98250000D01*
X186250000Y-99074999D01*
X186699972Y-99074999D01*
X186699986Y-99074998D01*
X186802695Y-99064506D01*
X186961495Y-99011884D01*
X187031324Y-99009482D01*
X187091366Y-99045213D01*
X187122559Y-99107734D01*
X187124500Y-99129589D01*
X187124500Y-99362500D01*
X187124501Y-99362519D01*
X187135000Y-99465296D01*
X187135001Y-99465299D01*
X187190185Y-99631831D01*
X187190186Y-99631834D01*
X187282288Y-99781156D01*
X187406344Y-99905212D01*
X187555666Y-99997314D01*
X187722203Y-100052499D01*
X187824991Y-100063000D01*
X189175008Y-100062999D01*
X189277797Y-100052499D01*
X189444334Y-99997314D01*
X189593656Y-99905212D01*
X189717712Y-99781156D01*
X189809814Y-99631834D01*
X189864999Y-99465297D01*
X189875500Y-99362509D01*
X189875499Y-98637492D01*
X189872471Y-98607853D01*
X189864999Y-98534703D01*
X189864998Y-98534700D01*
X189846109Y-98477697D01*
X189809814Y-98368166D01*
X189717712Y-98218844D01*
X189593656Y-98094788D01*
X189444334Y-98002686D01*
X189383301Y-97982461D01*
X189335495Y-97966620D01*
X189278050Y-97926847D01*
X189251228Y-97862331D01*
X189250500Y-97848914D01*
X189250500Y-95926079D01*
X189221659Y-95781092D01*
X189221658Y-95781091D01*
X189221658Y-95781087D01*
X189205598Y-95742315D01*
X189165087Y-95644511D01*
X189165080Y-95644498D01*
X189082951Y-95521584D01*
X189082948Y-95521580D01*
X188978419Y-95417051D01*
X188978415Y-95417048D01*
X188855501Y-95334919D01*
X188855488Y-95334912D01*
X188718917Y-95278343D01*
X188718907Y-95278340D01*
X188573920Y-95249500D01*
X188573918Y-95249500D01*
X187524500Y-95249500D01*
X187457461Y-95229815D01*
X187411706Y-95177011D01*
X187400500Y-95125500D01*
X187400499Y-94674998D01*
X187400498Y-94674980D01*
X187389999Y-94572203D01*
X187389998Y-94572200D01*
X187337411Y-94413504D01*
X187335009Y-94343676D01*
X187370741Y-94283634D01*
X187433261Y-94252441D01*
X187455117Y-94250500D01*
X188637770Y-94250500D01*
X188704809Y-94270185D01*
X188725451Y-94286819D01*
X189492049Y-95053416D01*
X189596584Y-95157951D01*
X189596587Y-95157953D01*
X189596588Y-95157954D01*
X189719503Y-95240083D01*
X189719506Y-95240085D01*
X189769665Y-95260861D01*
X189776080Y-95263518D01*
X189856088Y-95296659D01*
X189972241Y-95319763D01*
X189995380Y-95324365D01*
X190001081Y-95325500D01*
X190001082Y-95325500D01*
X190001083Y-95325500D01*
X190148918Y-95325500D01*
X191426082Y-95325500D01*
X196001081Y-95325500D01*
X196068120Y-95345185D01*
X196113875Y-95397989D01*
X196124439Y-95436899D01*
X196124501Y-95437505D01*
X196124501Y-95437508D01*
X196133223Y-95522894D01*
X196135001Y-95540296D01*
X196135001Y-95540299D01*
X196165332Y-95631831D01*
X196190186Y-95706834D01*
X196282288Y-95856156D01*
X196406344Y-95980212D01*
X196555666Y-96072314D01*
X196722203Y-96127499D01*
X196824991Y-96138000D01*
X198175008Y-96137999D01*
X198277797Y-96127499D01*
X198444334Y-96072314D01*
X198593656Y-95980212D01*
X198717712Y-95856156D01*
X198809814Y-95706834D01*
X198864999Y-95540297D01*
X198869131Y-95499848D01*
X198875563Y-95436897D01*
X198901959Y-95372205D01*
X198959140Y-95332054D01*
X198998921Y-95325500D01*
X202508742Y-95325500D01*
X202575781Y-95345185D01*
X202621536Y-95397989D01*
X202632100Y-95436898D01*
X202635001Y-95465297D01*
X202635001Y-95465299D01*
X202685716Y-95618345D01*
X202690186Y-95631834D01*
X202782288Y-95781156D01*
X202906344Y-95905212D01*
X203055666Y-95997314D01*
X203222203Y-96052499D01*
X203324991Y-96063000D01*
X204675008Y-96062999D01*
X204777797Y-96052499D01*
X204944334Y-95997314D01*
X205093656Y-95905212D01*
X205217712Y-95781156D01*
X205309814Y-95631834D01*
X205364999Y-95465297D01*
X205375500Y-95362509D01*
X205375499Y-94637492D01*
X205364999Y-94534703D01*
X205309814Y-94368166D01*
X205217712Y-94218844D01*
X205093656Y-94094788D01*
X204944334Y-94002686D01*
X204777797Y-93947501D01*
X204777795Y-93947500D01*
X204675016Y-93937000D01*
X204675009Y-93937000D01*
X204008645Y-93937000D01*
X203941606Y-93917315D01*
X203939754Y-93916102D01*
X203930501Y-93909919D01*
X203930488Y-93909912D01*
X203793917Y-93853343D01*
X203793907Y-93853340D01*
X203648920Y-93824500D01*
X203648918Y-93824500D01*
X198430441Y-93824500D01*
X198363402Y-93804815D01*
X198317647Y-93752011D01*
X198307703Y-93682853D01*
X198324901Y-93635405D01*
X198334814Y-93619334D01*
X198389999Y-93452797D01*
X198400500Y-93350009D01*
X198400499Y-92687229D01*
X198420183Y-92620191D01*
X198436818Y-92599549D01*
X198749549Y-92286819D01*
X198810872Y-92253334D01*
X198837230Y-92250500D01*
X198926082Y-92250500D01*
X199700270Y-92250500D01*
X199767309Y-92270185D01*
X199787951Y-92286819D01*
X199906344Y-92405212D01*
X200055666Y-92497314D01*
X200222203Y-92552499D01*
X200324991Y-92563000D01*
X201675008Y-92562999D01*
X201777797Y-92552499D01*
X201944334Y-92497314D01*
X202093656Y-92405212D01*
X202217712Y-92281156D01*
X202309814Y-92131834D01*
X202364999Y-91965297D01*
X202375500Y-91862509D01*
X202375499Y-91811227D01*
X202381737Y-91789982D01*
X202383317Y-91767894D01*
X202391387Y-91757112D01*
X202395182Y-91744190D01*
X202411919Y-91729686D01*
X202425189Y-91711961D01*
X202437806Y-91707254D01*
X202447985Y-91698435D01*
X202469903Y-91695283D01*
X202490653Y-91687544D01*
X202503813Y-91690406D01*
X202517144Y-91688490D01*
X202537287Y-91697688D01*
X202558926Y-91702396D01*
X202576650Y-91715664D01*
X202580700Y-91717514D01*
X202587180Y-91723547D01*
X202588181Y-91724548D01*
X202621666Y-91785871D01*
X202624500Y-91812229D01*
X202624500Y-92437501D01*
X202624501Y-92437519D01*
X202635000Y-92540296D01*
X202635001Y-92540299D01*
X202690185Y-92706831D01*
X202690187Y-92706836D01*
X202701699Y-92725500D01*
X202782288Y-92856156D01*
X202906344Y-92980212D01*
X203055666Y-93072314D01*
X203222203Y-93127499D01*
X203324991Y-93138000D01*
X204675008Y-93137999D01*
X204777797Y-93127499D01*
X204944334Y-93072314D01*
X205093656Y-92980212D01*
X205217712Y-92856156D01*
X205309814Y-92706834D01*
X205364999Y-92540297D01*
X205375500Y-92437509D01*
X205375499Y-91712492D01*
X205364999Y-91609703D01*
X205309814Y-91443166D01*
X205217712Y-91293844D01*
X205093656Y-91169788D01*
X204946215Y-91078846D01*
X204944336Y-91077687D01*
X204944331Y-91077685D01*
X204907236Y-91065393D01*
X204777797Y-91022501D01*
X204777795Y-91022500D01*
X204675016Y-91012000D01*
X204675009Y-91012000D01*
X204049729Y-91012000D01*
X203982690Y-90992315D01*
X203962048Y-90975681D01*
X202334124Y-89347756D01*
X202300639Y-89286433D01*
X202305623Y-89216741D01*
X202309427Y-89207661D01*
X202309804Y-89206848D01*
X202309814Y-89206834D01*
X202364999Y-89040297D01*
X202375500Y-88937509D01*
X202375499Y-88212492D01*
X202364999Y-88109703D01*
X202309814Y-87943166D01*
X202217712Y-87793844D01*
X202093656Y-87669788D01*
X201944334Y-87577686D01*
X201874499Y-87554545D01*
X201835495Y-87541620D01*
X201815460Y-87527748D01*
X201793297Y-87517627D01*
X201787249Y-87508216D01*
X201778050Y-87501847D01*
X201768695Y-87479345D01*
X201755523Y-87458849D01*
X201753064Y-87441747D01*
X201751228Y-87437331D01*
X201750500Y-87423914D01*
X201750500Y-87304604D01*
X201759939Y-87257151D01*
X201760665Y-87255398D01*
X201769737Y-87233497D01*
X201800500Y-87078842D01*
X201800500Y-86921158D01*
X201800500Y-86921155D01*
X201771167Y-86773692D01*
X201777394Y-86704100D01*
X201820257Y-86648923D01*
X201886146Y-86625678D01*
X201892784Y-86625500D01*
X202561608Y-86625500D01*
X202561608Y-86625499D01*
X202658199Y-86606287D01*
X202682452Y-86601463D01*
X202721398Y-86585331D01*
X202796286Y-86554312D01*
X202847509Y-86520084D01*
X202898733Y-86485858D01*
X202985858Y-86398733D01*
X202985859Y-86398731D01*
X202992925Y-86391665D01*
X202992928Y-86391661D01*
X203358729Y-86025860D01*
X203358733Y-86025858D01*
X203445858Y-85938733D01*
X203514311Y-85836286D01*
X203561463Y-85722452D01*
X203572763Y-85665641D01*
X203580748Y-85625500D01*
X203580748Y-85625494D01*
X203585500Y-85601609D01*
X203585500Y-84772980D01*
X203605185Y-84705941D01*
X203653208Y-84662494D01*
X203667818Y-84655050D01*
X203839786Y-84530109D01*
X203839788Y-84530106D01*
X203839792Y-84530104D01*
X203990104Y-84379792D01*
X203990106Y-84379788D01*
X203990109Y-84379786D01*
X204115048Y-84207820D01*
X204115047Y-84207820D01*
X204115051Y-84207816D01*
X204119514Y-84199054D01*
X204167488Y-84148259D01*
X204235308Y-84131463D01*
X204301444Y-84153999D01*
X204340486Y-84199056D01*
X204344951Y-84207820D01*
X204469890Y-84379786D01*
X204620213Y-84530109D01*
X204792179Y-84655048D01*
X204792181Y-84655049D01*
X204792184Y-84655051D01*
X204981588Y-84751557D01*
X205183757Y-84817246D01*
X205393713Y-84850500D01*
X205393714Y-84850500D01*
X205606286Y-84850500D01*
X205606287Y-84850500D01*
X205816243Y-84817246D01*
X206018412Y-84751557D01*
X206207816Y-84655051D01*
X206254940Y-84620814D01*
X206379786Y-84530109D01*
X206379788Y-84530106D01*
X206379792Y-84530104D01*
X206530104Y-84379792D01*
X206530106Y-84379788D01*
X206530109Y-84379786D01*
X206655048Y-84207820D01*
X206655047Y-84207820D01*
X206655051Y-84207816D01*
X206751557Y-84018412D01*
X206817246Y-83816243D01*
X206850500Y-83606287D01*
X206850500Y-83393713D01*
X206817246Y-83183757D01*
X206751557Y-82981588D01*
X206655051Y-82792184D01*
X206655049Y-82792181D01*
X206655048Y-82792179D01*
X206530109Y-82620213D01*
X206379786Y-82469890D01*
X206207820Y-82344951D01*
X206018414Y-82248444D01*
X206018413Y-82248443D01*
X206018412Y-82248443D01*
X205816243Y-82182754D01*
X205816241Y-82182753D01*
X205816240Y-82182753D01*
X205654957Y-82157208D01*
X205606287Y-82149500D01*
X205393713Y-82149500D01*
X205345042Y-82157208D01*
X205183760Y-82182753D01*
X204981585Y-82248444D01*
X204792179Y-82344951D01*
X204620213Y-82469890D01*
X204469890Y-82620213D01*
X204344949Y-82792182D01*
X204340484Y-82800946D01*
X204292509Y-82851742D01*
X204224688Y-82868536D01*
X204158553Y-82845998D01*
X204119516Y-82800946D01*
X204115050Y-82792182D01*
X203990109Y-82620213D01*
X203839786Y-82469890D01*
X203667820Y-82344951D01*
X203478414Y-82248444D01*
X203478413Y-82248443D01*
X203478412Y-82248443D01*
X203276243Y-82182754D01*
X203276241Y-82182753D01*
X203276240Y-82182753D01*
X203114957Y-82157208D01*
X203066287Y-82149500D01*
X202853713Y-82149500D01*
X202805042Y-82157208D01*
X202643760Y-82182753D01*
X202441585Y-82248444D01*
X202252179Y-82344951D01*
X202080215Y-82469889D01*
X201966673Y-82583431D01*
X201905350Y-82616915D01*
X201835658Y-82611931D01*
X201779725Y-82570059D01*
X201762810Y-82539082D01*
X201713797Y-82407671D01*
X201713793Y-82407664D01*
X201627547Y-82292455D01*
X201627544Y-82292452D01*
X201512335Y-82206206D01*
X201512328Y-82206202D01*
X201377482Y-82155908D01*
X201377483Y-82155908D01*
X201317883Y-82149501D01*
X201317881Y-82149500D01*
X201317873Y-82149500D01*
X201317864Y-82149500D01*
X199522129Y-82149500D01*
X199522123Y-82149501D01*
X199462516Y-82155908D01*
X199327671Y-82206202D01*
X199327664Y-82206206D01*
X199212455Y-82292452D01*
X199212452Y-82292455D01*
X199126206Y-82407664D01*
X199126202Y-82407671D01*
X199075908Y-82542517D01*
X199069501Y-82602116D01*
X199069500Y-82602135D01*
X199069500Y-82625500D01*
X199049815Y-82692539D01*
X198997011Y-82738294D01*
X198945500Y-82749500D01*
X198374500Y-82749500D01*
X198307461Y-82729815D01*
X198261706Y-82677011D01*
X198250500Y-82625500D01*
X198250500Y-73651085D01*
X198270185Y-73584046D01*
X198322989Y-73538291D01*
X198335489Y-73533381D01*
X198444334Y-73497314D01*
X198593656Y-73405212D01*
X198717712Y-73281156D01*
X198809814Y-73131834D01*
X198864999Y-72965297D01*
X198875500Y-72862509D01*
X198875499Y-72137492D01*
X198872311Y-72106287D01*
X198864999Y-72034703D01*
X198864998Y-72034700D01*
X198843268Y-71969124D01*
X198809814Y-71868166D01*
X198717712Y-71718844D01*
X198593656Y-71594788D01*
X198444334Y-71502686D01*
X198277797Y-71447501D01*
X198277795Y-71447500D01*
X198175010Y-71437000D01*
X196824998Y-71437000D01*
X196824981Y-71437001D01*
X196722203Y-71447500D01*
X196722200Y-71447501D01*
X196555668Y-71502685D01*
X196555663Y-71502687D01*
X196406342Y-71594789D01*
X196282289Y-71718842D01*
X196190187Y-71868163D01*
X196190186Y-71868166D01*
X196135001Y-72034703D01*
X196135001Y-72034704D01*
X196135000Y-72034704D01*
X196124500Y-72137483D01*
X196124500Y-72862501D01*
X196124501Y-72862519D01*
X196135000Y-72965296D01*
X196135001Y-72965299D01*
X196183335Y-73111158D01*
X196190186Y-73131834D01*
X196282288Y-73281156D01*
X196406344Y-73405212D01*
X196555666Y-73497314D01*
X196664505Y-73533379D01*
X196721949Y-73573152D01*
X196748772Y-73637667D01*
X196749500Y-73651085D01*
X196749500Y-88548422D01*
X196729815Y-88615461D01*
X196677011Y-88661216D01*
X196607853Y-88671160D01*
X196584821Y-88664842D01*
X196584740Y-88665110D01*
X196578907Y-88663340D01*
X196433920Y-88634500D01*
X196433918Y-88634500D01*
X195710647Y-88634500D01*
X195700898Y-88631637D01*
X195690817Y-88632904D01*
X195667938Y-88621959D01*
X195643608Y-88614815D01*
X195636955Y-88607137D01*
X195627788Y-88602752D01*
X195614457Y-88581173D01*
X195597853Y-88562011D01*
X195596407Y-88551955D01*
X195591067Y-88543311D01*
X195591518Y-88517956D01*
X195587909Y-88492853D01*
X195592163Y-88481750D01*
X195592311Y-88473452D01*
X195607544Y-88441610D01*
X195616081Y-88428833D01*
X195628721Y-88409916D01*
X195665084Y-88355495D01*
X195673166Y-88335984D01*
X195688518Y-88298921D01*
X195688518Y-88298920D01*
X195721659Y-88218912D01*
X195745991Y-88096584D01*
X195750500Y-88073918D01*
X195750500Y-86113585D01*
X195770185Y-86046546D01*
X195822989Y-86000791D01*
X195835489Y-85995881D01*
X195944334Y-85959814D01*
X196093656Y-85867712D01*
X196217712Y-85743656D01*
X196309814Y-85594334D01*
X196364999Y-85427797D01*
X196375500Y-85325009D01*
X196375499Y-84599992D01*
X196374716Y-84592331D01*
X196364999Y-84497203D01*
X196364998Y-84497200D01*
X196351837Y-84457483D01*
X196309814Y-84330666D01*
X196217712Y-84181344D01*
X196093656Y-84057288D01*
X195944334Y-83965186D01*
X195777797Y-83910001D01*
X195777795Y-83910000D01*
X195675010Y-83899500D01*
X194324998Y-83899500D01*
X194324981Y-83899501D01*
X194222203Y-83910000D01*
X194222200Y-83910001D01*
X194055668Y-83965185D01*
X194055663Y-83965187D01*
X193906342Y-84057289D01*
X193782289Y-84181342D01*
X193690187Y-84330663D01*
X193690186Y-84330666D01*
X193635001Y-84497203D01*
X193635001Y-84497204D01*
X193635000Y-84497204D01*
X193624500Y-84599983D01*
X193624500Y-85325001D01*
X193624501Y-85325019D01*
X193635000Y-85427796D01*
X193635001Y-85427799D01*
X193690185Y-85594331D01*
X193690187Y-85594336D01*
X193709409Y-85625500D01*
X193782288Y-85743656D01*
X193906344Y-85867712D01*
X194055666Y-85959814D01*
X194164505Y-85995879D01*
X194221949Y-86035652D01*
X194248772Y-86100167D01*
X194249500Y-86113585D01*
X194249500Y-87240500D01*
X194229815Y-87307539D01*
X194177011Y-87353294D01*
X194125500Y-87364500D01*
X193605200Y-87364500D01*
X193538161Y-87344815D01*
X193492406Y-87292011D01*
X193482462Y-87222853D01*
X193486124Y-87205905D01*
X193517597Y-87097573D01*
X193517598Y-87097567D01*
X193519071Y-87078846D01*
X193520500Y-87060694D01*
X193520500Y-86629306D01*
X193517598Y-86592431D01*
X193515535Y-86585331D01*
X193471745Y-86434606D01*
X193471744Y-86434603D01*
X193471744Y-86434602D01*
X193388081Y-86293135D01*
X193388079Y-86293133D01*
X193388076Y-86293129D01*
X193286819Y-86191872D01*
X193253334Y-86130549D01*
X193250500Y-86104191D01*
X193250500Y-85544894D01*
X193270185Y-85477855D01*
X193271357Y-85476063D01*
X193277084Y-85467494D01*
X193333658Y-85330913D01*
X193347965Y-85258988D01*
X193362500Y-85185919D01*
X193362500Y-85038080D01*
X193333659Y-84893093D01*
X193333658Y-84893092D01*
X193333658Y-84893088D01*
X193313363Y-84844091D01*
X193277086Y-84756509D01*
X193253641Y-84721421D01*
X193242185Y-84699989D01*
X193209394Y-84620821D01*
X193195481Y-84599998D01*
X193121789Y-84489710D01*
X193010292Y-84378213D01*
X193010288Y-84378210D01*
X192879185Y-84290609D01*
X192879172Y-84290602D01*
X192733501Y-84230264D01*
X192733489Y-84230261D01*
X192578845Y-84199500D01*
X192578842Y-84199500D01*
X192421158Y-84199500D01*
X192421155Y-84199500D01*
X192266510Y-84230261D01*
X192266498Y-84230264D01*
X192120827Y-84290602D01*
X192120814Y-84290609D01*
X191989711Y-84378210D01*
X191989707Y-84378213D01*
X191878213Y-84489707D01*
X191878210Y-84489711D01*
X191790609Y-84620814D01*
X191790602Y-84620827D01*
X191730264Y-84766498D01*
X191730261Y-84766510D01*
X191699500Y-84921153D01*
X191699500Y-85078846D01*
X191730261Y-85233489D01*
X191730263Y-85233497D01*
X191740061Y-85257151D01*
X191749500Y-85304604D01*
X191749500Y-85920500D01*
X191729815Y-85987539D01*
X191677011Y-86033294D01*
X191625500Y-86044500D01*
X191154298Y-86044500D01*
X191117432Y-86047401D01*
X191117426Y-86047402D01*
X190959606Y-86093254D01*
X190959603Y-86093255D01*
X190818137Y-86176917D01*
X190818129Y-86176923D01*
X190701923Y-86293129D01*
X190701917Y-86293137D01*
X190618255Y-86434603D01*
X190618254Y-86434606D01*
X190572402Y-86592426D01*
X190572401Y-86592432D01*
X190569500Y-86629300D01*
X190569459Y-86630357D01*
X190569404Y-86630518D01*
X190569309Y-86631733D01*
X190569003Y-86631708D01*
X190547164Y-86696574D01*
X190492608Y-86740225D01*
X190445554Y-86749500D01*
X188694446Y-86749500D01*
X188627407Y-86729815D01*
X188581652Y-86677011D01*
X188570865Y-86631719D01*
X188570691Y-86631733D01*
X188570603Y-86630618D01*
X188570541Y-86630357D01*
X188570500Y-86629313D01*
X188570500Y-86629306D01*
X188567598Y-86592431D01*
X188565535Y-86585331D01*
X188521745Y-86434606D01*
X188521744Y-86434603D01*
X188521744Y-86434602D01*
X188438081Y-86293135D01*
X188438079Y-86293133D01*
X188438076Y-86293129D01*
X188321870Y-86176923D01*
X188321862Y-86176917D01*
X188243457Y-86130549D01*
X188180398Y-86093256D01*
X188180397Y-86093255D01*
X188180396Y-86093255D01*
X188180393Y-86093254D01*
X188022573Y-86047402D01*
X188022567Y-86047401D01*
X187985701Y-86044500D01*
X187985694Y-86044500D01*
X187407230Y-86044500D01*
X187340191Y-86024815D01*
X187319549Y-86008181D01*
X186786819Y-85475451D01*
X186753334Y-85414128D01*
X186750500Y-85387770D01*
X186750500Y-84151085D01*
X186770185Y-84084046D01*
X186822989Y-84038291D01*
X186835489Y-84033381D01*
X186944334Y-83997314D01*
X187093656Y-83905212D01*
X187217712Y-83781156D01*
X187309814Y-83631834D01*
X187364999Y-83465297D01*
X187375500Y-83362509D01*
X187375499Y-82637492D01*
X187373733Y-82620208D01*
X187364999Y-82534703D01*
X187364998Y-82534700D01*
X187343522Y-82469890D01*
X187320358Y-82399986D01*
X193625001Y-82399986D01*
X193635494Y-82502697D01*
X193690641Y-82669119D01*
X193690643Y-82669124D01*
X193782684Y-82818345D01*
X193906654Y-82942315D01*
X194055875Y-83034356D01*
X194055880Y-83034358D01*
X194222302Y-83089505D01*
X194222309Y-83089506D01*
X194325019Y-83099999D01*
X194749999Y-83099999D01*
X195250000Y-83099999D01*
X195674972Y-83099999D01*
X195674986Y-83099998D01*
X195777697Y-83089505D01*
X195944119Y-83034358D01*
X195944124Y-83034356D01*
X196093345Y-82942315D01*
X196217315Y-82818345D01*
X196309356Y-82669124D01*
X196309358Y-82669119D01*
X196364505Y-82502697D01*
X196364506Y-82502690D01*
X196374999Y-82399986D01*
X196375000Y-82399973D01*
X196375000Y-82287500D01*
X195250000Y-82287500D01*
X195250000Y-83099999D01*
X194749999Y-83099999D01*
X194750000Y-83099998D01*
X194750000Y-82287500D01*
X193625001Y-82287500D01*
X193625001Y-82399986D01*
X187320358Y-82399986D01*
X187309814Y-82368166D01*
X187217712Y-82218844D01*
X187093656Y-82094788D01*
X186944334Y-82002686D01*
X186777797Y-81947501D01*
X186777795Y-81947500D01*
X186675010Y-81937000D01*
X185324998Y-81937000D01*
X185324981Y-81937001D01*
X185222203Y-81947500D01*
X185222200Y-81947501D01*
X185055668Y-82002685D01*
X185055663Y-82002687D01*
X184906342Y-82094789D01*
X184782289Y-82218842D01*
X184690187Y-82368163D01*
X184690185Y-82368168D01*
X184677096Y-82407669D01*
X184635001Y-82534703D01*
X184635001Y-82534704D01*
X184635000Y-82534704D01*
X184624500Y-82637483D01*
X184624500Y-83362501D01*
X184624501Y-83362519D01*
X184635000Y-83465296D01*
X184635001Y-83465299D01*
X184681773Y-83606446D01*
X184690186Y-83631834D01*
X184782288Y-83781156D01*
X184906344Y-83905212D01*
X185055666Y-83997314D01*
X185164505Y-84033379D01*
X185221949Y-84073152D01*
X185248772Y-84137667D01*
X185249500Y-84151085D01*
X185249500Y-85823918D01*
X185249500Y-85823920D01*
X185249499Y-85823920D01*
X185278340Y-85968907D01*
X185278343Y-85968917D01*
X185334912Y-86105488D01*
X185334920Y-86105502D01*
X185358947Y-86141460D01*
X185358948Y-86141463D01*
X185417046Y-86228414D01*
X185417052Y-86228421D01*
X185606265Y-86417633D01*
X185639750Y-86478956D01*
X185637661Y-86539907D01*
X185622403Y-86592427D01*
X185622401Y-86592436D01*
X185619500Y-86629298D01*
X185619500Y-87060701D01*
X185622401Y-87097567D01*
X185622402Y-87097573D01*
X185653876Y-87205905D01*
X185653677Y-87275775D01*
X185615735Y-87334445D01*
X185552096Y-87363288D01*
X185534800Y-87364500D01*
X184527384Y-87364500D01*
X184511332Y-87360073D01*
X184496405Y-87360568D01*
X184469563Y-87348556D01*
X184463833Y-87346976D01*
X184461111Y-87345351D01*
X184379179Y-87290606D01*
X184347184Y-87277353D01*
X184339425Y-87272722D01*
X184332932Y-87265712D01*
X184315295Y-87253927D01*
X183286819Y-86225451D01*
X183253334Y-86164128D01*
X183250500Y-86137770D01*
X183250500Y-84576085D01*
X183270185Y-84509046D01*
X183322989Y-84463291D01*
X183335489Y-84458381D01*
X183444334Y-84422314D01*
X183593656Y-84330212D01*
X183717712Y-84206156D01*
X183809814Y-84056834D01*
X183864999Y-83890297D01*
X183875500Y-83787509D01*
X183875499Y-83062492D01*
X183864999Y-82959703D01*
X183809814Y-82793166D01*
X183717712Y-82643844D01*
X183593656Y-82519788D01*
X183444334Y-82427686D01*
X183277797Y-82372501D01*
X183277795Y-82372500D01*
X183175010Y-82362000D01*
X181824998Y-82362000D01*
X181824981Y-82362001D01*
X181722203Y-82372500D01*
X181722200Y-82372501D01*
X181555668Y-82427685D01*
X181555663Y-82427687D01*
X181406342Y-82519789D01*
X181282289Y-82643842D01*
X181190187Y-82793163D01*
X181190186Y-82793166D01*
X181135001Y-82959703D01*
X181135001Y-82959704D01*
X181135000Y-82959704D01*
X181124500Y-83062483D01*
X181124500Y-83787501D01*
X181124501Y-83787519D01*
X181135000Y-83890296D01*
X181135001Y-83890299D01*
X181190185Y-84056831D01*
X181190187Y-84056836D01*
X181195991Y-84066246D01*
X181282288Y-84206156D01*
X181406344Y-84330212D01*
X181555666Y-84422314D01*
X181664505Y-84458379D01*
X181721949Y-84498152D01*
X181748772Y-84562667D01*
X181749500Y-84576085D01*
X181749500Y-85650500D01*
X181729815Y-85717539D01*
X181677011Y-85763294D01*
X181625500Y-85774500D01*
X181336868Y-85774500D01*
X181269829Y-85754815D01*
X181248653Y-85735616D01*
X181247819Y-85736451D01*
X181118657Y-85607289D01*
X181118656Y-85607288D01*
X180969334Y-85515186D01*
X180802797Y-85460001D01*
X180802795Y-85460000D01*
X180700010Y-85449500D01*
X179299998Y-85449500D01*
X179299981Y-85449501D01*
X179197203Y-85460000D01*
X179197200Y-85460001D01*
X179030668Y-85515185D01*
X179030663Y-85515187D01*
X178881342Y-85607289D01*
X178757289Y-85731342D01*
X178665187Y-85880663D01*
X178665185Y-85880668D01*
X178651986Y-85920500D01*
X178610001Y-86047203D01*
X178610001Y-86047204D01*
X178610000Y-86047204D01*
X178599500Y-86149983D01*
X178599500Y-86900001D01*
X178599501Y-86900019D01*
X178610000Y-87002796D01*
X178610001Y-87002799D01*
X178665185Y-87169331D01*
X178665186Y-87169334D01*
X178757288Y-87318656D01*
X178881344Y-87442712D01*
X179030666Y-87534814D01*
X179197203Y-87589999D01*
X179299991Y-87600500D01*
X180700008Y-87600499D01*
X180802797Y-87589999D01*
X180969334Y-87534814D01*
X181118656Y-87442712D01*
X181242712Y-87318656D01*
X181242712Y-87318655D01*
X181247819Y-87313549D01*
X181249705Y-87315435D01*
X181296625Y-87282212D01*
X181336868Y-87275500D01*
X182162770Y-87275500D01*
X182229809Y-87295185D01*
X182250451Y-87311819D01*
X183253927Y-88315295D01*
X183270592Y-88335984D01*
X183276572Y-88345299D01*
X183290606Y-88379179D01*
X183378211Y-88510289D01*
X183390186Y-88522264D01*
X183397405Y-88533508D01*
X183403626Y-88554732D01*
X183414225Y-88574142D01*
X183413262Y-88587604D01*
X183417059Y-88600557D01*
X183410818Y-88621773D01*
X183409241Y-88643834D01*
X183401152Y-88654638D01*
X183397344Y-88667587D01*
X183380622Y-88682063D01*
X183367369Y-88699767D01*
X183354724Y-88704483D01*
X183344519Y-88713318D01*
X183322625Y-88716455D01*
X183301905Y-88724184D01*
X183293059Y-88724500D01*
X181336868Y-88724500D01*
X181269829Y-88704815D01*
X181248653Y-88685616D01*
X181247819Y-88686451D01*
X181118657Y-88557289D01*
X181118656Y-88557288D01*
X180990782Y-88478415D01*
X180969336Y-88465187D01*
X180969331Y-88465185D01*
X180898186Y-88441610D01*
X180802797Y-88410001D01*
X180802795Y-88410000D01*
X180700010Y-88399500D01*
X179299998Y-88399500D01*
X179299981Y-88399501D01*
X179197203Y-88410000D01*
X179197200Y-88410001D01*
X179030668Y-88465185D01*
X179030663Y-88465187D01*
X178881342Y-88557289D01*
X178757289Y-88681342D01*
X178665187Y-88830663D01*
X178665186Y-88830666D01*
X178610001Y-88997203D01*
X178610001Y-88997204D01*
X178610000Y-88997204D01*
X178599500Y-89099983D01*
X178599500Y-89850001D01*
X178599501Y-89850019D01*
X178610000Y-89952796D01*
X178610001Y-89952799D01*
X178665185Y-90119331D01*
X178665187Y-90119336D01*
X178676730Y-90138050D01*
X178757288Y-90268656D01*
X178881344Y-90392712D01*
X179030666Y-90484814D01*
X179197203Y-90539999D01*
X179299991Y-90550500D01*
X179962769Y-90550499D01*
X180029808Y-90570183D01*
X180050450Y-90586818D01*
X183226451Y-93762819D01*
X183259936Y-93824142D01*
X183254952Y-93893834D01*
X183213080Y-93949767D01*
X183147616Y-93974184D01*
X183138770Y-93974500D01*
X181799998Y-93974500D01*
X181799981Y-93974501D01*
X181697203Y-93985000D01*
X181697200Y-93985001D01*
X181530668Y-94040185D01*
X181530663Y-94040187D01*
X181381342Y-94132289D01*
X181252181Y-94261451D01*
X181250294Y-94259564D01*
X181203375Y-94292788D01*
X181163132Y-94299500D01*
X180304604Y-94299500D01*
X180257155Y-94290062D01*
X180233497Y-94280263D01*
X180233493Y-94280262D01*
X180233488Y-94280260D01*
X180078845Y-94249500D01*
X180078842Y-94249500D01*
X179921158Y-94249500D01*
X179921155Y-94249500D01*
X179766511Y-94280260D01*
X179766506Y-94280262D01*
X179766504Y-94280262D01*
X179766503Y-94280263D01*
X179742844Y-94290062D01*
X179695396Y-94299500D01*
X178876080Y-94299500D01*
X178731092Y-94328340D01*
X178731086Y-94328342D01*
X178594508Y-94384914D01*
X178594496Y-94384921D01*
X178545269Y-94417813D01*
X178471588Y-94467044D01*
X178471580Y-94467050D01*
X176475449Y-96463181D01*
X176414126Y-96496666D01*
X176387768Y-96499500D01*
X175548877Y-96499500D01*
X175548874Y-96499501D01*
X175506113Y-96502399D01*
X175506112Y-96502399D01*
X175321303Y-96548360D01*
X175150707Y-96632967D01*
X175150704Y-96632969D01*
X175002280Y-96752276D01*
X175002278Y-96752278D01*
X174987884Y-96770185D01*
X174946647Y-96821486D01*
X174928351Y-96834221D01*
X174913140Y-96850519D01*
X174900231Y-96853796D01*
X174889303Y-96861404D01*
X174867025Y-96862227D01*
X174845419Y-96867713D01*
X174832790Y-96863492D01*
X174819481Y-96863984D01*
X174800293Y-96852630D01*
X174779152Y-96845565D01*
X174763222Y-96830697D01*
X174759349Y-96828405D01*
X174753351Y-96821483D01*
X174727851Y-96789758D01*
X174701194Y-96725173D01*
X174700500Y-96712073D01*
X174700500Y-95630154D01*
X174720185Y-95563115D01*
X174772989Y-95517360D01*
X174785496Y-95512448D01*
X174821552Y-95500500D01*
X174944334Y-95459814D01*
X175093656Y-95367712D01*
X175217712Y-95243656D01*
X175309814Y-95094334D01*
X175364999Y-94927797D01*
X175375500Y-94825009D01*
X175375499Y-93974992D01*
X175375416Y-93974184D01*
X175364999Y-93872203D01*
X175364998Y-93872200D01*
X175341081Y-93800024D01*
X175309814Y-93705666D01*
X175217712Y-93556344D01*
X175093656Y-93432288D01*
X174944334Y-93340186D01*
X174777797Y-93285001D01*
X174777795Y-93285000D01*
X174675010Y-93274500D01*
X173324998Y-93274500D01*
X173324981Y-93274501D01*
X173222203Y-93285000D01*
X173222200Y-93285001D01*
X173055668Y-93340185D01*
X173055663Y-93340187D01*
X172906342Y-93432289D01*
X172875451Y-93463181D01*
X172814128Y-93496666D01*
X172787770Y-93499500D01*
X171009798Y-93499500D01*
X170942759Y-93479815D01*
X170904259Y-93440597D01*
X170899134Y-93432288D01*
X170867712Y-93381344D01*
X170743656Y-93257288D01*
X170594334Y-93165186D01*
X170427797Y-93110001D01*
X170427795Y-93110000D01*
X170325010Y-93099500D01*
X169574998Y-93099500D01*
X169574980Y-93099501D01*
X169472203Y-93110000D01*
X169472200Y-93110001D01*
X169305668Y-93165185D01*
X169305663Y-93165187D01*
X169156342Y-93257289D01*
X169032289Y-93381342D01*
X168940187Y-93530663D01*
X168940185Y-93530668D01*
X168940115Y-93530880D01*
X168885001Y-93697203D01*
X168885001Y-93697204D01*
X168885000Y-93697204D01*
X168874500Y-93799983D01*
X168074995Y-93799983D01*
X168064505Y-93697302D01*
X168009358Y-93530880D01*
X168009356Y-93530875D01*
X167917315Y-93381654D01*
X167793345Y-93257684D01*
X167644124Y-93165643D01*
X167644119Y-93165641D01*
X167477697Y-93110494D01*
X167477690Y-93110493D01*
X167374986Y-93100000D01*
X167250000Y-93100000D01*
X167250000Y-94250000D01*
X166750000Y-94250000D01*
X166750000Y-93100000D01*
X166625027Y-93100000D01*
X166625012Y-93100001D01*
X166522302Y-93110494D01*
X166355880Y-93165641D01*
X166355875Y-93165643D01*
X166206654Y-93257684D01*
X166082684Y-93381654D01*
X165990643Y-93530875D01*
X165990641Y-93530880D01*
X165935494Y-93697302D01*
X165935493Y-93697309D01*
X165925000Y-93800013D01*
X165500500Y-93800013D01*
X165500500Y-87699986D01*
X165925001Y-87699986D01*
X165935494Y-87802697D01*
X165990641Y-87969119D01*
X165990643Y-87969124D01*
X166082684Y-88118345D01*
X166206654Y-88242315D01*
X166355875Y-88334356D01*
X166355880Y-88334358D01*
X166522302Y-88389505D01*
X166522309Y-88389506D01*
X166625019Y-88399999D01*
X166749999Y-88399999D01*
X167250000Y-88399999D01*
X167374972Y-88399999D01*
X167374986Y-88399998D01*
X167477697Y-88389505D01*
X167644119Y-88334358D01*
X167644124Y-88334356D01*
X167793345Y-88242315D01*
X167917315Y-88118345D01*
X168009356Y-87969124D01*
X168009358Y-87969119D01*
X168064505Y-87802697D01*
X168064506Y-87802690D01*
X168074999Y-87699986D01*
X168075000Y-87699973D01*
X168075000Y-87250000D01*
X167250000Y-87250000D01*
X167250000Y-88399999D01*
X166749999Y-88399999D01*
X166750000Y-88399998D01*
X166750000Y-87250000D01*
X165925001Y-87250000D01*
X165925001Y-87699986D01*
X165500500Y-87699986D01*
X165500500Y-86300013D01*
X165925000Y-86300013D01*
X165925000Y-86750000D01*
X166750000Y-86750000D01*
X167250000Y-86750000D01*
X168074999Y-86750000D01*
X168074999Y-86300024D01*
X168074998Y-86300016D01*
X168064505Y-86197302D01*
X168009358Y-86030880D01*
X168009356Y-86030875D01*
X167917315Y-85881654D01*
X167793345Y-85757684D01*
X167644124Y-85665643D01*
X167644119Y-85665641D01*
X167477697Y-85610494D01*
X167477690Y-85610493D01*
X167374986Y-85600000D01*
X167250000Y-85600000D01*
X167250000Y-86750000D01*
X166750000Y-86750000D01*
X166750000Y-85600000D01*
X166625027Y-85600000D01*
X166625012Y-85600001D01*
X166522302Y-85610494D01*
X166355880Y-85665641D01*
X166355875Y-85665643D01*
X166206654Y-85757684D01*
X166082684Y-85881654D01*
X165990643Y-86030875D01*
X165990641Y-86030880D01*
X165935494Y-86197302D01*
X165935493Y-86197309D01*
X165925000Y-86300013D01*
X165500500Y-86300013D01*
X165500500Y-81699986D01*
X165925001Y-81699986D01*
X165935494Y-81802697D01*
X165990641Y-81969119D01*
X165990643Y-81969124D01*
X166082684Y-82118345D01*
X166206654Y-82242315D01*
X166355875Y-82334356D01*
X166355880Y-82334358D01*
X166522302Y-82389505D01*
X166522309Y-82389506D01*
X166625019Y-82399999D01*
X166749999Y-82399999D01*
X167250000Y-82399999D01*
X167374972Y-82399999D01*
X167374986Y-82399998D01*
X167477697Y-82389505D01*
X167644119Y-82334358D01*
X167644124Y-82334356D01*
X167793345Y-82242315D01*
X167917315Y-82118345D01*
X168009356Y-81969124D01*
X168009358Y-81969119D01*
X168064505Y-81802697D01*
X168064506Y-81802690D01*
X168074999Y-81699986D01*
X168075000Y-81699973D01*
X168075000Y-81250000D01*
X167250000Y-81250000D01*
X167250000Y-82399999D01*
X166749999Y-82399999D01*
X166750000Y-82399998D01*
X166750000Y-81250000D01*
X165925001Y-81250000D01*
X165925001Y-81699986D01*
X165500500Y-81699986D01*
X165500500Y-80300013D01*
X165925000Y-80300013D01*
X165925000Y-80750000D01*
X166750000Y-80750000D01*
X167250000Y-80750000D01*
X168074999Y-80750000D01*
X168074999Y-80300024D01*
X168074998Y-80300016D01*
X168074995Y-80299983D01*
X168874500Y-80299983D01*
X168874500Y-81700001D01*
X168874501Y-81700018D01*
X168885000Y-81802796D01*
X168885001Y-81802799D01*
X168940185Y-81969331D01*
X168940187Y-81969336D01*
X168960758Y-82002687D01*
X169032288Y-82118656D01*
X169156344Y-82242712D01*
X169305666Y-82334814D01*
X169472203Y-82389999D01*
X169574991Y-82400500D01*
X170325008Y-82400499D01*
X170325016Y-82400498D01*
X170325019Y-82400498D01*
X170381302Y-82394748D01*
X170427797Y-82389999D01*
X170594334Y-82334814D01*
X170743656Y-82242712D01*
X170867712Y-82118656D01*
X170959814Y-81969334D01*
X171004164Y-81835494D01*
X171043936Y-81778051D01*
X171108451Y-81751228D01*
X171121869Y-81750500D01*
X172525501Y-81750500D01*
X172592540Y-81770185D01*
X172638295Y-81822989D01*
X172649501Y-81874500D01*
X172649501Y-82317876D01*
X172655908Y-82377483D01*
X172706202Y-82512328D01*
X172706206Y-82512335D01*
X172792452Y-82627544D01*
X172792455Y-82627547D01*
X172907664Y-82713793D01*
X172907671Y-82713797D01*
X172950618Y-82729815D01*
X173042517Y-82764091D01*
X173102127Y-82770500D01*
X173112685Y-82770499D01*
X173179723Y-82790179D01*
X173200372Y-82806818D01*
X173870591Y-83477037D01*
X173807007Y-83494075D01*
X173692993Y-83559901D01*
X173599901Y-83652993D01*
X173534075Y-83767007D01*
X173517037Y-83830591D01*
X172884728Y-83198282D01*
X172884727Y-83198282D01*
X172845380Y-83252439D01*
X172748904Y-83441782D01*
X172683242Y-83643869D01*
X172683242Y-83643872D01*
X172650000Y-83853753D01*
X172650000Y-84066246D01*
X172683242Y-84276127D01*
X172683242Y-84276130D01*
X172748904Y-84478217D01*
X172845375Y-84667550D01*
X172884728Y-84721716D01*
X173517037Y-84089408D01*
X173534075Y-84152993D01*
X173599901Y-84267007D01*
X173692993Y-84360099D01*
X173807007Y-84425925D01*
X173870590Y-84442962D01*
X173238282Y-85075269D01*
X173238282Y-85075270D01*
X173292452Y-85114626D01*
X173292451Y-85114626D01*
X173301495Y-85119234D01*
X173352292Y-85167208D01*
X173369087Y-85235029D01*
X173346550Y-85301164D01*
X173301499Y-85340202D01*
X173292182Y-85344949D01*
X173116266Y-85472759D01*
X173115635Y-85471891D01*
X173056581Y-85498359D01*
X173039800Y-85499500D01*
X170351458Y-85499500D01*
X170324339Y-85504894D01*
X170297220Y-85510289D01*
X170297219Y-85510289D01*
X170158167Y-85537947D01*
X170158159Y-85537950D01*
X170104834Y-85560038D01*
X170032351Y-85590061D01*
X169984899Y-85599500D01*
X169574998Y-85599500D01*
X169574980Y-85599501D01*
X169472203Y-85610000D01*
X169472200Y-85610001D01*
X169305668Y-85665185D01*
X169305663Y-85665187D01*
X169156342Y-85757289D01*
X169032289Y-85881342D01*
X168940187Y-86030663D01*
X168940185Y-86030668D01*
X168934640Y-86047402D01*
X168885001Y-86197203D01*
X168885001Y-86197204D01*
X168885000Y-86197204D01*
X168874500Y-86299983D01*
X168874500Y-87700001D01*
X168874501Y-87700018D01*
X168885000Y-87802796D01*
X168885001Y-87802799D01*
X168931514Y-87943163D01*
X168940186Y-87969334D01*
X169032288Y-88118656D01*
X169156344Y-88242712D01*
X169305666Y-88334814D01*
X169472203Y-88389999D01*
X169574991Y-88400500D01*
X170325008Y-88400499D01*
X170325016Y-88400498D01*
X170325019Y-88400498D01*
X170381302Y-88394748D01*
X170427797Y-88389999D01*
X170594334Y-88334814D01*
X170743656Y-88242712D01*
X170867712Y-88118656D01*
X170959814Y-87969334D01*
X171014999Y-87802797D01*
X171025500Y-87700009D01*
X171025500Y-87624500D01*
X171045185Y-87557461D01*
X171097989Y-87511706D01*
X171149500Y-87500500D01*
X172875500Y-87500500D01*
X172942539Y-87520185D01*
X172988294Y-87572989D01*
X172999500Y-87624500D01*
X172999500Y-90505621D01*
X172979815Y-90572660D01*
X172940599Y-90611158D01*
X172906346Y-90632285D01*
X172782289Y-90756342D01*
X172690187Y-90905663D01*
X172690186Y-90905666D01*
X172635001Y-91072203D01*
X172635001Y-91072204D01*
X172635000Y-91072204D01*
X172624500Y-91174983D01*
X172624500Y-92025001D01*
X172624501Y-92025019D01*
X172635000Y-92127796D01*
X172635001Y-92127799D01*
X172663018Y-92212348D01*
X172690186Y-92294334D01*
X172782288Y-92443656D01*
X172906344Y-92567712D01*
X173055666Y-92659814D01*
X173222203Y-92714999D01*
X173324991Y-92725500D01*
X174675008Y-92725499D01*
X174777797Y-92714999D01*
X174944334Y-92659814D01*
X175093656Y-92567712D01*
X175217712Y-92443656D01*
X175309814Y-92294334D01*
X175364999Y-92127797D01*
X175375500Y-92025009D01*
X175375499Y-91174992D01*
X175374967Y-91169788D01*
X175364999Y-91072203D01*
X175364998Y-91072200D01*
X175352609Y-91034812D01*
X175309814Y-90905666D01*
X175217712Y-90756344D01*
X175093656Y-90632288D01*
X175093653Y-90632285D01*
X175059401Y-90611158D01*
X175012678Y-90559210D01*
X175000500Y-90505621D01*
X175000500Y-87460199D01*
X175020185Y-87393160D01*
X175029471Y-87380664D01*
X175155048Y-87207820D01*
X175155047Y-87207820D01*
X175155051Y-87207816D01*
X175251557Y-87018412D01*
X175317246Y-86816243D01*
X175350500Y-86606287D01*
X175350500Y-86393713D01*
X175317246Y-86183757D01*
X175251557Y-85981588D01*
X175155051Y-85792184D01*
X175155049Y-85792181D01*
X175155048Y-85792179D01*
X175030109Y-85620213D01*
X174879786Y-85469890D01*
X174707817Y-85344949D01*
X174698504Y-85340204D01*
X174647707Y-85292230D01*
X174630912Y-85224409D01*
X174653449Y-85158274D01*
X174698507Y-85119232D01*
X174707555Y-85114622D01*
X174761716Y-85075270D01*
X174761717Y-85075270D01*
X174129408Y-84442962D01*
X174192993Y-84425925D01*
X174307007Y-84360099D01*
X174400099Y-84267007D01*
X174465925Y-84152993D01*
X174482962Y-84089408D01*
X175115270Y-84721717D01*
X175115270Y-84721716D01*
X175154622Y-84667554D01*
X175251095Y-84478217D01*
X175316757Y-84276130D01*
X175316757Y-84276127D01*
X175350000Y-84066246D01*
X175350000Y-83853753D01*
X175316757Y-83643872D01*
X175316757Y-83643869D01*
X175251095Y-83441782D01*
X175154624Y-83252449D01*
X175115270Y-83198282D01*
X175115269Y-83198282D01*
X174482962Y-83830590D01*
X174465925Y-83767007D01*
X174400099Y-83652993D01*
X174307007Y-83559901D01*
X174192993Y-83494075D01*
X174129409Y-83477037D01*
X174799627Y-82806818D01*
X174860950Y-82773333D01*
X174887307Y-82770499D01*
X174897872Y-82770499D01*
X174957483Y-82764091D01*
X175092331Y-82713796D01*
X175207546Y-82627546D01*
X175293796Y-82512331D01*
X175344091Y-82377483D01*
X175350500Y-82317873D01*
X175350500Y-81675013D01*
X193625000Y-81675013D01*
X193625000Y-81787500D01*
X194750000Y-81787500D01*
X195250000Y-81787500D01*
X196374999Y-81787500D01*
X196374999Y-81675028D01*
X196374998Y-81675013D01*
X196364505Y-81572302D01*
X196309358Y-81405880D01*
X196309356Y-81405875D01*
X196217315Y-81256654D01*
X196093345Y-81132684D01*
X195944124Y-81040643D01*
X195944119Y-81040641D01*
X195777697Y-80985494D01*
X195777690Y-80985493D01*
X195674986Y-80975000D01*
X195250000Y-80975000D01*
X195250000Y-81787500D01*
X194750000Y-81787500D01*
X194750000Y-80975000D01*
X194325028Y-80975000D01*
X194325012Y-80975001D01*
X194222302Y-80985494D01*
X194055880Y-81040641D01*
X194055875Y-81040643D01*
X193906654Y-81132684D01*
X193782684Y-81256654D01*
X193690643Y-81405875D01*
X193690641Y-81405880D01*
X193635494Y-81572302D01*
X193635493Y-81572309D01*
X193625000Y-81675013D01*
X175350500Y-81675013D01*
X175350499Y-80522128D01*
X175344091Y-80462517D01*
X175334750Y-80437473D01*
X175293797Y-80327671D01*
X175293793Y-80327664D01*
X175207547Y-80212455D01*
X175207544Y-80212452D01*
X175092335Y-80126206D01*
X175092332Y-80126205D01*
X175092331Y-80126204D01*
X175081161Y-80122038D01*
X175025231Y-80080166D01*
X175000816Y-80014701D01*
X175000500Y-80005858D01*
X175000500Y-77994377D01*
X175020185Y-77927338D01*
X175059406Y-77888837D01*
X175093654Y-77867713D01*
X175093653Y-77867713D01*
X175093656Y-77867712D01*
X175217712Y-77743656D01*
X175309814Y-77594334D01*
X175364999Y-77427797D01*
X175375500Y-77325009D01*
X175375499Y-76474992D01*
X175369124Y-76412589D01*
X175364999Y-76372203D01*
X175364998Y-76372200D01*
X175349351Y-76324981D01*
X175309814Y-76205666D01*
X175217712Y-76056344D01*
X175093656Y-75932288D01*
X174944334Y-75840186D01*
X174777797Y-75785001D01*
X174777795Y-75785000D01*
X174675010Y-75774500D01*
X173324998Y-75774500D01*
X173324981Y-75774501D01*
X173222203Y-75785000D01*
X173222200Y-75785001D01*
X173055668Y-75840185D01*
X173055663Y-75840187D01*
X172906342Y-75932289D01*
X172782289Y-76056342D01*
X172690187Y-76205663D01*
X172690186Y-76205666D01*
X172635001Y-76372203D01*
X172635001Y-76372204D01*
X172635000Y-76372204D01*
X172624500Y-76474983D01*
X172624500Y-77325001D01*
X172624501Y-77325019D01*
X172635000Y-77427796D01*
X172635001Y-77427799D01*
X172690185Y-77594331D01*
X172690186Y-77594334D01*
X172739946Y-77675009D01*
X172782289Y-77743657D01*
X172906345Y-77867713D01*
X172940594Y-77888837D01*
X172987320Y-77940784D01*
X172999500Y-77994377D01*
X172999500Y-80005858D01*
X172979815Y-80072897D01*
X172946459Y-80107548D01*
X172933565Y-80116545D01*
X172907669Y-80126204D01*
X172792454Y-80212454D01*
X172788442Y-80217812D01*
X172775004Y-80227190D01*
X172751839Y-80234960D01*
X172730394Y-80246668D01*
X172710591Y-80248796D01*
X172708762Y-80249410D01*
X172707604Y-80249117D01*
X172704045Y-80249500D01*
X171121870Y-80249500D01*
X171054831Y-80229815D01*
X171009076Y-80177011D01*
X171004164Y-80164505D01*
X170985290Y-80107548D01*
X170959814Y-80030666D01*
X170867712Y-79881344D01*
X170743656Y-79757288D01*
X170594334Y-79665186D01*
X170427797Y-79610001D01*
X170427795Y-79610000D01*
X170325010Y-79599500D01*
X169574998Y-79599500D01*
X169574980Y-79599501D01*
X169472203Y-79610000D01*
X169472200Y-79610001D01*
X169305668Y-79665185D01*
X169305663Y-79665187D01*
X169156342Y-79757289D01*
X169032289Y-79881342D01*
X168940187Y-80030663D01*
X168940185Y-80030668D01*
X168940115Y-80030880D01*
X168885001Y-80197203D01*
X168885001Y-80197204D01*
X168885000Y-80197204D01*
X168874500Y-80299983D01*
X168074995Y-80299983D01*
X168064505Y-80197302D01*
X168009358Y-80030880D01*
X168009356Y-80030875D01*
X167917315Y-79881654D01*
X167793345Y-79757684D01*
X167644124Y-79665643D01*
X167644119Y-79665641D01*
X167477697Y-79610494D01*
X167477690Y-79610493D01*
X167374986Y-79600000D01*
X167250000Y-79600000D01*
X167250000Y-80750000D01*
X166750000Y-80750000D01*
X166750000Y-79600000D01*
X166625027Y-79600000D01*
X166625012Y-79600001D01*
X166522302Y-79610494D01*
X166355880Y-79665641D01*
X166355875Y-79665643D01*
X166206654Y-79757684D01*
X166082684Y-79881654D01*
X165990643Y-80030875D01*
X165990641Y-80030880D01*
X165935494Y-80197302D01*
X165935493Y-80197309D01*
X165925000Y-80300013D01*
X165500500Y-80300013D01*
X165500500Y-74699986D01*
X166450001Y-74699986D01*
X166460494Y-74802697D01*
X166515641Y-74969119D01*
X166515643Y-74969124D01*
X166607684Y-75118345D01*
X166731654Y-75242315D01*
X166880875Y-75334356D01*
X166880880Y-75334358D01*
X167047302Y-75389505D01*
X167047309Y-75389506D01*
X167150019Y-75399999D01*
X167274999Y-75399999D01*
X167775000Y-75399999D01*
X167899972Y-75399999D01*
X167899986Y-75399998D01*
X168002697Y-75389505D01*
X168169119Y-75334358D01*
X168169124Y-75334356D01*
X168318345Y-75242315D01*
X168442315Y-75118345D01*
X168534356Y-74969124D01*
X168534358Y-74969119D01*
X168589505Y-74802697D01*
X168589506Y-74802690D01*
X168599999Y-74699986D01*
X168600000Y-74699973D01*
X168600000Y-74250000D01*
X167775000Y-74250000D01*
X167775000Y-75399999D01*
X167274999Y-75399999D01*
X167275000Y-75399998D01*
X167275000Y-74250000D01*
X166450001Y-74250000D01*
X166450001Y-74699986D01*
X165500500Y-74699986D01*
X165500500Y-73300013D01*
X166450000Y-73300013D01*
X166450000Y-73750000D01*
X167275000Y-73750000D01*
X167775000Y-73750000D01*
X168599999Y-73750000D01*
X168599999Y-73300024D01*
X168599998Y-73300016D01*
X168599995Y-73299983D01*
X169399500Y-73299983D01*
X169399500Y-74700001D01*
X169399501Y-74700018D01*
X169410000Y-74802796D01*
X169410001Y-74802799D01*
X169449220Y-74921153D01*
X169465186Y-74969334D01*
X169557288Y-75118656D01*
X169681344Y-75242712D01*
X169830666Y-75334814D01*
X169997203Y-75389999D01*
X170099991Y-75400500D01*
X170850008Y-75400499D01*
X170850016Y-75400498D01*
X170850019Y-75400498D01*
X170906302Y-75394748D01*
X170952797Y-75389999D01*
X171119334Y-75334814D01*
X171268656Y-75242712D01*
X171374550Y-75136818D01*
X171435873Y-75103334D01*
X171462231Y-75100500D01*
X172924336Y-75100500D01*
X172989432Y-75118961D01*
X173055659Y-75159810D01*
X173055660Y-75159810D01*
X173055666Y-75159814D01*
X173222203Y-75214999D01*
X173324991Y-75225500D01*
X174675008Y-75225499D01*
X174777797Y-75214999D01*
X174944334Y-75159814D01*
X175093656Y-75067712D01*
X175217712Y-74943656D01*
X175309814Y-74794334D01*
X175364999Y-74627797D01*
X175375500Y-74525009D01*
X175375499Y-73674992D01*
X175364999Y-73572203D01*
X175309814Y-73405666D01*
X175217712Y-73256344D01*
X175093656Y-73132288D01*
X175093653Y-73132285D01*
X175059401Y-73111158D01*
X175012678Y-73059210D01*
X175000500Y-73005621D01*
X175000500Y-70965673D01*
X175020185Y-70898634D01*
X175046813Y-70869026D01*
X175065178Y-70854263D01*
X175197722Y-70747722D01*
X175249945Y-70682754D01*
X175253353Y-70678514D01*
X175310696Y-70638595D01*
X175380518Y-70636015D01*
X175440651Y-70671594D01*
X175446647Y-70678514D01*
X175502277Y-70747721D01*
X175502278Y-70747722D01*
X175650704Y-70867030D01*
X175680594Y-70881854D01*
X175692255Y-70892631D01*
X175706703Y-70899229D01*
X175717391Y-70915860D01*
X175731907Y-70929275D01*
X175736353Y-70945366D01*
X175744477Y-70958007D01*
X175749500Y-70992942D01*
X175749500Y-71089426D01*
X175740061Y-71136878D01*
X175699225Y-71235464D01*
X175699222Y-71235474D01*
X175668462Y-71390116D01*
X175668462Y-71547809D01*
X175699223Y-71702452D01*
X175699226Y-71702464D01*
X175759564Y-71848135D01*
X175759571Y-71848148D01*
X175847172Y-71979251D01*
X175847175Y-71979255D01*
X175958669Y-72090749D01*
X175958673Y-72090752D01*
X176089776Y-72178353D01*
X176089789Y-72178360D01*
X176189022Y-72219463D01*
X176235465Y-72238700D01*
X176390115Y-72269462D01*
X176390118Y-72269463D01*
X176390120Y-72269463D01*
X176547806Y-72269463D01*
X176547807Y-72269462D01*
X176624114Y-72254283D01*
X176702450Y-72238702D01*
X176702451Y-72238701D01*
X176702459Y-72238700D01*
X176726117Y-72228900D01*
X176734291Y-72227274D01*
X176738631Y-72224486D01*
X176773566Y-72219463D01*
X176806733Y-72219463D01*
X176873772Y-72239148D01*
X176894414Y-72255782D01*
X178538181Y-73899549D01*
X178571666Y-73960872D01*
X178574500Y-73987230D01*
X178574500Y-74675001D01*
X178574501Y-74675019D01*
X178585000Y-74777796D01*
X178585001Y-74777799D01*
X178640185Y-74944331D01*
X178640187Y-74944336D01*
X178655604Y-74969331D01*
X178732288Y-75093656D01*
X178856344Y-75217712D01*
X179005666Y-75309814D01*
X179172203Y-75364999D01*
X179274991Y-75375500D01*
X180125008Y-75375499D01*
X180125016Y-75375498D01*
X180125019Y-75375498D01*
X180181302Y-75369748D01*
X180227797Y-75364999D01*
X180394334Y-75309814D01*
X180543656Y-75217712D01*
X180667712Y-75093656D01*
X180759814Y-74944334D01*
X180814999Y-74777797D01*
X180825500Y-74675009D01*
X180825499Y-73324992D01*
X180825498Y-73324983D01*
X181374500Y-73324983D01*
X181374500Y-74675001D01*
X181374501Y-74675018D01*
X181385000Y-74777796D01*
X181385001Y-74777799D01*
X181440185Y-74944331D01*
X181440187Y-74944336D01*
X181455604Y-74969331D01*
X181532288Y-75093656D01*
X181656344Y-75217712D01*
X181805666Y-75309814D01*
X181972203Y-75364999D01*
X182074991Y-75375500D01*
X182925008Y-75375499D01*
X182925016Y-75375498D01*
X182925019Y-75375498D01*
X182981302Y-75369748D01*
X183027797Y-75364999D01*
X183194334Y-75309814D01*
X183343656Y-75217712D01*
X183467712Y-75093656D01*
X183559814Y-74944334D01*
X183614999Y-74777797D01*
X183619177Y-74736896D01*
X183645573Y-74672207D01*
X183702753Y-74632055D01*
X183742535Y-74625500D01*
X183938394Y-74625500D01*
X184457650Y-74625500D01*
X184524689Y-74645185D01*
X184526541Y-74646398D01*
X184606721Y-74699973D01*
X184620821Y-74709394D01*
X184620823Y-74709395D01*
X184620827Y-74709397D01*
X184758683Y-74766498D01*
X184766503Y-74769737D01*
X184890145Y-74794331D01*
X184921153Y-74800499D01*
X184921156Y-74800500D01*
X184921158Y-74800500D01*
X185078844Y-74800500D01*
X185078845Y-74800499D01*
X185233497Y-74769737D01*
X185379179Y-74709394D01*
X185510289Y-74621789D01*
X185621789Y-74510289D01*
X185709394Y-74379179D01*
X185769737Y-74233497D01*
X185800500Y-74078842D01*
X185800500Y-73921158D01*
X185800500Y-73921155D01*
X185800499Y-73921153D01*
X185769738Y-73766510D01*
X185769737Y-73766503D01*
X185731835Y-73674998D01*
X185709397Y-73620827D01*
X185709390Y-73620814D01*
X185621789Y-73489711D01*
X185621786Y-73489707D01*
X185510292Y-73378213D01*
X185510288Y-73378210D01*
X185379185Y-73290609D01*
X185379172Y-73290602D01*
X185233501Y-73230264D01*
X185233489Y-73230261D01*
X185078845Y-73199500D01*
X185078842Y-73199500D01*
X184921158Y-73199500D01*
X184921155Y-73199500D01*
X184766510Y-73230261D01*
X184766498Y-73230264D01*
X184620827Y-73290602D01*
X184620815Y-73290609D01*
X184526541Y-73353602D01*
X184459864Y-73374480D01*
X184457650Y-73374500D01*
X183742535Y-73374500D01*
X183675496Y-73354815D01*
X183629741Y-73302011D01*
X183619177Y-73263102D01*
X183618663Y-73258071D01*
X183614999Y-73222203D01*
X183559814Y-73055666D01*
X183467712Y-72906344D01*
X183343656Y-72782288D01*
X183250888Y-72725069D01*
X183194336Y-72690187D01*
X183194331Y-72690185D01*
X183192862Y-72689698D01*
X183027797Y-72635001D01*
X183027795Y-72635000D01*
X182980353Y-72630154D01*
X182915662Y-72603758D01*
X182875510Y-72546577D01*
X182872647Y-72476766D01*
X182907981Y-72416489D01*
X182953952Y-72389090D01*
X183119119Y-72334358D01*
X183119124Y-72334356D01*
X183268345Y-72242315D01*
X183392315Y-72118345D01*
X183484356Y-71969124D01*
X183484358Y-71969119D01*
X183539505Y-71802697D01*
X183539506Y-71802690D01*
X183549999Y-71699986D01*
X183550000Y-71699973D01*
X183550000Y-71250000D01*
X181400001Y-71250000D01*
X181400001Y-71699986D01*
X181410494Y-71802697D01*
X181465641Y-71969119D01*
X181465643Y-71969124D01*
X181557684Y-72118345D01*
X181681654Y-72242315D01*
X181830875Y-72334356D01*
X181830880Y-72334358D01*
X182003730Y-72391635D01*
X182003258Y-72393057D01*
X182057744Y-72422578D01*
X182091429Y-72483792D01*
X182086672Y-72553499D01*
X182044983Y-72609569D01*
X181982952Y-72633903D01*
X181972202Y-72635001D01*
X181972200Y-72635001D01*
X181805668Y-72690185D01*
X181805663Y-72690187D01*
X181656342Y-72782289D01*
X181532289Y-72906342D01*
X181440187Y-73055663D01*
X181440185Y-73055668D01*
X181433836Y-73074829D01*
X181385001Y-73222203D01*
X181385001Y-73222204D01*
X181385000Y-73222204D01*
X181374500Y-73324983D01*
X180825498Y-73324983D01*
X180823151Y-73302011D01*
X180814999Y-73222203D01*
X180814998Y-73222200D01*
X180785054Y-73131836D01*
X180759814Y-73055666D01*
X180667712Y-72906344D01*
X180543656Y-72782288D01*
X180450888Y-72725069D01*
X180394336Y-72690187D01*
X180394331Y-72690185D01*
X180392862Y-72689698D01*
X180227797Y-72635001D01*
X180227795Y-72635000D01*
X180125016Y-72624500D01*
X180125009Y-72624500D01*
X180063545Y-72624500D01*
X179996506Y-72604815D01*
X179950751Y-72552011D01*
X179940807Y-72482853D01*
X179969832Y-72419297D01*
X180024541Y-72382794D01*
X180054698Y-72372800D01*
X180169334Y-72334814D01*
X180318656Y-72242712D01*
X180442712Y-72118656D01*
X180534814Y-71969334D01*
X180589999Y-71802797D01*
X180600500Y-71700009D01*
X180600499Y-70300013D01*
X181400000Y-70300013D01*
X181400000Y-70750000D01*
X182225000Y-70750000D01*
X182725000Y-70750000D01*
X183549999Y-70750000D01*
X183549999Y-70300028D01*
X183549998Y-70300013D01*
X183539505Y-70197302D01*
X183484358Y-70030880D01*
X183484356Y-70030875D01*
X183392315Y-69881654D01*
X183268345Y-69757684D01*
X183119124Y-69665643D01*
X183119119Y-69665641D01*
X182952697Y-69610494D01*
X182952690Y-69610493D01*
X182849986Y-69600000D01*
X182725000Y-69600000D01*
X182725000Y-70750000D01*
X182225000Y-70750000D01*
X182225000Y-69600000D01*
X182100027Y-69600000D01*
X182100012Y-69600001D01*
X181997302Y-69610494D01*
X181830880Y-69665641D01*
X181830875Y-69665643D01*
X181681654Y-69757684D01*
X181557684Y-69881654D01*
X181465643Y-70030875D01*
X181465641Y-70030880D01*
X181410494Y-70197302D01*
X181410493Y-70197309D01*
X181400000Y-70300013D01*
X180600499Y-70300013D01*
X180600499Y-70299992D01*
X180589999Y-70197203D01*
X180555597Y-70093386D01*
X180554144Y-70086387D01*
X180556411Y-70058407D01*
X180555446Y-70030350D01*
X180559220Y-70023731D01*
X180559787Y-70016745D01*
X180573301Y-69999043D01*
X180587871Y-69973495D01*
X181462049Y-69099318D01*
X181523372Y-69065833D01*
X181549730Y-69062999D01*
X182175002Y-69062999D01*
X182175008Y-69062999D01*
X182277797Y-69052499D01*
X182444334Y-68997314D01*
X182593656Y-68905212D01*
X182717712Y-68781156D01*
X182717712Y-68781155D01*
X182719458Y-68779410D01*
X182780781Y-68745925D01*
X182850473Y-68750909D01*
X182894820Y-68779410D01*
X186113181Y-71997771D01*
X186146666Y-72059094D01*
X186149500Y-72085452D01*
X186149500Y-72106287D01*
X186154443Y-72137498D01*
X186175344Y-72269463D01*
X186182754Y-72316243D01*
X186237194Y-72483792D01*
X186248444Y-72518414D01*
X186344951Y-72707820D01*
X186469890Y-72879786D01*
X186620213Y-73030109D01*
X186792179Y-73155048D01*
X186792181Y-73155049D01*
X186792184Y-73155051D01*
X186981588Y-73251557D01*
X187183757Y-73317246D01*
X187393713Y-73350500D01*
X187393714Y-73350500D01*
X187505547Y-73350500D01*
X187572586Y-73370185D01*
X187618341Y-73422989D01*
X187628285Y-73492147D01*
X187599260Y-73555703D01*
X187593228Y-73562181D01*
X182014144Y-79141264D01*
X182014138Y-79141272D01*
X181945690Y-79243708D01*
X181945688Y-79243713D01*
X181896205Y-79363177D01*
X181893839Y-79362197D01*
X181861616Y-79411301D01*
X181797786Y-79439718D01*
X181793914Y-79440175D01*
X181722202Y-79447501D01*
X181722200Y-79447501D01*
X181555668Y-79502685D01*
X181555663Y-79502687D01*
X181406342Y-79594789D01*
X181282289Y-79718842D01*
X181190187Y-79868163D01*
X181190185Y-79868168D01*
X181162349Y-79952170D01*
X181135001Y-80034703D01*
X181135001Y-80034704D01*
X181135000Y-80034704D01*
X181124500Y-80137483D01*
X181124500Y-80862501D01*
X181124501Y-80862519D01*
X181135000Y-80965296D01*
X181135001Y-80965299D01*
X181190185Y-81131831D01*
X181190187Y-81131836D01*
X181193680Y-81137499D01*
X181282288Y-81281156D01*
X181406344Y-81405212D01*
X181555666Y-81497314D01*
X181722203Y-81552499D01*
X181824991Y-81563000D01*
X183175008Y-81562999D01*
X183277797Y-81552499D01*
X183444334Y-81497314D01*
X183593656Y-81405212D01*
X183717712Y-81281156D01*
X183809814Y-81131834D01*
X183864999Y-80965297D01*
X183875500Y-80862509D01*
X183875499Y-80437486D01*
X184625001Y-80437486D01*
X184635494Y-80540197D01*
X184690641Y-80706619D01*
X184690643Y-80706624D01*
X184782684Y-80855845D01*
X184906654Y-80979815D01*
X185055875Y-81071856D01*
X185055880Y-81071858D01*
X185222302Y-81127005D01*
X185222309Y-81127006D01*
X185325019Y-81137499D01*
X185749999Y-81137499D01*
X186250000Y-81137499D01*
X186674972Y-81137499D01*
X186674986Y-81137498D01*
X186777697Y-81127005D01*
X186944119Y-81071858D01*
X186944124Y-81071856D01*
X187093345Y-80979815D01*
X187217315Y-80855845D01*
X187309356Y-80706624D01*
X187309358Y-80706619D01*
X187364505Y-80540197D01*
X187364506Y-80540190D01*
X187374999Y-80437486D01*
X187375000Y-80437473D01*
X187375000Y-80325000D01*
X186250000Y-80325000D01*
X186250000Y-81137499D01*
X185749999Y-81137499D01*
X185750000Y-81137498D01*
X185750000Y-80325000D01*
X184625001Y-80325000D01*
X184625001Y-80437486D01*
X183875499Y-80437486D01*
X183875499Y-80137492D01*
X183873920Y-80122039D01*
X183864999Y-80034703D01*
X183864998Y-80034700D01*
X183814283Y-79881654D01*
X183809814Y-79868166D01*
X183717712Y-79718844D01*
X183593656Y-79594788D01*
X183593655Y-79594787D01*
X183577773Y-79584991D01*
X183563935Y-79576456D01*
X183517211Y-79524510D01*
X183505988Y-79455548D01*
X183533831Y-79391465D01*
X183541340Y-79383248D01*
X184587567Y-78337021D01*
X184648888Y-78303538D01*
X184718580Y-78308522D01*
X184774513Y-78350394D01*
X184789806Y-78377249D01*
X184790603Y-78379173D01*
X184790609Y-78379185D01*
X184878210Y-78510288D01*
X184878213Y-78510292D01*
X184989707Y-78621786D01*
X184989711Y-78621789D01*
X185120814Y-78709390D01*
X185120827Y-78709397D01*
X185266496Y-78769734D01*
X185266503Y-78769737D01*
X185274069Y-78771241D01*
X185282945Y-78773008D01*
X185344856Y-78805393D01*
X185379430Y-78866108D01*
X185375691Y-78935878D01*
X185334824Y-78992550D01*
X185271356Y-79017983D01*
X185222302Y-79022994D01*
X185055880Y-79078141D01*
X185055875Y-79078143D01*
X184906654Y-79170184D01*
X184782684Y-79294154D01*
X184690643Y-79443375D01*
X184690641Y-79443380D01*
X184635494Y-79609802D01*
X184635493Y-79609809D01*
X184625000Y-79712513D01*
X184625000Y-79825000D01*
X185750000Y-79825000D01*
X186250000Y-79825000D01*
X187374999Y-79825000D01*
X187374999Y-79712528D01*
X187374998Y-79712513D01*
X187364505Y-79609802D01*
X187309358Y-79443380D01*
X187309356Y-79443375D01*
X187217315Y-79294154D01*
X187093345Y-79170184D01*
X186944124Y-79078143D01*
X186944119Y-79078141D01*
X186777697Y-79022994D01*
X186777690Y-79022993D01*
X186674986Y-79012500D01*
X186250000Y-79012500D01*
X186250000Y-79825000D01*
X185750000Y-79825000D01*
X185750000Y-79026081D01*
X185698538Y-78990428D01*
X185677877Y-78964843D01*
X185656360Y-78940011D01*
X185656042Y-78937804D01*
X185654641Y-78936069D01*
X185651093Y-78903385D01*
X185646416Y-78870853D01*
X185647342Y-78868823D01*
X185647102Y-78866607D01*
X185661787Y-78837194D01*
X185675441Y-78807297D01*
X185677325Y-78806074D01*
X185678313Y-78804096D01*
X185702941Y-78789449D01*
X185728262Y-78773016D01*
X185727870Y-78772068D01*
X185732996Y-78769944D01*
X185733159Y-78769839D01*
X185733488Y-78769738D01*
X185733497Y-78769737D01*
X185879179Y-78709394D01*
X185973459Y-78646398D01*
X185994502Y-78639808D01*
X186013646Y-78628868D01*
X186027192Y-78629572D01*
X186040136Y-78625520D01*
X186042350Y-78625500D01*
X186636607Y-78625500D01*
X186697029Y-78613481D01*
X186757452Y-78601463D01*
X186790792Y-78587652D01*
X186871286Y-78554312D01*
X186937169Y-78510289D01*
X186973733Y-78485858D01*
X187056981Y-78402609D01*
X187059779Y-78400131D01*
X187088141Y-78386799D01*
X187115649Y-78371779D01*
X187120701Y-78371494D01*
X187123011Y-78370409D01*
X187128072Y-78371080D01*
X187154610Y-78369587D01*
X187168699Y-78371026D01*
X187212491Y-78375500D01*
X187937508Y-78375499D01*
X187937516Y-78375498D01*
X187937519Y-78375498D01*
X187995383Y-78369587D01*
X188040297Y-78364999D01*
X188206834Y-78309814D01*
X188356156Y-78217712D01*
X188480212Y-78093656D01*
X188572314Y-77944334D01*
X188627499Y-77777797D01*
X188638000Y-77675009D01*
X188638000Y-77674986D01*
X189437501Y-77674986D01*
X189447994Y-77777697D01*
X189503141Y-77944119D01*
X189503143Y-77944124D01*
X189595184Y-78093345D01*
X189719154Y-78217315D01*
X189868375Y-78309356D01*
X189868380Y-78309358D01*
X190034802Y-78364505D01*
X190034809Y-78364506D01*
X190137519Y-78374999D01*
X190249999Y-78374999D01*
X190750000Y-78374999D01*
X190862472Y-78374999D01*
X190862486Y-78374998D01*
X190965197Y-78364505D01*
X191131619Y-78309358D01*
X191131624Y-78309356D01*
X191280845Y-78217315D01*
X191404815Y-78093345D01*
X191496856Y-77944124D01*
X191496858Y-77944119D01*
X191552005Y-77777697D01*
X191552006Y-77777690D01*
X191562499Y-77674986D01*
X191562500Y-77674973D01*
X191562500Y-77250000D01*
X190750000Y-77250000D01*
X190750000Y-78374999D01*
X190249999Y-78374999D01*
X190250000Y-78374998D01*
X190250000Y-77250000D01*
X189437501Y-77250000D01*
X189437501Y-77674986D01*
X188638000Y-77674986D01*
X188637999Y-76325013D01*
X189437500Y-76325013D01*
X189437500Y-76750000D01*
X190250000Y-76750000D01*
X190750000Y-76750000D01*
X191562499Y-76750000D01*
X191562499Y-76325028D01*
X191562498Y-76325013D01*
X191552005Y-76222302D01*
X191496858Y-76055880D01*
X191496856Y-76055875D01*
X191404815Y-75906654D01*
X191280845Y-75782684D01*
X191131624Y-75690643D01*
X191131619Y-75690641D01*
X190965197Y-75635494D01*
X190965190Y-75635493D01*
X190862486Y-75625000D01*
X190750000Y-75625000D01*
X190750000Y-76750000D01*
X190250000Y-76750000D01*
X190250000Y-75625000D01*
X190137527Y-75625000D01*
X190137512Y-75625001D01*
X190034802Y-75635494D01*
X189868380Y-75690641D01*
X189868375Y-75690643D01*
X189719154Y-75782684D01*
X189595184Y-75906654D01*
X189503143Y-76055875D01*
X189503141Y-76055880D01*
X189447994Y-76222302D01*
X189447993Y-76222309D01*
X189437500Y-76325013D01*
X188637999Y-76325013D01*
X188637999Y-76324992D01*
X188627499Y-76222203D01*
X188572314Y-76055666D01*
X188480212Y-75906344D01*
X188356156Y-75782288D01*
X188206834Y-75690186D01*
X188040297Y-75635001D01*
X188040295Y-75635000D01*
X187937516Y-75624500D01*
X187937509Y-75624500D01*
X187599451Y-75624500D01*
X187532412Y-75604815D01*
X187486657Y-75552011D01*
X187476713Y-75482853D01*
X187505738Y-75419297D01*
X187511770Y-75412819D01*
X188546379Y-74378210D01*
X189582162Y-73342426D01*
X189643483Y-73308943D01*
X189708162Y-73312179D01*
X189723757Y-73317246D01*
X189933713Y-73350500D01*
X189933714Y-73350500D01*
X190146286Y-73350500D01*
X190146287Y-73350500D01*
X190356243Y-73317246D01*
X190558412Y-73251557D01*
X190747816Y-73155051D01*
X190919016Y-73030668D01*
X190919784Y-73030110D01*
X190919784Y-73030109D01*
X190919792Y-73030104D01*
X191033329Y-72916566D01*
X191094648Y-72883084D01*
X191164340Y-72888068D01*
X191220274Y-72929939D01*
X191237189Y-72960917D01*
X191286202Y-73092328D01*
X191286206Y-73092335D01*
X191372452Y-73207544D01*
X191372455Y-73207547D01*
X191487664Y-73293793D01*
X191487671Y-73293797D01*
X191522253Y-73306695D01*
X191622517Y-73344091D01*
X191682127Y-73350500D01*
X191942179Y-73350499D01*
X191942791Y-73350678D01*
X191943407Y-73350505D01*
X191976271Y-73360509D01*
X192009218Y-73370183D01*
X192009840Y-73370728D01*
X192010248Y-73370852D01*
X192012219Y-73372810D01*
X192036691Y-73394228D01*
X192041314Y-73399672D01*
X192045320Y-73405666D01*
X192094142Y-73478733D01*
X192181267Y-73565858D01*
X192181270Y-73565860D01*
X192189175Y-73573765D01*
X193674205Y-75058795D01*
X193707690Y-75120118D01*
X193708141Y-75122285D01*
X193730261Y-75233489D01*
X193730264Y-75233501D01*
X193790602Y-75379172D01*
X193790609Y-75379185D01*
X193878210Y-75510288D01*
X193878213Y-75510292D01*
X193989707Y-75621786D01*
X193989711Y-75621789D01*
X194120814Y-75709390D01*
X194120827Y-75709397D01*
X194266498Y-75769735D01*
X194266503Y-75769737D01*
X194421153Y-75800499D01*
X194421156Y-75800500D01*
X194421158Y-75800500D01*
X194578844Y-75800500D01*
X194578845Y-75800499D01*
X194733497Y-75769737D01*
X194879179Y-75709394D01*
X195010289Y-75621789D01*
X195121789Y-75510289D01*
X195209394Y-75379179D01*
X195269737Y-75233497D01*
X195300500Y-75078842D01*
X195300500Y-74921158D01*
X195300500Y-74921155D01*
X195300499Y-74921153D01*
X195269737Y-74766503D01*
X195242180Y-74699973D01*
X195209397Y-74620827D01*
X195209390Y-74620814D01*
X195121789Y-74489711D01*
X195121786Y-74489707D01*
X195010292Y-74378213D01*
X195010288Y-74378210D01*
X194879185Y-74290609D01*
X194879172Y-74290602D01*
X194733501Y-74230264D01*
X194733489Y-74230261D01*
X194622285Y-74208141D01*
X194560374Y-74175756D01*
X194558795Y-74174205D01*
X193776982Y-73392392D01*
X193743497Y-73331069D01*
X193748481Y-73261377D01*
X193782881Y-73215424D01*
X193781275Y-73213818D01*
X193787543Y-73207549D01*
X193787544Y-73207547D01*
X193787546Y-73207546D01*
X193873796Y-73092331D01*
X193924091Y-72957483D01*
X193930500Y-72897873D01*
X193930499Y-71102128D01*
X193924091Y-71042517D01*
X193922810Y-71039083D01*
X193873797Y-70907671D01*
X193873793Y-70907664D01*
X193787547Y-70792455D01*
X193787544Y-70792452D01*
X193672335Y-70706206D01*
X193672328Y-70706202D01*
X193537482Y-70655908D01*
X193537483Y-70655908D01*
X193477883Y-70649501D01*
X193477881Y-70649500D01*
X193477873Y-70649500D01*
X193477864Y-70649500D01*
X191682129Y-70649500D01*
X191682123Y-70649501D01*
X191622516Y-70655908D01*
X191487671Y-70706202D01*
X191487664Y-70706206D01*
X191372455Y-70792452D01*
X191372452Y-70792455D01*
X191286206Y-70907664D01*
X191286203Y-70907669D01*
X191237189Y-71039083D01*
X191195317Y-71095016D01*
X191129853Y-71119433D01*
X191061580Y-71104581D01*
X191033326Y-71083430D01*
X190919786Y-70969890D01*
X190747820Y-70844951D01*
X190558414Y-70748444D01*
X190558413Y-70748443D01*
X190558412Y-70748443D01*
X190356243Y-70682754D01*
X190356241Y-70682753D01*
X190356240Y-70682753D01*
X190194957Y-70657208D01*
X190146287Y-70649500D01*
X189933713Y-70649500D01*
X189885042Y-70657208D01*
X189723760Y-70682753D01*
X189521585Y-70748444D01*
X189332179Y-70844951D01*
X189160213Y-70969890D01*
X189009890Y-71120213D01*
X188884949Y-71292182D01*
X188880484Y-71300946D01*
X188832509Y-71351742D01*
X188764688Y-71368536D01*
X188698553Y-71345998D01*
X188659516Y-71300946D01*
X188655050Y-71292182D01*
X188530109Y-71120213D01*
X188379786Y-70969890D01*
X188207820Y-70844951D01*
X188018414Y-70748444D01*
X188018413Y-70748443D01*
X188018412Y-70748443D01*
X187816243Y-70682754D01*
X187816241Y-70682753D01*
X187816240Y-70682753D01*
X187654957Y-70657208D01*
X187606287Y-70649500D01*
X187393713Y-70649500D01*
X187345042Y-70657208D01*
X187183760Y-70682753D01*
X186981585Y-70748444D01*
X186895215Y-70792452D01*
X186830955Y-70825194D01*
X186762287Y-70838090D01*
X186697546Y-70811814D01*
X186686980Y-70802390D01*
X183493150Y-67608560D01*
X183485860Y-67601270D01*
X183485858Y-67601267D01*
X183398733Y-67514142D01*
X183347509Y-67479915D01*
X183296286Y-67445688D01*
X183296283Y-67445686D01*
X183296280Y-67445685D01*
X183222603Y-67415168D01*
X183222601Y-67415167D01*
X183215792Y-67412347D01*
X183182452Y-67398537D01*
X183122029Y-67386518D01*
X183117306Y-67385578D01*
X183117304Y-67385578D01*
X183061610Y-67374500D01*
X183061607Y-67374500D01*
X183061606Y-67374500D01*
X182882928Y-67374500D01*
X182815889Y-67354815D01*
X182777389Y-67315597D01*
X182717712Y-67218844D01*
X182593656Y-67094788D01*
X182444334Y-67002686D01*
X182277797Y-66947501D01*
X182277795Y-66947500D01*
X182175010Y-66937000D01*
X180824998Y-66937000D01*
X180824981Y-66937001D01*
X180722203Y-66947500D01*
X180722200Y-66947501D01*
X180555668Y-67002685D01*
X180555663Y-67002687D01*
X180406342Y-67094789D01*
X180282289Y-67218842D01*
X180190187Y-67368163D01*
X180190185Y-67368168D01*
X180181231Y-67395191D01*
X180135001Y-67534703D01*
X180135001Y-67534704D01*
X180135000Y-67534704D01*
X180124500Y-67637483D01*
X180124500Y-68262769D01*
X180104815Y-68329808D01*
X180088181Y-68350450D01*
X178942050Y-69496581D01*
X178942044Y-69496589D01*
X178906674Y-69549523D01*
X178906662Y-69549543D01*
X178904075Y-69553416D01*
X178859916Y-69619505D01*
X178839850Y-69667946D01*
X178836153Y-69674499D01*
X178816275Y-69693829D01*
X178798877Y-69715418D01*
X178793258Y-69719098D01*
X178731344Y-69757287D01*
X178607289Y-69881342D01*
X178515187Y-70030663D01*
X178515185Y-70030668D01*
X178496722Y-70086387D01*
X178460001Y-70197203D01*
X178460001Y-70197204D01*
X178460000Y-70197204D01*
X178449500Y-70299983D01*
X178449500Y-70594463D01*
X178429815Y-70661502D01*
X178377011Y-70707257D01*
X178325500Y-70718463D01*
X177757839Y-70718463D01*
X177690800Y-70698778D01*
X177645045Y-70645974D01*
X177635101Y-70576816D01*
X177646751Y-70539368D01*
X177650000Y-70532817D01*
X177701641Y-70428693D01*
X177747600Y-70243889D01*
X177750500Y-70201123D01*
X177750499Y-68798878D01*
X177747600Y-68756111D01*
X177701641Y-68571307D01*
X177650000Y-68467182D01*
X177617032Y-68400707D01*
X177617030Y-68400704D01*
X177497722Y-68252278D01*
X177497721Y-68252277D01*
X177349295Y-68132969D01*
X177349292Y-68132967D01*
X177178697Y-68048360D01*
X176993892Y-68002400D01*
X176972506Y-68000950D01*
X176951123Y-67999500D01*
X176951120Y-67999500D01*
X176048877Y-67999500D01*
X176048874Y-67999501D01*
X176006113Y-68002399D01*
X176006112Y-68002399D01*
X175821303Y-68048360D01*
X175650707Y-68132967D01*
X175650704Y-68132969D01*
X175502278Y-68252277D01*
X175502277Y-68252278D01*
X175446647Y-68321486D01*
X175389304Y-68361405D01*
X175319482Y-68363985D01*
X175259349Y-68328406D01*
X175253353Y-68321486D01*
X175197722Y-68252278D01*
X175197721Y-68252277D01*
X175049295Y-68132969D01*
X175049292Y-68132967D01*
X174878697Y-68048360D01*
X174693892Y-68002400D01*
X174672506Y-68000950D01*
X174651123Y-67999500D01*
X174651120Y-67999500D01*
X173748877Y-67999500D01*
X173748874Y-67999501D01*
X173706113Y-68002399D01*
X173706112Y-68002399D01*
X173521303Y-68048360D01*
X173350707Y-68132967D01*
X173350704Y-68132969D01*
X173202278Y-68252277D01*
X173202277Y-68252278D01*
X173146647Y-68321486D01*
X173089304Y-68361405D01*
X173019482Y-68363985D01*
X172959349Y-68328406D01*
X172953353Y-68321486D01*
X172897722Y-68252278D01*
X172897721Y-68252277D01*
X172749295Y-68132969D01*
X172719405Y-68118145D01*
X172668092Y-68070723D01*
X172650500Y-68007057D01*
X172650500Y-67462230D01*
X172670185Y-67395191D01*
X172686819Y-67374549D01*
X173274549Y-66786819D01*
X173335872Y-66753334D01*
X173362230Y-66750500D01*
X178073920Y-66750500D01*
X178171462Y-66731096D01*
X178218913Y-66721658D01*
X178355495Y-66665084D01*
X178404729Y-66632186D01*
X178478416Y-66582952D01*
X179199548Y-65861818D01*
X179260871Y-65828334D01*
X179287229Y-65825500D01*
X180200270Y-65825500D01*
X180267309Y-65845185D01*
X180287951Y-65861819D01*
X180406344Y-65980212D01*
X180555666Y-66072314D01*
X180722203Y-66127499D01*
X180824991Y-66138000D01*
X182175008Y-66137999D01*
X182277797Y-66127499D01*
X182444334Y-66072314D01*
X182593656Y-65980212D01*
X182712049Y-65861819D01*
X182773372Y-65828334D01*
X182799730Y-65825500D01*
X183373767Y-65825500D01*
X183440806Y-65845185D01*
X183486561Y-65897989D01*
X183491472Y-65910494D01*
X183502686Y-65944334D01*
X183594788Y-66093656D01*
X183718844Y-66217712D01*
X183868166Y-66309814D01*
X184034703Y-66364999D01*
X184137491Y-66375500D01*
X184862508Y-66375499D01*
X184862516Y-66375498D01*
X184862519Y-66375498D01*
X184918802Y-66369748D01*
X184965297Y-66364999D01*
X185131834Y-66309814D01*
X185281156Y-66217712D01*
X185405212Y-66093656D01*
X185497314Y-65944334D01*
X185552499Y-65777797D01*
X185563000Y-65675009D01*
X185563000Y-65674986D01*
X186362501Y-65674986D01*
X186372994Y-65777697D01*
X186428141Y-65944119D01*
X186428143Y-65944124D01*
X186520184Y-66093345D01*
X186644154Y-66217315D01*
X186793375Y-66309356D01*
X186793380Y-66309358D01*
X186959802Y-66364505D01*
X186959809Y-66364506D01*
X187062519Y-66374999D01*
X187174999Y-66374999D01*
X187675000Y-66374999D01*
X187787472Y-66374999D01*
X187787486Y-66374998D01*
X187890197Y-66364505D01*
X188056619Y-66309358D01*
X188056624Y-66309356D01*
X188205845Y-66217315D01*
X188329815Y-66093345D01*
X188418019Y-65950344D01*
X191500000Y-65950344D01*
X191506401Y-66009872D01*
X191506403Y-66009879D01*
X191556645Y-66144586D01*
X191556649Y-66144593D01*
X191642809Y-66259687D01*
X191642812Y-66259690D01*
X191757906Y-66345850D01*
X191757913Y-66345854D01*
X191892620Y-66396096D01*
X191892627Y-66396098D01*
X191952155Y-66402499D01*
X191952172Y-66402500D01*
X192500000Y-66402500D01*
X193000000Y-66402500D01*
X193547828Y-66402500D01*
X193547844Y-66402499D01*
X193607372Y-66396098D01*
X193607379Y-66396096D01*
X193742086Y-66345854D01*
X193742093Y-66345850D01*
X193857187Y-66259690D01*
X193857190Y-66259687D01*
X193943350Y-66144593D01*
X193943354Y-66144586D01*
X193993596Y-66009879D01*
X193993598Y-66009872D01*
X193999999Y-65950344D01*
X194000000Y-65950327D01*
X194000000Y-63612500D01*
X193000000Y-63612500D01*
X193000000Y-66402500D01*
X192500000Y-66402500D01*
X192500000Y-63612500D01*
X191500000Y-63612500D01*
X191500000Y-65950344D01*
X188418019Y-65950344D01*
X188421856Y-65944124D01*
X188421858Y-65944119D01*
X188477005Y-65777697D01*
X188477006Y-65777690D01*
X188487499Y-65674986D01*
X188487500Y-65674973D01*
X188487500Y-65250000D01*
X187675000Y-65250000D01*
X187675000Y-66374999D01*
X187174999Y-66374999D01*
X187175000Y-66374998D01*
X187175000Y-65250000D01*
X186362501Y-65250000D01*
X186362501Y-65674986D01*
X185563000Y-65674986D01*
X185562999Y-64325013D01*
X186362500Y-64325013D01*
X186362500Y-64750000D01*
X187175000Y-64750000D01*
X187675000Y-64750000D01*
X188487499Y-64750000D01*
X188487499Y-64325028D01*
X188487498Y-64325013D01*
X188477005Y-64222302D01*
X188421858Y-64055880D01*
X188421856Y-64055875D01*
X188329815Y-63906654D01*
X188205845Y-63782684D01*
X188056624Y-63690643D01*
X188056619Y-63690641D01*
X188021017Y-63678844D01*
X187890197Y-63635494D01*
X187890190Y-63635493D01*
X187787486Y-63625000D01*
X187675000Y-63625000D01*
X187675000Y-64750000D01*
X187175000Y-64750000D01*
X187175000Y-63625000D01*
X187062527Y-63625000D01*
X187062512Y-63625001D01*
X186959802Y-63635494D01*
X186793380Y-63690641D01*
X186793375Y-63690643D01*
X186644154Y-63782684D01*
X186520184Y-63906654D01*
X186428143Y-64055875D01*
X186428141Y-64055880D01*
X186372994Y-64222302D01*
X186372993Y-64222309D01*
X186362500Y-64325013D01*
X185562999Y-64325013D01*
X185562999Y-64324992D01*
X185552499Y-64222203D01*
X185497314Y-64055666D01*
X185405212Y-63906344D01*
X185281156Y-63782288D01*
X185188388Y-63725069D01*
X185131836Y-63690187D01*
X185131831Y-63690185D01*
X185097606Y-63678844D01*
X184965297Y-63635001D01*
X184965295Y-63635000D01*
X184862510Y-63624500D01*
X184137498Y-63624500D01*
X184137480Y-63624501D01*
X184034703Y-63635000D01*
X184034700Y-63635001D01*
X183868168Y-63690185D01*
X183868163Y-63690187D01*
X183718842Y-63782289D01*
X183594789Y-63906342D01*
X183502687Y-64055663D01*
X183502685Y-64055668D01*
X183447500Y-64222204D01*
X183446588Y-64226467D01*
X183413301Y-64287898D01*
X183352086Y-64321581D01*
X183325337Y-64324500D01*
X182799730Y-64324500D01*
X182732691Y-64304815D01*
X182712049Y-64288181D01*
X182593657Y-64169789D01*
X182593656Y-64169788D01*
X182444334Y-64077686D01*
X182277797Y-64022501D01*
X182277795Y-64022500D01*
X182175010Y-64012000D01*
X180824998Y-64012000D01*
X180824981Y-64012001D01*
X180722203Y-64022500D01*
X180722200Y-64022501D01*
X180555668Y-64077685D01*
X180555663Y-64077687D01*
X180406342Y-64169789D01*
X180287951Y-64288181D01*
X180226628Y-64321666D01*
X180200270Y-64324500D01*
X178851076Y-64324500D01*
X178822242Y-64330234D01*
X178822243Y-64330235D01*
X178706093Y-64353339D01*
X178706083Y-64353342D01*
X178626081Y-64386479D01*
X178626082Y-64386480D01*
X178569506Y-64409915D01*
X178519743Y-64443166D01*
X178446582Y-64492049D01*
X178446579Y-64492052D01*
X177725451Y-65213181D01*
X177664128Y-65246666D01*
X177637770Y-65249500D01*
X172926080Y-65249500D01*
X172781092Y-65278340D01*
X172781082Y-65278343D01*
X172644511Y-65334912D01*
X172644504Y-65334916D01*
X172624021Y-65348602D01*
X172613708Y-65355494D01*
X172521579Y-65417051D01*
X172521578Y-65417052D01*
X171317047Y-66621584D01*
X171317045Y-66621586D01*
X171296271Y-66652678D01*
X171287983Y-66665084D01*
X171287982Y-66665086D01*
X171234914Y-66744507D01*
X171178343Y-66881082D01*
X171178340Y-66881092D01*
X171149500Y-67026079D01*
X171149500Y-68007057D01*
X171129815Y-68074096D01*
X171080595Y-68118145D01*
X171050704Y-68132969D01*
X170902278Y-68252277D01*
X170902277Y-68252278D01*
X170782969Y-68400704D01*
X170782967Y-68400707D01*
X170698360Y-68571302D01*
X170652400Y-68756107D01*
X170652400Y-68756111D01*
X170649842Y-68793842D01*
X170649500Y-68798879D01*
X170649500Y-70201122D01*
X170649501Y-70201125D01*
X170652399Y-70243886D01*
X170652399Y-70243887D01*
X170698360Y-70428696D01*
X170782967Y-70599292D01*
X170782969Y-70599295D01*
X170902277Y-70747721D01*
X170902278Y-70747722D01*
X171050704Y-70867030D01*
X171050707Y-70867032D01*
X171221302Y-70951639D01*
X171221303Y-70951639D01*
X171221307Y-70951641D01*
X171406111Y-70997600D01*
X171448877Y-71000500D01*
X172351122Y-71000499D01*
X172393889Y-70997600D01*
X172578693Y-70951641D01*
X172749296Y-70867030D01*
X172797814Y-70828030D01*
X172862396Y-70801371D01*
X172931140Y-70813861D01*
X172982219Y-70861534D01*
X172999500Y-70924677D01*
X172999500Y-72975500D01*
X172979815Y-73042539D01*
X172927011Y-73088294D01*
X172875500Y-73099500D01*
X171595908Y-73099500D01*
X171528869Y-73079815D01*
X171490363Y-73035728D01*
X171488605Y-73036813D01*
X171469366Y-73005621D01*
X171392712Y-72881344D01*
X171268656Y-72757288D01*
X171119334Y-72665186D01*
X170952797Y-72610001D01*
X170952795Y-72610000D01*
X170850010Y-72599500D01*
X170099998Y-72599500D01*
X170099980Y-72599501D01*
X169997203Y-72610000D01*
X169997200Y-72610001D01*
X169830668Y-72665185D01*
X169830663Y-72665187D01*
X169681342Y-72757289D01*
X169557289Y-72881342D01*
X169465187Y-73030663D01*
X169465185Y-73030668D01*
X169444752Y-73092331D01*
X169410001Y-73197203D01*
X169410001Y-73197204D01*
X169410000Y-73197204D01*
X169399500Y-73299983D01*
X168599995Y-73299983D01*
X168589505Y-73197302D01*
X168534358Y-73030880D01*
X168534356Y-73030875D01*
X168442315Y-72881654D01*
X168318345Y-72757684D01*
X168169124Y-72665643D01*
X168169119Y-72665641D01*
X168002697Y-72610494D01*
X168002690Y-72610493D01*
X167899986Y-72600000D01*
X167775000Y-72600000D01*
X167775000Y-73750000D01*
X167275000Y-73750000D01*
X167275000Y-72600000D01*
X167150027Y-72600000D01*
X167150012Y-72600001D01*
X167047302Y-72610494D01*
X166880880Y-72665641D01*
X166880875Y-72665643D01*
X166731654Y-72757684D01*
X166607684Y-72881654D01*
X166515643Y-73030875D01*
X166515641Y-73030880D01*
X166460494Y-73197302D01*
X166460493Y-73197309D01*
X166450000Y-73300013D01*
X165500500Y-73300013D01*
X165500500Y-62893713D01*
X166649500Y-62893713D01*
X166649500Y-63106286D01*
X166682753Y-63316239D01*
X166748444Y-63518414D01*
X166844951Y-63707820D01*
X166969890Y-63879786D01*
X167120213Y-64030109D01*
X167292179Y-64155048D01*
X167292181Y-64155049D01*
X167292184Y-64155051D01*
X167481588Y-64251557D01*
X167683757Y-64317246D01*
X167893713Y-64350500D01*
X167893714Y-64350500D01*
X168106286Y-64350500D01*
X168106287Y-64350500D01*
X168316243Y-64317246D01*
X168518412Y-64251557D01*
X168707816Y-64155051D01*
X168729789Y-64139086D01*
X168879786Y-64030109D01*
X168879788Y-64030106D01*
X168879792Y-64030104D01*
X169030104Y-63879792D01*
X169030106Y-63879788D01*
X169030109Y-63879786D01*
X169155048Y-63707820D01*
X169155047Y-63707820D01*
X169155051Y-63707816D01*
X169251557Y-63518412D01*
X169317246Y-63316243D01*
X169350500Y-63106287D01*
X169350500Y-62893713D01*
X169317246Y-62683757D01*
X169303667Y-62641966D01*
X171799500Y-62641966D01*
X171799500Y-63758028D01*
X171799501Y-63758034D01*
X171810113Y-63877415D01*
X171866089Y-64073045D01*
X171866090Y-64073048D01*
X171866091Y-64073049D01*
X171960302Y-64253407D01*
X171993274Y-64293844D01*
X172088890Y-64411109D01*
X172182803Y-64487684D01*
X172246593Y-64539698D01*
X172426951Y-64633909D01*
X172622582Y-64689886D01*
X172741963Y-64700500D01*
X175658036Y-64700499D01*
X175777418Y-64689886D01*
X175973049Y-64633909D01*
X176153407Y-64539698D01*
X176311109Y-64411109D01*
X176439698Y-64253407D01*
X176533909Y-64073049D01*
X176589886Y-63877418D01*
X176600500Y-63758037D01*
X176600499Y-62641964D01*
X176589886Y-62522582D01*
X176533909Y-62326951D01*
X176439698Y-62146593D01*
X176387684Y-62082803D01*
X176311109Y-61988890D01*
X176153409Y-61860304D01*
X176153410Y-61860304D01*
X176153407Y-61860302D01*
X175973049Y-61766091D01*
X175973048Y-61766090D01*
X175973045Y-61766089D01*
X175855829Y-61732550D01*
X175777418Y-61710114D01*
X175777415Y-61710113D01*
X175777413Y-61710113D01*
X175711102Y-61704217D01*
X175658037Y-61699500D01*
X175658032Y-61699500D01*
X172741971Y-61699500D01*
X172741965Y-61699500D01*
X172741964Y-61699501D01*
X172730316Y-61700536D01*
X172622584Y-61710113D01*
X172426954Y-61766089D01*
X172336772Y-61813196D01*
X172246593Y-61860302D01*
X172246591Y-61860303D01*
X172246590Y-61860304D01*
X172088890Y-61988890D01*
X171960304Y-62146590D01*
X171866089Y-62326954D01*
X171810114Y-62522583D01*
X171810113Y-62522586D01*
X171799500Y-62641966D01*
X169303667Y-62641966D01*
X169251557Y-62481588D01*
X169155051Y-62292184D01*
X169155049Y-62292181D01*
X169155048Y-62292179D01*
X169030109Y-62120213D01*
X168879786Y-61969890D01*
X168707820Y-61844951D01*
X168518414Y-61748444D01*
X168518413Y-61748443D01*
X168518412Y-61748443D01*
X168316243Y-61682754D01*
X168316241Y-61682753D01*
X168316240Y-61682753D01*
X168154957Y-61657208D01*
X168106287Y-61649500D01*
X167893713Y-61649500D01*
X167845042Y-61657208D01*
X167683760Y-61682753D01*
X167481585Y-61748444D01*
X167292179Y-61844951D01*
X167120213Y-61969890D01*
X166969890Y-62120213D01*
X166844951Y-62292179D01*
X166748444Y-62481585D01*
X166682753Y-62683760D01*
X166649500Y-62893713D01*
X165500500Y-62893713D01*
X165500500Y-60624500D01*
X165520185Y-60557461D01*
X165572989Y-60511706D01*
X165624500Y-60500500D01*
X191407858Y-60500500D01*
X191474897Y-60520185D01*
G37*
%TD.AperFunction*%
%TD*%
M02*
