%TF.GenerationSoftware,KiCad,Pcbnew,9.0.4-9.0.4-0~ubuntu24.04.1*%
%TF.CreationDate,2025-11-05T14:30:20-05:00*%
%TF.ProjectId,LFAmp-offset,4c46416d-702d-46f6-9666-7365742e6b69,rev?*%
%TF.SameCoordinates,Original*%
%TF.FileFunction,Legend,Bot*%
%TF.FilePolarity,Positive*%
%FSLAX46Y46*%
G04 Gerber Fmt 4.6, Leading zero omitted, Abs format (unit mm)*
G04 Created by KiCad (PCBNEW 9.0.4-9.0.4-0~ubuntu24.04.1) date 2025-11-05 14:30:20*
%MOMM*%
%LPD*%
G01*
G04 APERTURE LIST*
%ADD10C,0.150000*%
%ADD11C,0.120000*%
G04 APERTURE END LIST*
D10*
X192209580Y-82858333D02*
X192257200Y-82810714D01*
X192257200Y-82810714D02*
X192304819Y-82667857D01*
X192304819Y-82667857D02*
X192304819Y-82572619D01*
X192304819Y-82572619D02*
X192257200Y-82429762D01*
X192257200Y-82429762D02*
X192161961Y-82334524D01*
X192161961Y-82334524D02*
X192066723Y-82286905D01*
X192066723Y-82286905D02*
X191876247Y-82239286D01*
X191876247Y-82239286D02*
X191733390Y-82239286D01*
X191733390Y-82239286D02*
X191542914Y-82286905D01*
X191542914Y-82286905D02*
X191447676Y-82334524D01*
X191447676Y-82334524D02*
X191352438Y-82429762D01*
X191352438Y-82429762D02*
X191304819Y-82572619D01*
X191304819Y-82572619D02*
X191304819Y-82667857D01*
X191304819Y-82667857D02*
X191352438Y-82810714D01*
X191352438Y-82810714D02*
X191400057Y-82858333D01*
X191733390Y-83429762D02*
X191685771Y-83334524D01*
X191685771Y-83334524D02*
X191638152Y-83286905D01*
X191638152Y-83286905D02*
X191542914Y-83239286D01*
X191542914Y-83239286D02*
X191495295Y-83239286D01*
X191495295Y-83239286D02*
X191400057Y-83286905D01*
X191400057Y-83286905D02*
X191352438Y-83334524D01*
X191352438Y-83334524D02*
X191304819Y-83429762D01*
X191304819Y-83429762D02*
X191304819Y-83620238D01*
X191304819Y-83620238D02*
X191352438Y-83715476D01*
X191352438Y-83715476D02*
X191400057Y-83763095D01*
X191400057Y-83763095D02*
X191495295Y-83810714D01*
X191495295Y-83810714D02*
X191542914Y-83810714D01*
X191542914Y-83810714D02*
X191638152Y-83763095D01*
X191638152Y-83763095D02*
X191685771Y-83715476D01*
X191685771Y-83715476D02*
X191733390Y-83620238D01*
X191733390Y-83620238D02*
X191733390Y-83429762D01*
X191733390Y-83429762D02*
X191781009Y-83334524D01*
X191781009Y-83334524D02*
X191828628Y-83286905D01*
X191828628Y-83286905D02*
X191923866Y-83239286D01*
X191923866Y-83239286D02*
X192114342Y-83239286D01*
X192114342Y-83239286D02*
X192209580Y-83286905D01*
X192209580Y-83286905D02*
X192257200Y-83334524D01*
X192257200Y-83334524D02*
X192304819Y-83429762D01*
X192304819Y-83429762D02*
X192304819Y-83620238D01*
X192304819Y-83620238D02*
X192257200Y-83715476D01*
X192257200Y-83715476D02*
X192209580Y-83763095D01*
X192209580Y-83763095D02*
X192114342Y-83810714D01*
X192114342Y-83810714D02*
X191923866Y-83810714D01*
X191923866Y-83810714D02*
X191828628Y-83763095D01*
X191828628Y-83763095D02*
X191781009Y-83715476D01*
X191781009Y-83715476D02*
X191733390Y-83620238D01*
D11*
%TO.C,C8*%
X190910000Y-83736252D02*
X190910000Y-82313748D01*
X189090000Y-83736252D02*
X189090000Y-82313748D01*
%TD*%
M02*
