%TF.GenerationSoftware,KiCad,Pcbnew,9.0.4-9.0.4-0~ubuntu24.04.1*%
%TF.CreationDate,2025-11-05T14:30:19-05:00*%
%TF.ProjectId,LFAmp-offset,4c46416d-702d-46f6-9666-7365742e6b69,rev?*%
%TF.SameCoordinates,Original*%
%TF.FileFunction,Copper,L2,Bot*%
%TF.FilePolarity,Positive*%
%FSLAX46Y46*%
G04 Gerber Fmt 4.6, Leading zero omitted, Abs format (unit mm)*
G04 Created by KiCad (PCBNEW 9.0.4-9.0.4-0~ubuntu24.04.1) date 2025-11-05 14:30:19*
%MOMM*%
%LPD*%
G01*
G04 APERTURE LIST*
G04 Aperture macros list*
%AMRoundRect*
0 Rectangle with rounded corners*
0 $1 Rounding radius*
0 $2 $3 $4 $5 $6 $7 $8 $9 X,Y pos of 4 corners*
0 Add a 4 corners polygon primitive as box body*
4,1,4,$2,$3,$4,$5,$6,$7,$8,$9,$2,$3,0*
0 Add four circle primitives for the rounded corners*
1,1,$1+$1,$2,$3*
1,1,$1+$1,$4,$5*
1,1,$1+$1,$6,$7*
1,1,$1+$1,$8,$9*
0 Add four rect primitives between the rounded corners*
20,1,$1+$1,$2,$3,$4,$5,0*
20,1,$1+$1,$4,$5,$6,$7,0*
20,1,$1+$1,$6,$7,$8,$9,0*
20,1,$1+$1,$8,$9,$2,$3,0*%
G04 Aperture macros list end*
%TA.AperFunction,SMDPad,CuDef*%
%ADD10RoundRect,0.250000X0.650000X-0.325000X0.650000X0.325000X-0.650000X0.325000X-0.650000X-0.325000X0*%
%TD*%
%TA.AperFunction,SMDPad,CuDef*%
%ADD11R,1.500000X5.080000*%
%TD*%
%TA.AperFunction,ComponentPad*%
%ADD12R,1.700000X1.700000*%
%TD*%
%TA.AperFunction,ComponentPad*%
%ADD13C,1.700000*%
%TD*%
%TA.AperFunction,ViaPad*%
%ADD14C,0.600000*%
%TD*%
%TA.AperFunction,Conductor*%
%ADD15C,0.250000*%
%TD*%
%TA.AperFunction,Conductor*%
%ADD16C,0.500000*%
%TD*%
G04 APERTURE END LIST*
D10*
%TO.P,C8,1*%
%TO.N,-5V*%
X190000000Y-84500000D03*
%TO.P,C8,2*%
%TO.N,GND*%
X190000000Y-81550000D03*
%TD*%
D11*
%TO.P,J3,2,Ext*%
%TO.N,GND*%
X201250000Y-106500000D03*
X192750000Y-106500000D03*
%TD*%
D12*
%TO.P,RV2,1,1*%
%TO.N,+5V*%
X192580000Y-72000000D03*
D13*
%TO.P,RV2,2,2*%
%TO.N,Net-(R10-Pad2)*%
X190040000Y-72000000D03*
%TO.P,RV2,3,3*%
%TO.N,-5V*%
X187500000Y-72000000D03*
%TD*%
D12*
%TO.P,J1,1,Pin_1*%
%TO.N,Net-(D2-K)*%
X174000000Y-81420000D03*
D13*
%TO.P,J1,2,Pin_2*%
%TO.N,GND*%
X174000000Y-83960000D03*
%TO.P,J1,3,Pin_3*%
%TO.N,Net-(D1-A)*%
X174000000Y-86500000D03*
%TD*%
D12*
%TO.P,RV1,1,1*%
%TO.N,Net-(U1A--)*%
X200420000Y-83500000D03*
D13*
%TO.P,RV1,2,2*%
%TO.N,Net-(C9-Pad2)*%
X202960000Y-83500000D03*
%TO.P,RV1,3,3*%
%TO.N,unconnected-(RV1-Pad3)*%
X205500000Y-83500000D03*
%TD*%
D11*
%TO.P,J2,2,Ext*%
%TO.N,GND*%
X192750000Y-63362500D03*
X201250000Y-63362500D03*
%TD*%
D14*
%TO.N,Net-(D4-A)*%
X185500000Y-78000000D03*
X185000000Y-74000000D03*
%TO.N,+5V*%
X194500000Y-75000000D03*
%TO.N,Net-(U1B--)*%
X201000000Y-87000000D03*
X184000000Y-88000000D03*
%TO.N,+5V*%
X180000000Y-95050000D03*
X184500000Y-91000000D03*
%TO.N,-5V*%
X192500000Y-85000000D03*
X176468962Y-71468963D03*
%TD*%
D15*
%TO.N,Net-(D4-A)*%
X185000000Y-74000000D02*
X185000000Y-77500000D01*
X185000000Y-77500000D02*
X185500000Y-78000000D01*
D16*
%TO.N,+5V*%
X210000000Y-85000000D02*
X210000000Y-75500000D01*
X184500000Y-91000000D02*
X204000000Y-91000000D01*
X210000000Y-75500000D02*
X195000000Y-75500000D01*
X195000000Y-75500000D02*
X194500000Y-75000000D01*
X204000000Y-91000000D02*
X210000000Y-85000000D01*
%TO.N,Net-(U1B--)*%
X201000000Y-87000000D02*
X185000000Y-87000000D01*
X185000000Y-87000000D02*
X184000000Y-88000000D01*
%TO.N,+5V*%
X184500000Y-91000000D02*
X180450000Y-95050000D01*
X180450000Y-95050000D02*
X180000000Y-95050000D01*
%TO.N,-5V*%
X192500000Y-85000000D02*
X178000000Y-85000000D01*
X178000000Y-85000000D02*
X178000000Y-73000001D01*
X178000000Y-73000001D02*
X176468962Y-71468963D01*
%TD*%
%TA.AperFunction,Conductor*%
%TO.N,GND*%
G36*
X191474897Y-60520185D02*
G01*
X191520652Y-60572989D01*
X191530596Y-60642147D01*
X191524040Y-60667833D01*
X191506403Y-60715119D01*
X191506401Y-60715127D01*
X191500000Y-60774655D01*
X191500000Y-63112500D01*
X194000000Y-63112500D01*
X194000000Y-60774672D01*
X193999999Y-60774655D01*
X193993598Y-60715127D01*
X193993596Y-60715119D01*
X193975960Y-60667833D01*
X193970976Y-60598141D01*
X194004461Y-60536818D01*
X194065785Y-60503334D01*
X194092142Y-60500500D01*
X199907858Y-60500500D01*
X199974897Y-60520185D01*
X200020652Y-60572989D01*
X200030596Y-60642147D01*
X200024040Y-60667833D01*
X200006403Y-60715119D01*
X200006401Y-60715127D01*
X200000000Y-60774655D01*
X200000000Y-63112500D01*
X202500000Y-63112500D01*
X202500000Y-62893713D01*
X209649500Y-62893713D01*
X209649500Y-63106286D01*
X209682753Y-63316239D01*
X209748444Y-63518414D01*
X209844951Y-63707820D01*
X209969890Y-63879786D01*
X210120213Y-64030109D01*
X210292179Y-64155048D01*
X210292181Y-64155049D01*
X210292184Y-64155051D01*
X210481588Y-64251557D01*
X210683757Y-64317246D01*
X210893713Y-64350500D01*
X210893714Y-64350500D01*
X211106286Y-64350500D01*
X211106287Y-64350500D01*
X211316243Y-64317246D01*
X211518412Y-64251557D01*
X211707816Y-64155051D01*
X211729789Y-64139086D01*
X211879786Y-64030109D01*
X211879788Y-64030106D01*
X211879792Y-64030104D01*
X212030104Y-63879792D01*
X212030106Y-63879788D01*
X212030109Y-63879786D01*
X212155048Y-63707820D01*
X212155047Y-63707820D01*
X212155051Y-63707816D01*
X212251557Y-63518412D01*
X212317246Y-63316243D01*
X212350500Y-63106287D01*
X212350500Y-62893713D01*
X212317246Y-62683757D01*
X212251557Y-62481588D01*
X212155051Y-62292184D01*
X212155049Y-62292181D01*
X212155048Y-62292179D01*
X212030109Y-62120213D01*
X211879786Y-61969890D01*
X211707820Y-61844951D01*
X211518414Y-61748444D01*
X211518413Y-61748443D01*
X211518412Y-61748443D01*
X211316243Y-61682754D01*
X211316241Y-61682753D01*
X211316240Y-61682753D01*
X211154957Y-61657208D01*
X211106287Y-61649500D01*
X210893713Y-61649500D01*
X210845042Y-61657208D01*
X210683760Y-61682753D01*
X210481585Y-61748444D01*
X210292179Y-61844951D01*
X210120213Y-61969890D01*
X209969890Y-62120213D01*
X209844951Y-62292179D01*
X209748444Y-62481585D01*
X209682753Y-62683760D01*
X209649500Y-62893713D01*
X202500000Y-62893713D01*
X202500000Y-60774672D01*
X202499999Y-60774655D01*
X202493598Y-60715127D01*
X202493596Y-60715119D01*
X202475960Y-60667833D01*
X202470976Y-60598141D01*
X202504461Y-60536818D01*
X202565785Y-60503334D01*
X202592142Y-60500500D01*
X214375500Y-60500500D01*
X214442539Y-60520185D01*
X214488294Y-60572989D01*
X214499500Y-60624500D01*
X214499500Y-109375500D01*
X214479815Y-109442539D01*
X214427011Y-109488294D01*
X214375500Y-109499500D01*
X202528322Y-109499500D01*
X202461283Y-109479815D01*
X202415528Y-109427011D01*
X202405584Y-109357853D01*
X202429055Y-109301190D01*
X202443350Y-109282093D01*
X202443354Y-109282086D01*
X202493596Y-109147379D01*
X202493598Y-109147372D01*
X202499999Y-109087844D01*
X202500000Y-109087827D01*
X202500000Y-106750000D01*
X200000000Y-106750000D01*
X200000000Y-109087844D01*
X200006401Y-109147372D01*
X200006403Y-109147379D01*
X200056645Y-109282086D01*
X200056649Y-109282093D01*
X200070945Y-109301190D01*
X200095362Y-109366654D01*
X200080510Y-109434927D01*
X200031105Y-109484332D01*
X199971678Y-109499500D01*
X194028322Y-109499500D01*
X193961283Y-109479815D01*
X193915528Y-109427011D01*
X193905584Y-109357853D01*
X193929055Y-109301190D01*
X193943350Y-109282093D01*
X193943354Y-109282086D01*
X193993596Y-109147379D01*
X193993598Y-109147372D01*
X193999999Y-109087844D01*
X194000000Y-109087827D01*
X194000000Y-106750000D01*
X191500000Y-106750000D01*
X191500000Y-109087844D01*
X191506401Y-109147372D01*
X191506403Y-109147379D01*
X191556645Y-109282086D01*
X191556649Y-109282093D01*
X191570945Y-109301190D01*
X191595362Y-109366654D01*
X191580510Y-109434927D01*
X191531105Y-109484332D01*
X191471678Y-109499500D01*
X165624500Y-109499500D01*
X165557461Y-109479815D01*
X165511706Y-109427011D01*
X165500500Y-109375500D01*
X165500500Y-105893713D01*
X166649500Y-105893713D01*
X166649500Y-106106286D01*
X166682753Y-106316239D01*
X166748444Y-106518414D01*
X166844951Y-106707820D01*
X166969890Y-106879786D01*
X167120213Y-107030109D01*
X167292179Y-107155048D01*
X167292181Y-107155049D01*
X167292184Y-107155051D01*
X167481588Y-107251557D01*
X167683757Y-107317246D01*
X167893713Y-107350500D01*
X167893714Y-107350500D01*
X168106286Y-107350500D01*
X168106287Y-107350500D01*
X168316243Y-107317246D01*
X168518412Y-107251557D01*
X168707816Y-107155051D01*
X168729789Y-107139086D01*
X168879786Y-107030109D01*
X168879788Y-107030106D01*
X168879792Y-107030104D01*
X169030104Y-106879792D01*
X169030106Y-106879788D01*
X169030109Y-106879786D01*
X169155048Y-106707820D01*
X169155047Y-106707820D01*
X169155051Y-106707816D01*
X169251557Y-106518412D01*
X169317246Y-106316243D01*
X169350500Y-106106287D01*
X169350500Y-105893713D01*
X169317246Y-105683757D01*
X169251557Y-105481588D01*
X169155051Y-105292184D01*
X169155049Y-105292181D01*
X169155048Y-105292179D01*
X169030109Y-105120213D01*
X168879786Y-104969890D01*
X168707820Y-104844951D01*
X168518414Y-104748444D01*
X168518413Y-104748443D01*
X168518412Y-104748443D01*
X168316243Y-104682754D01*
X168316241Y-104682753D01*
X168316240Y-104682753D01*
X168154957Y-104657208D01*
X168106287Y-104649500D01*
X167893713Y-104649500D01*
X167845042Y-104657208D01*
X167683760Y-104682753D01*
X167481585Y-104748444D01*
X167292179Y-104844951D01*
X167120213Y-104969890D01*
X166969890Y-105120213D01*
X166844951Y-105292179D01*
X166748444Y-105481585D01*
X166682753Y-105683760D01*
X166649500Y-105893713D01*
X165500500Y-105893713D01*
X165500500Y-103912155D01*
X191500000Y-103912155D01*
X191500000Y-106250000D01*
X192500000Y-106250000D01*
X193000000Y-106250000D01*
X194000000Y-106250000D01*
X194000000Y-103912172D01*
X193999999Y-103912155D01*
X200000000Y-103912155D01*
X200000000Y-106250000D01*
X201000000Y-106250000D01*
X201500000Y-106250000D01*
X202500000Y-106250000D01*
X202500000Y-105893713D01*
X209649500Y-105893713D01*
X209649500Y-106106286D01*
X209682753Y-106316239D01*
X209748444Y-106518414D01*
X209844951Y-106707820D01*
X209969890Y-106879786D01*
X210120213Y-107030109D01*
X210292179Y-107155048D01*
X210292181Y-107155049D01*
X210292184Y-107155051D01*
X210481588Y-107251557D01*
X210683757Y-107317246D01*
X210893713Y-107350500D01*
X210893714Y-107350500D01*
X211106286Y-107350500D01*
X211106287Y-107350500D01*
X211316243Y-107317246D01*
X211518412Y-107251557D01*
X211707816Y-107155051D01*
X211729789Y-107139086D01*
X211879786Y-107030109D01*
X211879788Y-107030106D01*
X211879792Y-107030104D01*
X212030104Y-106879792D01*
X212030106Y-106879788D01*
X212030109Y-106879786D01*
X212155048Y-106707820D01*
X212155047Y-106707820D01*
X212155051Y-106707816D01*
X212251557Y-106518412D01*
X212317246Y-106316243D01*
X212350500Y-106106287D01*
X212350500Y-105893713D01*
X212317246Y-105683757D01*
X212251557Y-105481588D01*
X212155051Y-105292184D01*
X212155049Y-105292181D01*
X212155048Y-105292179D01*
X212030109Y-105120213D01*
X211879786Y-104969890D01*
X211707820Y-104844951D01*
X211518414Y-104748444D01*
X211518413Y-104748443D01*
X211518412Y-104748443D01*
X211316243Y-104682754D01*
X211316241Y-104682753D01*
X211316240Y-104682753D01*
X211154957Y-104657208D01*
X211106287Y-104649500D01*
X210893713Y-104649500D01*
X210845042Y-104657208D01*
X210683760Y-104682753D01*
X210481585Y-104748444D01*
X210292179Y-104844951D01*
X210120213Y-104969890D01*
X209969890Y-105120213D01*
X209844951Y-105292179D01*
X209748444Y-105481585D01*
X209682753Y-105683760D01*
X209649500Y-105893713D01*
X202500000Y-105893713D01*
X202500000Y-103912172D01*
X202499999Y-103912155D01*
X202493598Y-103852627D01*
X202493596Y-103852620D01*
X202443354Y-103717913D01*
X202443350Y-103717906D01*
X202357190Y-103602812D01*
X202357187Y-103602809D01*
X202242093Y-103516649D01*
X202242086Y-103516645D01*
X202107379Y-103466403D01*
X202107372Y-103466401D01*
X202047844Y-103460000D01*
X201500000Y-103460000D01*
X201500000Y-106250000D01*
X201000000Y-106250000D01*
X201000000Y-103460000D01*
X200452155Y-103460000D01*
X200392627Y-103466401D01*
X200392620Y-103466403D01*
X200257913Y-103516645D01*
X200257906Y-103516649D01*
X200142812Y-103602809D01*
X200142809Y-103602812D01*
X200056649Y-103717906D01*
X200056645Y-103717913D01*
X200006403Y-103852620D01*
X200006401Y-103852627D01*
X200000000Y-103912155D01*
X193999999Y-103912155D01*
X193993598Y-103852627D01*
X193993596Y-103852620D01*
X193943354Y-103717913D01*
X193943350Y-103717906D01*
X193857190Y-103602812D01*
X193857187Y-103602809D01*
X193742093Y-103516649D01*
X193742086Y-103516645D01*
X193607379Y-103466403D01*
X193607372Y-103466401D01*
X193547844Y-103460000D01*
X193000000Y-103460000D01*
X193000000Y-106250000D01*
X192500000Y-106250000D01*
X192500000Y-103460000D01*
X191952155Y-103460000D01*
X191892627Y-103466401D01*
X191892620Y-103466403D01*
X191757913Y-103516645D01*
X191757906Y-103516649D01*
X191642812Y-103602809D01*
X191642809Y-103602812D01*
X191556649Y-103717906D01*
X191556645Y-103717913D01*
X191506403Y-103852620D01*
X191506401Y-103852627D01*
X191500000Y-103912155D01*
X165500500Y-103912155D01*
X165500500Y-94971153D01*
X179199500Y-94971153D01*
X179199500Y-95128846D01*
X179230261Y-95283489D01*
X179230264Y-95283501D01*
X179290602Y-95429172D01*
X179290609Y-95429185D01*
X179378210Y-95560288D01*
X179378213Y-95560292D01*
X179489707Y-95671786D01*
X179489711Y-95671789D01*
X179620814Y-95759390D01*
X179620827Y-95759397D01*
X179720060Y-95800500D01*
X179766503Y-95819737D01*
X179921153Y-95850499D01*
X179921156Y-95850500D01*
X179921158Y-95850500D01*
X180078844Y-95850500D01*
X180078845Y-95850499D01*
X180155152Y-95835320D01*
X180233488Y-95819739D01*
X180233489Y-95819738D01*
X180233497Y-95819737D01*
X180257155Y-95809937D01*
X180304604Y-95800500D01*
X180523920Y-95800500D01*
X180621462Y-95781096D01*
X180668913Y-95771658D01*
X180805495Y-95715084D01*
X180870291Y-95671789D01*
X180870294Y-95671786D01*
X180870296Y-95671786D01*
X180899547Y-95652240D01*
X180928416Y-95632952D01*
X184774549Y-91786819D01*
X184835872Y-91753334D01*
X184862230Y-91750500D01*
X204073920Y-91750500D01*
X204171462Y-91731096D01*
X204218913Y-91721658D01*
X204355495Y-91665084D01*
X204420291Y-91621789D01*
X204420294Y-91621786D01*
X204420296Y-91621786D01*
X204449547Y-91602240D01*
X204478416Y-91582952D01*
X210582951Y-85478416D01*
X210665084Y-85355495D01*
X210721658Y-85218913D01*
X210733720Y-85158274D01*
X210750500Y-85073920D01*
X210750500Y-75426079D01*
X210721659Y-75281092D01*
X210721658Y-75281091D01*
X210721658Y-75281087D01*
X210701946Y-75233497D01*
X210665087Y-75144511D01*
X210665080Y-75144498D01*
X210582951Y-75021584D01*
X210582948Y-75021580D01*
X210478419Y-74917051D01*
X210478415Y-74917048D01*
X210355501Y-74834919D01*
X210355488Y-74834912D01*
X210218917Y-74778343D01*
X210218907Y-74778340D01*
X210073920Y-74749500D01*
X210073918Y-74749500D01*
X195362230Y-74749500D01*
X195332789Y-74740855D01*
X195302803Y-74734332D01*
X195297787Y-74730577D01*
X195295191Y-74729815D01*
X195274549Y-74713181D01*
X195246071Y-74684703D01*
X195219191Y-74644475D01*
X195209394Y-74620821D01*
X195209389Y-74620814D01*
X195121789Y-74489710D01*
X195010292Y-74378213D01*
X195010288Y-74378210D01*
X194879185Y-74290609D01*
X194879172Y-74290602D01*
X194733501Y-74230264D01*
X194733489Y-74230261D01*
X194578845Y-74199500D01*
X194578842Y-74199500D01*
X194421158Y-74199500D01*
X194421155Y-74199500D01*
X194266510Y-74230261D01*
X194266498Y-74230264D01*
X194120827Y-74290602D01*
X194120814Y-74290609D01*
X193989711Y-74378210D01*
X193989707Y-74378213D01*
X193878213Y-74489707D01*
X193878210Y-74489711D01*
X193790609Y-74620814D01*
X193790602Y-74620827D01*
X193730264Y-74766498D01*
X193730261Y-74766510D01*
X193699500Y-74921153D01*
X193699500Y-75078846D01*
X193730261Y-75233489D01*
X193730264Y-75233501D01*
X193790602Y-75379172D01*
X193790609Y-75379185D01*
X193878210Y-75510288D01*
X193878213Y-75510292D01*
X193989710Y-75621789D01*
X194120815Y-75709390D01*
X194120821Y-75709394D01*
X194144475Y-75719191D01*
X194184703Y-75746071D01*
X194521586Y-76082954D01*
X194551058Y-76102645D01*
X194595270Y-76132186D01*
X194644505Y-76165084D01*
X194644506Y-76165084D01*
X194644507Y-76165085D01*
X194644509Y-76165086D01*
X194781082Y-76221656D01*
X194781087Y-76221658D01*
X194781091Y-76221658D01*
X194781092Y-76221659D01*
X194926079Y-76250500D01*
X194926082Y-76250500D01*
X194926083Y-76250500D01*
X195073918Y-76250500D01*
X209125500Y-76250500D01*
X209192539Y-76270185D01*
X209238294Y-76322989D01*
X209249500Y-76374500D01*
X209249500Y-84637770D01*
X209229815Y-84704809D01*
X209213181Y-84725451D01*
X203725451Y-90213181D01*
X203664128Y-90246666D01*
X203637770Y-90249500D01*
X184804604Y-90249500D01*
X184757155Y-90240062D01*
X184733497Y-90230263D01*
X184733493Y-90230262D01*
X184733488Y-90230260D01*
X184578845Y-90199500D01*
X184578842Y-90199500D01*
X184421158Y-90199500D01*
X184421155Y-90199500D01*
X184266510Y-90230261D01*
X184266498Y-90230264D01*
X184120827Y-90290602D01*
X184120814Y-90290609D01*
X183989711Y-90378210D01*
X183989707Y-90378213D01*
X183878213Y-90489707D01*
X183878207Y-90489715D01*
X183790607Y-90620818D01*
X183790606Y-90620819D01*
X183780805Y-90644480D01*
X183753927Y-90684703D01*
X180217699Y-94220931D01*
X180156376Y-94254416D01*
X180105827Y-94254867D01*
X180078846Y-94249500D01*
X180078842Y-94249500D01*
X179921158Y-94249500D01*
X179921155Y-94249500D01*
X179766510Y-94280261D01*
X179766498Y-94280264D01*
X179620827Y-94340602D01*
X179620814Y-94340609D01*
X179489711Y-94428210D01*
X179489707Y-94428213D01*
X179378213Y-94539707D01*
X179378210Y-94539711D01*
X179290609Y-94670814D01*
X179290602Y-94670827D01*
X179230264Y-94816498D01*
X179230261Y-94816510D01*
X179199500Y-94971153D01*
X165500500Y-94971153D01*
X165500500Y-87921153D01*
X183199500Y-87921153D01*
X183199500Y-88078846D01*
X183230261Y-88233489D01*
X183230264Y-88233501D01*
X183290602Y-88379172D01*
X183290609Y-88379185D01*
X183378210Y-88510288D01*
X183378213Y-88510292D01*
X183489707Y-88621786D01*
X183489711Y-88621789D01*
X183620814Y-88709390D01*
X183620827Y-88709397D01*
X183766498Y-88769735D01*
X183766503Y-88769737D01*
X183921153Y-88800499D01*
X183921156Y-88800500D01*
X183921158Y-88800500D01*
X184078844Y-88800500D01*
X184078845Y-88800499D01*
X184233497Y-88769737D01*
X184379179Y-88709394D01*
X184510289Y-88621789D01*
X184621789Y-88510289D01*
X184709394Y-88379179D01*
X184719191Y-88355524D01*
X184746069Y-88315297D01*
X185274548Y-87786819D01*
X185335871Y-87753334D01*
X185362229Y-87750500D01*
X200695396Y-87750500D01*
X200742844Y-87759937D01*
X200766503Y-87769737D01*
X200766508Y-87769738D01*
X200766511Y-87769739D01*
X200921153Y-87800499D01*
X200921156Y-87800500D01*
X200921158Y-87800500D01*
X201078844Y-87800500D01*
X201078845Y-87800499D01*
X201233497Y-87769737D01*
X201379179Y-87709394D01*
X201510289Y-87621789D01*
X201621789Y-87510289D01*
X201709394Y-87379179D01*
X201769737Y-87233497D01*
X201800500Y-87078842D01*
X201800500Y-86921158D01*
X201800500Y-86921155D01*
X201800499Y-86921153D01*
X201769738Y-86766510D01*
X201769737Y-86766503D01*
X201769735Y-86766498D01*
X201709397Y-86620827D01*
X201709390Y-86620814D01*
X201621789Y-86489711D01*
X201621786Y-86489707D01*
X201510292Y-86378213D01*
X201510288Y-86378210D01*
X201379185Y-86290609D01*
X201379172Y-86290602D01*
X201233501Y-86230264D01*
X201233489Y-86230261D01*
X201078845Y-86199500D01*
X201078842Y-86199500D01*
X200921158Y-86199500D01*
X200921155Y-86199500D01*
X200766511Y-86230260D01*
X200766506Y-86230262D01*
X200766504Y-86230262D01*
X200766503Y-86230263D01*
X200742844Y-86240062D01*
X200695396Y-86249500D01*
X184926076Y-86249500D01*
X184897242Y-86255234D01*
X184897243Y-86255235D01*
X184781093Y-86278339D01*
X184781083Y-86278342D01*
X184701081Y-86311479D01*
X184701082Y-86311480D01*
X184644505Y-86334915D01*
X184582835Y-86376121D01*
X184579706Y-86378213D01*
X184562372Y-86389795D01*
X184521585Y-86417047D01*
X184521581Y-86417050D01*
X183684703Y-87253927D01*
X183644480Y-87280805D01*
X183620819Y-87290606D01*
X183620818Y-87290607D01*
X183489715Y-87378207D01*
X183489707Y-87378213D01*
X183378213Y-87489707D01*
X183378210Y-87489711D01*
X183290609Y-87620814D01*
X183290602Y-87620827D01*
X183230264Y-87766498D01*
X183230261Y-87766510D01*
X183199500Y-87921153D01*
X165500500Y-87921153D01*
X165500500Y-80522135D01*
X172649500Y-80522135D01*
X172649500Y-82317870D01*
X172649501Y-82317876D01*
X172655908Y-82377483D01*
X172706202Y-82512328D01*
X172706206Y-82512335D01*
X172792452Y-82627544D01*
X172792455Y-82627547D01*
X172907664Y-82713793D01*
X172907671Y-82713797D01*
X172952618Y-82730561D01*
X173042517Y-82764091D01*
X173102127Y-82770500D01*
X173112685Y-82770499D01*
X173179723Y-82790179D01*
X173200372Y-82806818D01*
X173870591Y-83477037D01*
X173807007Y-83494075D01*
X173692993Y-83559901D01*
X173599901Y-83652993D01*
X173534075Y-83767007D01*
X173517037Y-83830591D01*
X172884728Y-83198282D01*
X172884727Y-83198282D01*
X172845380Y-83252439D01*
X172748904Y-83441782D01*
X172683242Y-83643869D01*
X172683242Y-83643872D01*
X172650000Y-83853753D01*
X172650000Y-84066246D01*
X172683242Y-84276127D01*
X172683242Y-84276130D01*
X172748904Y-84478217D01*
X172845375Y-84667550D01*
X172884728Y-84721716D01*
X173517037Y-84089408D01*
X173534075Y-84152993D01*
X173599901Y-84267007D01*
X173692993Y-84360099D01*
X173807007Y-84425925D01*
X173870590Y-84442962D01*
X173238282Y-85075269D01*
X173238282Y-85075270D01*
X173292452Y-85114626D01*
X173292451Y-85114626D01*
X173301495Y-85119234D01*
X173352292Y-85167208D01*
X173369087Y-85235029D01*
X173346550Y-85301164D01*
X173301499Y-85340202D01*
X173292182Y-85344949D01*
X173120213Y-85469890D01*
X172969890Y-85620213D01*
X172844951Y-85792179D01*
X172748444Y-85981585D01*
X172682753Y-86183760D01*
X172651955Y-86378210D01*
X172649500Y-86393713D01*
X172649500Y-86606287D01*
X172682754Y-86816243D01*
X172716841Y-86921153D01*
X172748444Y-87018414D01*
X172844951Y-87207820D01*
X172969890Y-87379786D01*
X173120213Y-87530109D01*
X173292179Y-87655048D01*
X173292181Y-87655049D01*
X173292184Y-87655051D01*
X173481588Y-87751557D01*
X173683757Y-87817246D01*
X173893713Y-87850500D01*
X173893714Y-87850500D01*
X174106286Y-87850500D01*
X174106287Y-87850500D01*
X174316243Y-87817246D01*
X174518412Y-87751557D01*
X174707816Y-87655051D01*
X174754940Y-87620814D01*
X174879786Y-87530109D01*
X174879788Y-87530106D01*
X174879792Y-87530104D01*
X175030104Y-87379792D01*
X175030106Y-87379788D01*
X175030109Y-87379786D01*
X175155048Y-87207820D01*
X175155047Y-87207820D01*
X175155051Y-87207816D01*
X175251557Y-87018412D01*
X175317246Y-86816243D01*
X175350500Y-86606287D01*
X175350500Y-86393713D01*
X175317246Y-86183757D01*
X175251557Y-85981588D01*
X175155051Y-85792184D01*
X175155049Y-85792181D01*
X175155048Y-85792179D01*
X175030109Y-85620213D01*
X174879786Y-85469890D01*
X174707817Y-85344949D01*
X174698504Y-85340204D01*
X174647707Y-85292230D01*
X174630912Y-85224409D01*
X174653449Y-85158274D01*
X174698507Y-85119232D01*
X174707555Y-85114622D01*
X174761716Y-85075270D01*
X174761717Y-85075270D01*
X174129408Y-84442962D01*
X174192993Y-84425925D01*
X174307007Y-84360099D01*
X174400099Y-84267007D01*
X174465925Y-84152993D01*
X174482962Y-84089408D01*
X175115270Y-84721717D01*
X175115270Y-84721716D01*
X175154622Y-84667554D01*
X175251095Y-84478217D01*
X175316757Y-84276130D01*
X175316757Y-84276127D01*
X175350000Y-84066246D01*
X175350000Y-83853753D01*
X175316757Y-83643872D01*
X175316757Y-83643869D01*
X175251095Y-83441782D01*
X175154624Y-83252449D01*
X175115270Y-83198282D01*
X175115269Y-83198282D01*
X174482962Y-83830590D01*
X174465925Y-83767007D01*
X174400099Y-83652993D01*
X174307007Y-83559901D01*
X174192993Y-83494075D01*
X174129409Y-83477037D01*
X174799627Y-82806818D01*
X174860950Y-82773333D01*
X174887307Y-82770499D01*
X174897872Y-82770499D01*
X174957483Y-82764091D01*
X175092331Y-82713796D01*
X175207546Y-82627546D01*
X175293796Y-82512331D01*
X175344091Y-82377483D01*
X175350500Y-82317873D01*
X175350499Y-80522128D01*
X175344091Y-80462517D01*
X175293796Y-80327669D01*
X175293795Y-80327668D01*
X175293793Y-80327664D01*
X175207547Y-80212455D01*
X175207544Y-80212452D01*
X175092335Y-80126206D01*
X175092328Y-80126202D01*
X174957482Y-80075908D01*
X174957483Y-80075908D01*
X174897883Y-80069501D01*
X174897881Y-80069500D01*
X174897873Y-80069500D01*
X174897864Y-80069500D01*
X173102129Y-80069500D01*
X173102123Y-80069501D01*
X173042516Y-80075908D01*
X172907671Y-80126202D01*
X172907664Y-80126206D01*
X172792455Y-80212452D01*
X172792452Y-80212455D01*
X172706206Y-80327664D01*
X172706202Y-80327671D01*
X172655908Y-80462517D01*
X172649501Y-80522116D01*
X172649501Y-80522123D01*
X172649500Y-80522135D01*
X165500500Y-80522135D01*
X165500500Y-71390116D01*
X175668462Y-71390116D01*
X175668462Y-71547809D01*
X175699223Y-71702452D01*
X175699226Y-71702464D01*
X175759564Y-71848135D01*
X175759571Y-71848148D01*
X175847172Y-71979251D01*
X175847175Y-71979255D01*
X175958672Y-72090752D01*
X176089777Y-72178353D01*
X176089783Y-72178357D01*
X176113437Y-72188154D01*
X176153665Y-72215034D01*
X177213181Y-73274550D01*
X177246666Y-73335873D01*
X177249500Y-73362231D01*
X177249500Y-85073918D01*
X177249500Y-85073920D01*
X177249499Y-85073920D01*
X177278340Y-85218907D01*
X177278343Y-85218917D01*
X177334912Y-85355488D01*
X177334919Y-85355501D01*
X177417048Y-85478415D01*
X177417051Y-85478419D01*
X177521580Y-85582948D01*
X177521584Y-85582951D01*
X177644498Y-85665080D01*
X177644511Y-85665087D01*
X177751469Y-85709390D01*
X177781087Y-85721658D01*
X177781091Y-85721658D01*
X177781092Y-85721659D01*
X177926079Y-85750500D01*
X177926082Y-85750500D01*
X178073918Y-85750500D01*
X192195396Y-85750500D01*
X192242844Y-85759937D01*
X192266503Y-85769737D01*
X192266508Y-85769738D01*
X192266511Y-85769739D01*
X192421153Y-85800499D01*
X192421156Y-85800500D01*
X192421158Y-85800500D01*
X192578844Y-85800500D01*
X192578845Y-85800499D01*
X192733497Y-85769737D01*
X192879179Y-85709394D01*
X193010289Y-85621789D01*
X193121789Y-85510289D01*
X193209394Y-85379179D01*
X193269737Y-85233497D01*
X193300500Y-85078842D01*
X193300500Y-84921158D01*
X193300500Y-84921155D01*
X193300499Y-84921153D01*
X193269738Y-84766510D01*
X193269737Y-84766503D01*
X193245317Y-84707547D01*
X193209397Y-84620827D01*
X193209390Y-84620814D01*
X193121789Y-84489711D01*
X193121786Y-84489707D01*
X193010292Y-84378213D01*
X193010288Y-84378210D01*
X192879185Y-84290609D01*
X192879172Y-84290602D01*
X192733501Y-84230264D01*
X192733489Y-84230261D01*
X192578845Y-84199500D01*
X192578842Y-84199500D01*
X192421158Y-84199500D01*
X192421155Y-84199500D01*
X192266511Y-84230260D01*
X192266506Y-84230262D01*
X192266504Y-84230262D01*
X192266503Y-84230263D01*
X192242844Y-84240062D01*
X192195396Y-84249500D01*
X191524499Y-84249500D01*
X191457460Y-84229815D01*
X191411705Y-84177011D01*
X191401068Y-84128120D01*
X191400659Y-84128141D01*
X191400532Y-84125653D01*
X191400499Y-84125500D01*
X191400499Y-84124998D01*
X191400498Y-84124981D01*
X191389999Y-84022203D01*
X191389998Y-84022200D01*
X191388743Y-84018412D01*
X191334814Y-83855666D01*
X191242712Y-83706344D01*
X191118656Y-83582288D01*
X190969334Y-83490186D01*
X190802797Y-83435001D01*
X190802795Y-83435000D01*
X190700010Y-83424500D01*
X189299998Y-83424500D01*
X189299981Y-83424501D01*
X189197203Y-83435000D01*
X189197200Y-83435001D01*
X189030668Y-83490185D01*
X189030663Y-83490187D01*
X188881342Y-83582289D01*
X188757289Y-83706342D01*
X188665187Y-83855663D01*
X188665186Y-83855666D01*
X188610001Y-84022203D01*
X188610001Y-84022204D01*
X188610000Y-84022204D01*
X188599500Y-84124983D01*
X188599500Y-84125500D01*
X188599468Y-84125605D01*
X188599340Y-84128139D01*
X188599179Y-84128130D01*
X188599179Y-84128132D01*
X188599155Y-84128129D01*
X188598734Y-84128108D01*
X188579815Y-84192539D01*
X188527011Y-84238294D01*
X188475500Y-84249500D01*
X178874500Y-84249500D01*
X178807461Y-84229815D01*
X178761706Y-84177011D01*
X178750500Y-84125500D01*
X178750500Y-81924986D01*
X188600001Y-81924986D01*
X188610494Y-82027697D01*
X188665641Y-82194119D01*
X188665643Y-82194124D01*
X188757684Y-82343345D01*
X188881654Y-82467315D01*
X189030875Y-82559356D01*
X189030880Y-82559358D01*
X189197302Y-82614505D01*
X189197309Y-82614506D01*
X189300019Y-82624999D01*
X189749999Y-82624999D01*
X190250000Y-82624999D01*
X190699972Y-82624999D01*
X190699986Y-82624998D01*
X190802697Y-82614505D01*
X190840027Y-82602135D01*
X199069500Y-82602135D01*
X199069500Y-84397870D01*
X199069501Y-84397876D01*
X199075908Y-84457483D01*
X199126202Y-84592328D01*
X199126206Y-84592335D01*
X199212452Y-84707544D01*
X199212455Y-84707547D01*
X199327664Y-84793793D01*
X199327671Y-84793797D01*
X199462517Y-84844091D01*
X199462516Y-84844091D01*
X199469444Y-84844835D01*
X199522127Y-84850500D01*
X201317872Y-84850499D01*
X201377483Y-84844091D01*
X201512331Y-84793796D01*
X201627546Y-84707546D01*
X201713796Y-84592331D01*
X201762810Y-84460916D01*
X201804681Y-84404984D01*
X201870145Y-84380566D01*
X201938418Y-84395417D01*
X201966673Y-84416569D01*
X202080213Y-84530109D01*
X202252179Y-84655048D01*
X202252181Y-84655049D01*
X202252184Y-84655051D01*
X202441588Y-84751557D01*
X202643757Y-84817246D01*
X202853713Y-84850500D01*
X202853714Y-84850500D01*
X203066286Y-84850500D01*
X203066287Y-84850500D01*
X203276243Y-84817246D01*
X203478412Y-84751557D01*
X203667816Y-84655051D01*
X203754138Y-84592335D01*
X203839786Y-84530109D01*
X203839788Y-84530106D01*
X203839792Y-84530104D01*
X203990104Y-84379792D01*
X203990106Y-84379788D01*
X203990109Y-84379786D01*
X204115048Y-84207820D01*
X204115047Y-84207820D01*
X204115051Y-84207816D01*
X204119514Y-84199054D01*
X204167488Y-84148259D01*
X204235308Y-84131463D01*
X204301444Y-84153999D01*
X204340486Y-84199056D01*
X204344951Y-84207820D01*
X204469890Y-84379786D01*
X204620213Y-84530109D01*
X204792179Y-84655048D01*
X204792181Y-84655049D01*
X204792184Y-84655051D01*
X204981588Y-84751557D01*
X205183757Y-84817246D01*
X205393713Y-84850500D01*
X205393714Y-84850500D01*
X205606286Y-84850500D01*
X205606287Y-84850500D01*
X205816243Y-84817246D01*
X206018412Y-84751557D01*
X206207816Y-84655051D01*
X206294138Y-84592335D01*
X206379786Y-84530109D01*
X206379788Y-84530106D01*
X206379792Y-84530104D01*
X206530104Y-84379792D01*
X206530106Y-84379788D01*
X206530109Y-84379786D01*
X206655048Y-84207820D01*
X206655047Y-84207820D01*
X206655051Y-84207816D01*
X206751557Y-84018412D01*
X206817246Y-83816243D01*
X206850500Y-83606287D01*
X206850500Y-83393713D01*
X206817246Y-83183757D01*
X206751557Y-82981588D01*
X206655051Y-82792184D01*
X206655049Y-82792181D01*
X206655048Y-82792179D01*
X206530109Y-82620213D01*
X206379786Y-82469890D01*
X206207820Y-82344951D01*
X206018414Y-82248444D01*
X206018413Y-82248443D01*
X206018412Y-82248443D01*
X205816243Y-82182754D01*
X205816241Y-82182753D01*
X205816240Y-82182753D01*
X205654957Y-82157208D01*
X205606287Y-82149500D01*
X205393713Y-82149500D01*
X205345042Y-82157208D01*
X205183760Y-82182753D01*
X204981585Y-82248444D01*
X204792179Y-82344951D01*
X204620213Y-82469890D01*
X204469890Y-82620213D01*
X204344949Y-82792182D01*
X204340484Y-82800946D01*
X204292509Y-82851742D01*
X204224688Y-82868536D01*
X204158553Y-82845998D01*
X204119516Y-82800946D01*
X204115050Y-82792182D01*
X203990109Y-82620213D01*
X203839786Y-82469890D01*
X203667820Y-82344951D01*
X203478414Y-82248444D01*
X203478413Y-82248443D01*
X203478412Y-82248443D01*
X203276243Y-82182754D01*
X203276241Y-82182753D01*
X203276240Y-82182753D01*
X203114957Y-82157208D01*
X203066287Y-82149500D01*
X202853713Y-82149500D01*
X202805042Y-82157208D01*
X202643760Y-82182753D01*
X202441585Y-82248444D01*
X202252179Y-82344951D01*
X202080215Y-82469889D01*
X201966673Y-82583431D01*
X201905350Y-82616915D01*
X201835658Y-82611931D01*
X201779725Y-82570059D01*
X201762810Y-82539082D01*
X201713797Y-82407671D01*
X201713793Y-82407664D01*
X201627547Y-82292455D01*
X201627544Y-82292452D01*
X201512335Y-82206206D01*
X201512328Y-82206202D01*
X201377482Y-82155908D01*
X201377483Y-82155908D01*
X201317883Y-82149501D01*
X201317881Y-82149500D01*
X201317873Y-82149500D01*
X201317864Y-82149500D01*
X199522129Y-82149500D01*
X199522123Y-82149501D01*
X199462516Y-82155908D01*
X199327671Y-82206202D01*
X199327664Y-82206206D01*
X199212455Y-82292452D01*
X199212452Y-82292455D01*
X199126206Y-82407664D01*
X199126202Y-82407671D01*
X199075908Y-82542517D01*
X199069501Y-82602116D01*
X199069500Y-82602135D01*
X190840027Y-82602135D01*
X190969119Y-82559358D01*
X190969124Y-82559356D01*
X191076272Y-82493267D01*
X191076275Y-82493266D01*
X191118340Y-82467319D01*
X191118344Y-82467316D01*
X191242315Y-82343345D01*
X191334356Y-82194124D01*
X191334358Y-82194119D01*
X191389505Y-82027697D01*
X191389506Y-82027690D01*
X191399999Y-81924986D01*
X191400000Y-81924973D01*
X191400000Y-81800000D01*
X190250000Y-81800000D01*
X190250000Y-82624999D01*
X189749999Y-82624999D01*
X189750000Y-82624998D01*
X189750000Y-81800000D01*
X188600001Y-81800000D01*
X188600001Y-81924986D01*
X178750500Y-81924986D01*
X178750500Y-81175013D01*
X188600000Y-81175013D01*
X188600000Y-81300000D01*
X189750000Y-81300000D01*
X190250000Y-81300000D01*
X191399999Y-81300000D01*
X191399999Y-81175028D01*
X191399998Y-81175013D01*
X191389505Y-81072302D01*
X191334358Y-80905880D01*
X191334356Y-80905875D01*
X191242315Y-80756654D01*
X191118345Y-80632684D01*
X190969124Y-80540643D01*
X190969119Y-80540641D01*
X190802697Y-80485494D01*
X190802690Y-80485493D01*
X190699986Y-80475000D01*
X190250000Y-80475000D01*
X190250000Y-81300000D01*
X189750000Y-81300000D01*
X189750000Y-80475000D01*
X189300028Y-80475000D01*
X189300012Y-80475001D01*
X189197302Y-80485494D01*
X189030880Y-80540641D01*
X189030875Y-80540643D01*
X188881654Y-80632684D01*
X188757684Y-80756654D01*
X188665643Y-80905875D01*
X188665641Y-80905880D01*
X188610494Y-81072302D01*
X188610493Y-81072309D01*
X188600000Y-81175013D01*
X178750500Y-81175013D01*
X178750500Y-73921153D01*
X184199500Y-73921153D01*
X184199500Y-74078846D01*
X184230261Y-74233489D01*
X184230264Y-74233501D01*
X184290602Y-74379172D01*
X184290609Y-74379184D01*
X184353602Y-74473459D01*
X184374480Y-74540136D01*
X184374500Y-74542350D01*
X184374500Y-77561606D01*
X184398537Y-77682452D01*
X184398538Y-77682455D01*
X184398539Y-77682460D01*
X184405495Y-77699251D01*
X184405499Y-77699259D01*
X184407345Y-77703715D01*
X184445688Y-77796286D01*
X184479915Y-77847509D01*
X184484002Y-77853627D01*
X184484006Y-77853633D01*
X184514141Y-77898733D01*
X184605586Y-77990178D01*
X184605608Y-77990198D01*
X184674205Y-78058795D01*
X184707690Y-78120118D01*
X184708141Y-78122285D01*
X184730261Y-78233489D01*
X184730264Y-78233501D01*
X184790602Y-78379172D01*
X184790609Y-78379185D01*
X184878210Y-78510288D01*
X184878213Y-78510292D01*
X184989707Y-78621786D01*
X184989711Y-78621789D01*
X185120814Y-78709390D01*
X185120827Y-78709397D01*
X185266498Y-78769735D01*
X185266503Y-78769737D01*
X185421153Y-78800499D01*
X185421156Y-78800500D01*
X185421158Y-78800500D01*
X185578844Y-78800500D01*
X185578845Y-78800499D01*
X185733497Y-78769737D01*
X185879179Y-78709394D01*
X186010289Y-78621789D01*
X186121789Y-78510289D01*
X186209394Y-78379179D01*
X186269737Y-78233497D01*
X186300500Y-78078842D01*
X186300500Y-77921158D01*
X186300500Y-77921155D01*
X186300499Y-77921153D01*
X186269738Y-77766510D01*
X186269737Y-77766503D01*
X186234926Y-77682460D01*
X186209397Y-77620827D01*
X186209390Y-77620814D01*
X186121789Y-77489711D01*
X186121786Y-77489707D01*
X186010292Y-77378213D01*
X186010288Y-77378210D01*
X185879185Y-77290609D01*
X185879172Y-77290602D01*
X185733499Y-77230263D01*
X185733487Y-77230260D01*
X185725304Y-77228632D01*
X185663394Y-77196245D01*
X185628822Y-77135528D01*
X185625500Y-77107016D01*
X185625500Y-74542350D01*
X185645185Y-74475311D01*
X185646398Y-74473459D01*
X185646809Y-74472843D01*
X185709394Y-74379179D01*
X185769737Y-74233497D01*
X185800500Y-74078842D01*
X185800500Y-73921158D01*
X185800500Y-73921155D01*
X185800499Y-73921153D01*
X185769738Y-73766510D01*
X185769737Y-73766503D01*
X185769735Y-73766498D01*
X185709397Y-73620827D01*
X185709390Y-73620814D01*
X185621789Y-73489711D01*
X185621786Y-73489707D01*
X185510292Y-73378213D01*
X185510288Y-73378210D01*
X185379185Y-73290609D01*
X185379172Y-73290602D01*
X185233501Y-73230264D01*
X185233489Y-73230261D01*
X185078845Y-73199500D01*
X185078842Y-73199500D01*
X184921158Y-73199500D01*
X184921155Y-73199500D01*
X184766510Y-73230261D01*
X184766498Y-73230264D01*
X184620827Y-73290602D01*
X184620814Y-73290609D01*
X184489711Y-73378210D01*
X184489707Y-73378213D01*
X184378213Y-73489707D01*
X184378210Y-73489711D01*
X184290609Y-73620814D01*
X184290602Y-73620827D01*
X184230264Y-73766498D01*
X184230261Y-73766510D01*
X184199500Y-73921153D01*
X178750500Y-73921153D01*
X178750500Y-72926081D01*
X178741292Y-72879793D01*
X178741292Y-72879791D01*
X178721660Y-72781095D01*
X178721659Y-72781089D01*
X178665084Y-72644507D01*
X178665084Y-72644506D01*
X178632186Y-72595271D01*
X178630802Y-72593199D01*
X178582956Y-72521590D01*
X178582952Y-72521585D01*
X177955080Y-71893713D01*
X186149500Y-71893713D01*
X186149500Y-72106286D01*
X186182753Y-72316239D01*
X186248444Y-72518414D01*
X186344951Y-72707820D01*
X186469890Y-72879786D01*
X186620213Y-73030109D01*
X186792179Y-73155048D01*
X186792181Y-73155049D01*
X186792184Y-73155051D01*
X186981588Y-73251557D01*
X187183757Y-73317246D01*
X187393713Y-73350500D01*
X187393714Y-73350500D01*
X187606286Y-73350500D01*
X187606287Y-73350500D01*
X187816243Y-73317246D01*
X188018412Y-73251557D01*
X188207816Y-73155051D01*
X188294138Y-73092335D01*
X188379786Y-73030109D01*
X188379788Y-73030106D01*
X188379792Y-73030104D01*
X188530104Y-72879792D01*
X188530106Y-72879788D01*
X188530109Y-72879786D01*
X188655048Y-72707820D01*
X188655047Y-72707820D01*
X188655051Y-72707816D01*
X188659514Y-72699054D01*
X188707488Y-72648259D01*
X188775308Y-72631463D01*
X188841444Y-72653999D01*
X188880486Y-72699056D01*
X188884951Y-72707820D01*
X189009890Y-72879786D01*
X189160213Y-73030109D01*
X189332179Y-73155048D01*
X189332181Y-73155049D01*
X189332184Y-73155051D01*
X189521588Y-73251557D01*
X189723757Y-73317246D01*
X189933713Y-73350500D01*
X189933714Y-73350500D01*
X190146286Y-73350500D01*
X190146287Y-73350500D01*
X190356243Y-73317246D01*
X190558412Y-73251557D01*
X190747816Y-73155051D01*
X190919792Y-73030104D01*
X191033329Y-72916566D01*
X191094648Y-72883084D01*
X191164340Y-72888068D01*
X191220274Y-72929939D01*
X191237189Y-72960917D01*
X191286202Y-73092328D01*
X191286206Y-73092335D01*
X191372452Y-73207544D01*
X191372455Y-73207547D01*
X191487664Y-73293793D01*
X191487671Y-73293797D01*
X191622517Y-73344091D01*
X191622516Y-73344091D01*
X191629444Y-73344835D01*
X191682127Y-73350500D01*
X193477872Y-73350499D01*
X193537483Y-73344091D01*
X193672331Y-73293796D01*
X193787546Y-73207546D01*
X193873796Y-73092331D01*
X193924091Y-72957483D01*
X193930500Y-72897873D01*
X193930499Y-71102128D01*
X193924091Y-71042517D01*
X193922810Y-71039083D01*
X193873797Y-70907671D01*
X193873793Y-70907664D01*
X193787547Y-70792455D01*
X193787544Y-70792452D01*
X193672335Y-70706206D01*
X193672328Y-70706202D01*
X193537482Y-70655908D01*
X193537483Y-70655908D01*
X193477883Y-70649501D01*
X193477881Y-70649500D01*
X193477873Y-70649500D01*
X193477864Y-70649500D01*
X191682129Y-70649500D01*
X191682123Y-70649501D01*
X191622516Y-70655908D01*
X191487671Y-70706202D01*
X191487664Y-70706206D01*
X191372455Y-70792452D01*
X191372452Y-70792455D01*
X191286206Y-70907664D01*
X191286203Y-70907669D01*
X191237189Y-71039083D01*
X191195317Y-71095016D01*
X191129853Y-71119433D01*
X191061580Y-71104581D01*
X191033326Y-71083430D01*
X190919786Y-70969890D01*
X190747820Y-70844951D01*
X190558414Y-70748444D01*
X190558413Y-70748443D01*
X190558412Y-70748443D01*
X190356243Y-70682754D01*
X190356241Y-70682753D01*
X190356240Y-70682753D01*
X190194957Y-70657208D01*
X190146287Y-70649500D01*
X189933713Y-70649500D01*
X189885042Y-70657208D01*
X189723760Y-70682753D01*
X189521585Y-70748444D01*
X189332179Y-70844951D01*
X189160213Y-70969890D01*
X189009890Y-71120213D01*
X188884949Y-71292182D01*
X188880484Y-71300946D01*
X188832509Y-71351742D01*
X188764688Y-71368536D01*
X188698553Y-71345998D01*
X188659516Y-71300946D01*
X188655050Y-71292182D01*
X188530109Y-71120213D01*
X188379786Y-70969890D01*
X188207820Y-70844951D01*
X188018414Y-70748444D01*
X188018413Y-70748443D01*
X188018412Y-70748443D01*
X187816243Y-70682754D01*
X187816241Y-70682753D01*
X187816240Y-70682753D01*
X187654957Y-70657208D01*
X187606287Y-70649500D01*
X187393713Y-70649500D01*
X187345042Y-70657208D01*
X187183760Y-70682753D01*
X186981585Y-70748444D01*
X186792179Y-70844951D01*
X186620213Y-70969890D01*
X186469890Y-71120213D01*
X186344951Y-71292179D01*
X186248444Y-71481585D01*
X186182753Y-71683760D01*
X186149500Y-71893713D01*
X177955080Y-71893713D01*
X177215033Y-71153666D01*
X177188153Y-71113438D01*
X177178356Y-71089784D01*
X177146773Y-71042517D01*
X177090751Y-70958673D01*
X176979254Y-70847176D01*
X176979250Y-70847173D01*
X176848147Y-70759572D01*
X176848134Y-70759565D01*
X176702463Y-70699227D01*
X176702451Y-70699224D01*
X176547807Y-70668463D01*
X176547804Y-70668463D01*
X176390120Y-70668463D01*
X176390117Y-70668463D01*
X176235472Y-70699224D01*
X176235460Y-70699227D01*
X176089789Y-70759565D01*
X176089776Y-70759572D01*
X175958673Y-70847173D01*
X175958669Y-70847176D01*
X175847175Y-70958670D01*
X175847172Y-70958674D01*
X175759571Y-71089777D01*
X175759564Y-71089790D01*
X175699226Y-71235461D01*
X175699223Y-71235473D01*
X175668462Y-71390116D01*
X165500500Y-71390116D01*
X165500500Y-65950344D01*
X191500000Y-65950344D01*
X191506401Y-66009872D01*
X191506403Y-66009879D01*
X191556645Y-66144586D01*
X191556649Y-66144593D01*
X191642809Y-66259687D01*
X191642812Y-66259690D01*
X191757906Y-66345850D01*
X191757913Y-66345854D01*
X191892620Y-66396096D01*
X191892627Y-66396098D01*
X191952155Y-66402499D01*
X191952172Y-66402500D01*
X192500000Y-66402500D01*
X193000000Y-66402500D01*
X193547828Y-66402500D01*
X193547844Y-66402499D01*
X193607372Y-66396098D01*
X193607379Y-66396096D01*
X193742086Y-66345854D01*
X193742093Y-66345850D01*
X193857187Y-66259690D01*
X193857190Y-66259687D01*
X193943350Y-66144593D01*
X193943354Y-66144586D01*
X193993596Y-66009879D01*
X193993598Y-66009872D01*
X193999999Y-65950344D01*
X200000000Y-65950344D01*
X200006401Y-66009872D01*
X200006403Y-66009879D01*
X200056645Y-66144586D01*
X200056649Y-66144593D01*
X200142809Y-66259687D01*
X200142812Y-66259690D01*
X200257906Y-66345850D01*
X200257913Y-66345854D01*
X200392620Y-66396096D01*
X200392627Y-66396098D01*
X200452155Y-66402499D01*
X200452172Y-66402500D01*
X201000000Y-66402500D01*
X201500000Y-66402500D01*
X202047828Y-66402500D01*
X202047844Y-66402499D01*
X202107372Y-66396098D01*
X202107379Y-66396096D01*
X202242086Y-66345854D01*
X202242093Y-66345850D01*
X202357187Y-66259690D01*
X202357190Y-66259687D01*
X202443350Y-66144593D01*
X202443354Y-66144586D01*
X202493596Y-66009879D01*
X202493598Y-66009872D01*
X202499999Y-65950344D01*
X202500000Y-65950327D01*
X202500000Y-63612500D01*
X201500000Y-63612500D01*
X201500000Y-66402500D01*
X201000000Y-66402500D01*
X201000000Y-63612500D01*
X200000000Y-63612500D01*
X200000000Y-65950344D01*
X193999999Y-65950344D01*
X194000000Y-65950327D01*
X194000000Y-63612500D01*
X193000000Y-63612500D01*
X193000000Y-66402500D01*
X192500000Y-66402500D01*
X192500000Y-63612500D01*
X191500000Y-63612500D01*
X191500000Y-65950344D01*
X165500500Y-65950344D01*
X165500500Y-62893713D01*
X166649500Y-62893713D01*
X166649500Y-63106286D01*
X166682753Y-63316239D01*
X166748444Y-63518414D01*
X166844951Y-63707820D01*
X166969890Y-63879786D01*
X167120213Y-64030109D01*
X167292179Y-64155048D01*
X167292181Y-64155049D01*
X167292184Y-64155051D01*
X167481588Y-64251557D01*
X167683757Y-64317246D01*
X167893713Y-64350500D01*
X167893714Y-64350500D01*
X168106286Y-64350500D01*
X168106287Y-64350500D01*
X168316243Y-64317246D01*
X168518412Y-64251557D01*
X168707816Y-64155051D01*
X168729789Y-64139086D01*
X168879786Y-64030109D01*
X168879788Y-64030106D01*
X168879792Y-64030104D01*
X169030104Y-63879792D01*
X169030106Y-63879788D01*
X169030109Y-63879786D01*
X169155048Y-63707820D01*
X169155047Y-63707820D01*
X169155051Y-63707816D01*
X169251557Y-63518412D01*
X169317246Y-63316243D01*
X169350500Y-63106287D01*
X169350500Y-62893713D01*
X169317246Y-62683757D01*
X169251557Y-62481588D01*
X169155051Y-62292184D01*
X169155049Y-62292181D01*
X169155048Y-62292179D01*
X169030109Y-62120213D01*
X168879786Y-61969890D01*
X168707820Y-61844951D01*
X168518414Y-61748444D01*
X168518413Y-61748443D01*
X168518412Y-61748443D01*
X168316243Y-61682754D01*
X168316241Y-61682753D01*
X168316240Y-61682753D01*
X168154957Y-61657208D01*
X168106287Y-61649500D01*
X167893713Y-61649500D01*
X167845042Y-61657208D01*
X167683760Y-61682753D01*
X167481585Y-61748444D01*
X167292179Y-61844951D01*
X167120213Y-61969890D01*
X166969890Y-62120213D01*
X166844951Y-62292179D01*
X166748444Y-62481585D01*
X166682753Y-62683760D01*
X166649500Y-62893713D01*
X165500500Y-62893713D01*
X165500500Y-60624500D01*
X165520185Y-60557461D01*
X165572989Y-60511706D01*
X165624500Y-60500500D01*
X191407858Y-60500500D01*
X191474897Y-60520185D01*
G37*
%TD.AperFunction*%
%TD*%
M02*
